<svg xmlns="http://www.w3.org/2000/svg" width="40" height="28" version="1" viewBox="0 0 512 512"><path fill="#aaa" d="M339 49a106 106 0 0 0-89 117l1 10-14-1A298 298 0 0 1 36 67c-1 0-6 9-9 17a105 105 0 0 0 36 121l3 2-4-1a105 105 0 0 1-40-12h-2v9c4 43 31 79 71 92l11 4-7 1c-14 2-18 2-28 1l-10-1a106 106 0 0 0 86 72c11 2 11 2 4 6A209 209 0 0 1 0 417l29 16a303 303 0 0 0 269 0 301 301 0 0 0 162-260v-21l9-7a244 244 0 0 0 43-48l-8 3a206 206 0 0 1-49 13l6-5c8-5 19-18 24-25s12-21 13-25c0-3 0-3-13 4-13 6-31 13-46 17l-8 2-4-5c-10-10-30-21-46-25-6-2-12-2-24-3l-18 1z"></path></svg>