<?xml version="1.0" encoding="UTF-8" standalone="no"?><!DOCTYPE svg PUBLIC "-//W3C//DTD SVG 1.1//EN" "http://www.w3.org/Graphics/SVG/1.1/DTD/svg11.dtd"><svg width="100%" height="100%" viewBox="0 0 27 10" version="1.1" xmlns="http://www.w3.org/2000/svg" xmlns:xlink="http://www.w3.org/1999/xlink" xml:space="preserve" xmlns:serif="http://www.serif.com/" style="fill-rule:evenodd;clip-rule:evenodd;stroke-linejoin:round;stroke-miterlimit:1.41421;"><g><g><g><path d="M1.851,6.426c-0.01,-0.975 0.784,-1.786 1.76,-1.796c0.975,-0.01 1.786,0.785 1.796,1.76c0.01,0.976 -0.785,1.787 -1.76,1.797c-0.976,0.01 -1.786,-0.785 -1.796,-1.76" style="fill:none;stroke:#000;stroke-width:0.27px;"/><path d="M0.863,9.125l1.465,-1.465l0.184,0.185l-1.465,1.464l-0.184,-0.184Z" style="stroke:#000;stroke-width:0.16px;"/><path d="M2.787,5.515c0.08,-0.084 0.169,-0.158 0.264,-0.222c0.104,-0.07 0.216,-0.127 0.332,-0.168c0.125,-0.044 0.253,-0.071 0.381,-0.081c0.149,-0.012 0.296,0 0.433,0.022c-0.127,-0.057 -0.273,-0.099 -0.433,-0.113c-0.136,-0.012 -0.279,0 -0.423,0.032c-0.133,0.032 -0.263,0.085 -0.385,0.159c-0.12,0.071 -0.23,0.16 -0.326,0.263c-0.018,0.019 -0.036,0.038 -0.053,0.058c-0.075,0.089 -0.141,0.186 -0.196,0.287c-0.07,0.13 -0.121,0.266 -0.155,0.404c-0.037,0.148 -0.052,0.295 -0.049,0.437c0.004,0.158 0.029,0.307 0.071,0.442c-0.007,-0.14 -0.002,-0.287 0.02,-0.437c0.019,-0.133 0.052,-0.268 0.099,-0.4c0.044,-0.123 0.101,-0.243 0.17,-0.357c0.066,-0.11 0.143,-0.213 0.23,-0.306c0.007,-0.008 0.013,-0.014 0.02,-0.021l0,0.001Z" style="fill-rule:nonzero;"/><g><path id="V-6" serif:id="V 6" d="M3.529,5.539c-0.439,-0.01 -0.703,0.4 -0.876,1.302" style="fill:none;"/><clipPath id="_clip1"><path d="M3.529,5.539c-0.439,-0.01 -0.703,0.4 -0.876,1.302"/></clipPath><g clip-path="url(#_clip1)"><path id="V-6-OLD" serif:id="V 6 OLD" d="M2.906,6.016c0.039,-0.081 0.084,-0.157 0.137,-0.226c0.035,-0.045 0.073,-0.085 0.114,-0.119c0.038,-0.031 0.078,-0.057 0.12,-0.077c0.041,-0.02 0.083,-0.034 0.124,-0.042c0.044,-0.009 0.088,-0.013 0.128,-0.013c-0.04,0 -0.084,0 -0.129,0.009c-0.042,0.008 -0.085,0.019 -0.127,0.037c-0.044,0.019 -0.085,0.045 -0.124,0.076c-0.044,0.035 -0.083,0.076 -0.119,0.121c-0.06,0.076 -0.109,0.16 -0.151,0.251c-0.023,0.049 -0.043,0.099 -0.062,0.149c-0.087,0.237 -0.135,0.478 -0.164,0.659c0.038,-0.178 0.093,-0.419 0.181,-0.652c0.022,-0.058 0.046,-0.116 0.072,-0.172l0,-0.001Z" style="fill-rule:nonzero;"/></g><path d="M3.488,5.522l0.036,0.003l0.005,0l0.014,0.014l-0.013,0.014l-0.006,0.001l-0.035,0.003l-0.038,0.006l-0.037,0.008l-0.035,0.011l-0.006,0.002l-0.028,0.011l-0.033,0.014l-0.031,0.017l-0.03,0.019l-0.029,0.022l-0.02,0.016l-0.009,0.008l-0.027,0.025l-0.027,0.028l-0.012,0.015l-0.013,0.016l-0.026,0.032l-0.024,0.036l-0.003,0.004l-0.021,0.033l-0.024,0.041l-0.011,0.02l-0.012,0.022l-0.024,0.045l-0.012,0.026l-0.011,0.022l-0.023,0.05l-0.014,0.033l-0.01,0.02l-0.024,0.056l-0.019,0.047l-0.004,0.011l-0.024,0.061l-0.022,0.062l-0.001,0.002l-0.023,0.067l-0.021,0.064l-0.002,0.006l-0.024,0.073l-0.023,0.075l-0.019,0.068l-0.003,0.011l-0.023,0.082l-0.018,0.017l-0.01,-0.023l0.01,-0.084l0.002,-0.012l0.01,-0.07l0.012,-0.079l0.013,-0.076l0.001,-0.007l0.013,-0.067l0.016,-0.071l0,-0.003l0.016,-0.065l0.018,-0.066l0.003,-0.011l0.016,-0.051l0.021,-0.06l0.008,-0.022l0.013,-0.035l0.024,-0.055l0.011,-0.024l0.014,-0.027l0.026,-0.049l0.015,-0.024l0.013,-0.021l0.029,-0.043l0.027,-0.036l0.003,-0.004l0.031,-0.037l0.033,-0.034l0.017,-0.016l0.016,-0.015l0.034,-0.029l0.035,-0.025l0.011,-0.007l0.025,-0.016l0.037,-0.019l0.038,-0.017l0.038,-0.013l0.039,-0.011l0.032,-0.007l0.007,-0.001l0.04,-0.005l0.041,-0.002l0.041,0Z"/><path id="V-5" serif:id="V 5" d="M3.554,5.647c-0.412,0.155 -0.574,0.677 -0.639,1.558" style="fill:none;"/><clipPath id="_clip2"><path d="M3.554,5.647c-0.412,0.155 -0.574,0.677 -0.639,1.558"/></clipPath><g clip-path="url(#_clip2)"><path id="V-5-OLD" serif:id="V 5 OLD" d="M3.062,6.322c0.021,-0.074 0.046,-0.147 0.076,-0.217c0.029,-0.069 0.063,-0.133 0.103,-0.192c0.04,-0.06 0.086,-0.113 0.136,-0.156c0.056,-0.05 0.117,-0.085 0.177,-0.11c-0.061,0.021 -0.125,0.053 -0.184,0.101c-0.053,0.042 -0.102,0.094 -0.145,0.154c-0.042,0.059 -0.078,0.124 -0.109,0.194c-0.031,0.07 -0.057,0.144 -0.078,0.219c-0.003,0.009 -0.005,0.017 -0.007,0.025c-0.04,0.149 -0.065,0.3 -0.081,0.442c-0.009,0.077 -0.016,0.153 -0.021,0.223c-0.005,0.069 -0.01,0.142 -0.014,0.2c0.009,-0.065 0.016,-0.123 0.025,-0.199c0.008,-0.069 0.018,-0.145 0.029,-0.221c0.021,-0.15 0.049,-0.308 0.093,-0.463l0,0l0,0Z"/></g><path d="M3.58,5.636l-0.016,0.037l-0.004,0.003l-0.031,0.016l-0.033,0.019l-0.032,0.022l-0.029,0.024l-0.013,0.011l-0.015,0.014l-0.027,0.026l-0.026,0.029l-0.024,0.031l-0.023,0.032l-0.019,0.031l-0.002,0.003l-0.021,0.037l-0.02,0.038l-0.01,0.022l-0.008,0.018l-0.018,0.042l-0.017,0.044l-0.002,0.004l-0.015,0.042l-0.016,0.048l-0.005,0.019l-0.01,0.031l-0.015,0.052l-0.006,0.023l-0.009,0.032l-0.006,0.022l-0.009,0.034l-0.007,0.027l-0.008,0.031l-0.015,0.061l-0.01,0.04l-0.005,0.023l-0.015,0.065l-0.011,0.054l-0.003,0.013l-0.014,0.07l-0.011,0.056l-0.003,0.015l-0.014,0.074l-0.013,0.077l-0.011,0.064l-0.002,0.014l-0.012,0.076l-0.001,0.005l-0.031,0.027l-0.026,-0.031l0,-0.006l0,-0.077l0,-0.014l0.001,-0.066l0.001,-0.078l0.003,-0.077l0.001,-0.016l0.003,-0.058l0.005,-0.073l0.001,-0.014l0.006,-0.056l0.007,-0.068l0.003,-0.024l0.007,-0.043l0.01,-0.064l0.006,-0.035l0.006,-0.028l0.008,-0.036l0.006,-0.024l0.009,-0.035l0.006,-0.023l0.018,-0.056l0.012,-0.034l0.007,-0.02l0.021,-0.051l0.02,-0.046l0.002,-0.004l0.023,-0.047l0.025,-0.045l0.011,-0.018l0.015,-0.024l0.028,-0.041l0.029,-0.038l0.003,-0.004l0.027,-0.031l0.031,-0.033l0.033,-0.031l0.034,-0.028l0.035,-0.026l0.02,-0.013l0.016,-0.01l0.038,-0.021l0.039,-0.018l0.04,-0.016l0.034,-0.011l0.006,-0.002l0.037,0.016Z"/><path id="V-4" serif:id="V 4" d="M3.666,5.746c-0.193,0.266 -0.328,0.888 -0.372,1.654" style="fill:none;"/><clipPath id="_clip3"><path d="M3.666,5.746c-0.193,0.266 -0.328,0.888 -0.372,1.654"/></clipPath><g clip-path="url(#_clip3)"><path id="V-4-OLD" serif:id="V 4 OLD" d="M3.409,6.541c0.002,-0.011 0.004,-0.022 0.006,-0.033c0.03,-0.155 0.062,-0.298 0.106,-0.436c0.02,-0.065 0.042,-0.124 0.067,-0.181c0.024,-0.054 0.049,-0.102 0.078,-0.145c-0.033,0.04 -0.062,0.086 -0.09,0.14c-0.029,0.055 -0.054,0.114 -0.077,0.179c-0.05,0.137 -0.087,0.282 -0.117,0.437c-0.004,0.019 -0.007,0.038 -0.011,0.057c-0.025,0.141 -0.043,0.281 -0.056,0.414c-0.015,0.16 -0.021,0.303 -0.021,0.427c0.012,-0.126 0.026,-0.263 0.047,-0.424c0.019,-0.141 0.04,-0.287 0.068,-0.436l0,0.001Z"/></g><path d="M3.692,5.765l-0.002,0.005l-0.013,0.021l-0.014,0.029l-0.014,0.03l-0.014,0.032l-0.013,0.034l-0.001,0.001l-0.012,0.035l-0.013,0.037l-0.012,0.039l-0.011,0.042l-0.011,0.043l-0.002,0.008l-0.009,0.036l-0.011,0.046l-0.006,0.03l-0.004,0.018l-0.01,0.049l-0.01,0.047l0,0.003l-0.01,0.052l-0.01,0.057l-0.01,0.052l-0.01,0.056l-0.011,0.057l-0.011,0.057l-0.012,0.061l-0.013,0.071l-0.01,0.052l-0.015,0.086l-0.008,0.042l-0.015,0.093l-0.007,0.039l-0.022,0.136l-0.006,0.049l-0.014,0.092l-0.035,0.038l-0.029,-0.042l-0.002,-0.094l0,-0.049l0.001,-0.14l0.001,-0.039l0.004,-0.097l0.002,-0.043l0.006,-0.089l0.004,-0.054l0.007,-0.074l0.008,-0.062l0.008,-0.06l0.01,-0.06l0.011,-0.057l0.012,-0.053l0.014,-0.058l0.014,-0.054l0.001,-0.003l0.015,-0.048l0.015,-0.05l0.006,-0.018l0.011,-0.031l0.017,-0.046l0.014,-0.037l0.003,-0.008l0.018,-0.043l0.019,-0.042l0.018,-0.039l0.019,-0.038l0.019,-0.035l0.001,-0.001l0.02,-0.034l0.02,-0.031l0.02,-0.03l0.021,-0.028l0.017,-0.02l0.004,-0.005l0.044,-0.008l0.008,0.045Z"/><path id="V-3" serif:id="V 3" d="M3.844,5.791l-0.07,1.689" style="fill:none;"/><clipPath id="_clip4"><path d="M3.844,5.791l-0.07,1.689"/></clipPath><g clip-path="url(#_clip4)"><path id="V-3-OLD" serif:id="V 3 OLD" d="M3.826,6.624c0.012,-0.311 0.019,-0.608 0.018,-0.833c-0.02,0.23 -0.039,0.538 -0.052,0.856c-0.012,0.31 -0.019,0.608 -0.018,0.833l0.052,-0.856Z"/></g><path d="M3.878,5.792l0,0.006l0.008,0.167l0.009,0.217l0.003,0.116l0.002,0.118l-0.001,0.115l-0.003,0.11l-0.007,0.117l-0.012,0.133l-0.014,0.14l-0.015,0.136l-0.028,0.223l-0.011,0.086l-0.001,0.006l-0.035,0.033l-0.033,-0.036l0,-0.006l-0.004,-0.087l-0.009,-0.224l-0.005,-0.137l-0.002,-0.141l-0.001,-0.133l0.003,-0.117l0.006,-0.11l0.009,-0.115l0.011,-0.117l0.013,-0.116l0.026,-0.215l0.022,-0.166l0.001,-0.006l0.035,-0.032l0.033,0.035Z"/><path id="V-2" serif:id="V 2" d="M4.039,5.766c0.241,0.591 0.235,0.935 0.22,1.651" style="fill:none;"/><clipPath id="_clip5"><path d="M4.039,5.766c0.241,0.591 0.235,0.935 0.22,1.651"/></clipPath><g clip-path="url(#_clip5)"><path id="V-2-OLD" serif:id="V 2 OLD" d="M4.262,6.563c-0.011,-0.095 -0.026,-0.189 -0.046,-0.28c-0.045,-0.202 -0.11,-0.377 -0.177,-0.517c0.054,0.146 0.108,0.321 0.148,0.523c0.019,0.099 0.034,0.2 0.044,0.303c0.005,0.051 0.01,0.101 0.013,0.152c0.008,0.131 0.009,0.262 0.009,0.38c0,0.057 0,0.106 0.001,0.158c0,0.049 0.002,0.092 0.005,0.135c0.001,-0.043 0.003,-0.086 0.005,-0.134c0.003,-0.05 0.006,-0.103 0.009,-0.158c0.006,-0.119 0.009,-0.25 0.003,-0.383l0,0c-0.003,-0.059 -0.008,-0.119 -0.014,-0.179l0,0Z"/></g><path d="M4.069,5.755l0.002,0.004l0.025,0.049l0.025,0.051l0.025,0.051l0,0l0.022,0.051l0.021,0.049l0.019,0.049l0.019,0.049l0.002,0.006l0.014,0.042l0.016,0.047l0.007,0.024l0.007,0.024l0.012,0.047l0.011,0.045l0.001,0.002l0.01,0.048l0.009,0.047l0.003,0.019l0.004,0.029l0.006,0.048l0.004,0.035l0.001,0.013l0.004,0.044l0,0.005l0.002,0.057l0.001,0.042l-0.001,0.093l0,0.009l-0.005,0.106l-0.002,0.026l-0.006,0.084l-0.004,0.053l-0.006,0.063l-0.016,0.16l-0.009,0.087l-0.001,0.005l-0.032,0.031l-0.031,-0.033l-0.001,-0.005l-0.006,-0.086l-0.01,-0.161l-0.005,-0.062l-0.003,-0.053l-0.006,-0.082l-0.002,-0.026l-0.008,-0.103l-0.001,-0.008l-0.008,-0.09l-0.004,-0.04l-0.005,-0.055l0,-0.004l-0.004,-0.042l-0.002,-0.012l-0.002,-0.033l-0.005,-0.045l-0.003,-0.027l-0.002,-0.018l-0.005,-0.045l-0.006,-0.045l0,-0.002l-0.006,-0.044l-0.007,-0.045l-0.004,-0.023l-0.003,-0.023l-0.009,-0.047l-0.008,-0.041l-0.001,-0.006l-0.01,-0.049l-0.011,-0.049l-0.012,-0.051l-0.013,-0.051l0,-0.001l-0.014,-0.053l-0.015,-0.054l-0.016,-0.052l-0.001,-0.005l0.018,-0.041l0.041,0.018Z"/><path id="V-1" serif:id="V 1" d="M4.185,5.671c0.358,0.305 0.551,0.82 0.449,1.565" style="fill:none;"/><clipPath id="_clip6"><path d="M4.185,5.671c0.358,0.305 0.551,0.82 0.449,1.565"/></clipPath><g clip-path="url(#_clip6)"><path id="V-1-OLD" serif:id="V 1 OLD" d="M4.62,6.376c-0.003,-0.011 -0.005,-0.021 -0.008,-0.031c-0.036,-0.137 -0.09,-0.262 -0.159,-0.374c-0.081,-0.128 -0.176,-0.228 -0.268,-0.3c0.086,0.079 0.176,0.181 0.251,0.31c0.065,0.112 0.116,0.236 0.151,0.37c0.005,0.019 0.01,0.036 0.014,0.055c0.028,0.123 0.043,0.246 0.049,0.367c0.008,0.172 -0.003,0.331 -0.016,0.463c0.023,-0.13 0.041,-0.29 0.037,-0.464c-0.002,-0.13 -0.018,-0.264 -0.051,-0.397l0,0.001Z"/></g><path d="M4.207,5.654l0.031,0.024l0.035,0.029l0.035,0.03l0.03,0.029l0.003,0.003l0.032,0.033l0.032,0.035l0.03,0.036l0.029,0.038l0.02,0.028l0.008,0.011l0.026,0.041l0.026,0.043l0.004,0.008l0.02,0.036l0.022,0.045l0.014,0.03l0.007,0.017l0.019,0.048l0.017,0.048l0.001,0.002l0.016,0.051l0.014,0.053l0.001,0.004l0.01,0.05l0.002,0.007l0.008,0.049l0.002,0.014l0.005,0.043l0.006,0.058l0.002,0.038l0.001,0.021l0.002,0.06l-0.001,0.062l0,0.002l-0.002,0.061l-0.004,0.063l-0.002,0.016l-0.005,0.049l-0.008,0.066l-0.01,0.067l-0.007,0.045l-0.004,0.023l-0.013,0.064l-0.001,0.005l-0.029,0.023l-0.023,-0.03l0.001,-0.005l0.003,-0.064l0,-0.023l0.002,-0.045l0.001,-0.065l-0.001,-0.065l-0.002,-0.047l-0.001,-0.016l-0.003,-0.061l-0.005,-0.058l0,-0.001l-0.005,-0.058l-0.008,-0.057l-0.003,-0.02l-0.005,-0.035l-0.009,-0.054l-0.008,-0.039l-0.002,-0.013l-0.01,-0.045l-0.001,-0.006l-0.011,-0.046l0,-0.004l-0.012,-0.049l-0.013,-0.047l-0.001,-0.002l-0.013,-0.045l-0.015,-0.045l-0.006,-0.016l-0.009,-0.028l-0.017,-0.043l-0.015,-0.034l-0.003,-0.008l-0.019,-0.041l-0.02,-0.041l-0.006,-0.011l-0.015,-0.028l-0.022,-0.038l-0.023,-0.037l-0.025,-0.036l-0.025,-0.035l-0.003,-0.003l-0.024,-0.031l-0.027,-0.034l-0.029,-0.032l-0.027,-0.027l-0.004,-0.004l-0.002,-0.037l0.037,-0.002l0.004,0.003Z"/><path id="V-0" serif:id="V 0" d="M4.194,5.523l0.036,0.004l0.044,0.008l0.042,0.01l0.041,0.012l0.001,0.001l0.04,0.015l0.039,0.019l0.038,0.021l0.037,0.023l0.035,0.026l0.003,0.003l0.031,0.026l0.033,0.031l0.031,0.034l0.031,0.036l0.028,0.038l0.008,0.012l0.019,0.029l0.026,0.042l0.016,0.03l0.008,0.016l0.022,0.047l0.016,0.038l0.005,0.012l0.019,0.051l0.015,0.049l0.002,0.005l0.015,0.056l0.013,0.057l0.002,0.012l0.009,0.048l0.01,0.061l0.009,0.063l0.007,0.065l0.003,0.036l0.002,0.031l0.003,0.068l0.002,0.07l0.001,0.071l-0.001,0.073l-0.017,0.021l-0.017,-0.02l-0.006,-0.072l-0.007,-0.07l-0.008,-0.069l-0.01,-0.066l-0.004,-0.029l-0.006,-0.035l-0.011,-0.063l-0.013,-0.06l-0.014,-0.059l-0.012,-0.045l-0.003,-0.011l-0.015,-0.054l-0.017,-0.053l-0.002,-0.005l-0.015,-0.045l-0.019,-0.048l-0.004,-0.011l-0.015,-0.036l-0.02,-0.044l-0.007,-0.015l-0.014,-0.027l-0.022,-0.041l-0.016,-0.027l-0.007,-0.011l-0.023,-0.037l-0.026,-0.034l-0.026,-0.033l-0.028,-0.03l-0.026,-0.025l-0.003,-0.003l-0.03,-0.026l-0.031,-0.024l-0.033,-0.022l-0.034,-0.02l-0.036,-0.018l0,0l-0.036,-0.015l-0.039,-0.014l-0.04,-0.011l-0.035,-0.007l-0.007,-0.002l-0.014,-0.019l0.02,-0.015l0.007,0.001Z"/><path id="H-5" serif:id="H 5" d="M3.617,5.542l0,0.001l0.001,-0.007l0,0.007l0.001,0.008l0.001,-0.008l0.001,0.008l0.002,0.007l-0.001,-0.007l0.003,0.008l0.004,0.008l-0.002,-0.006l0.005,0.008l0.006,0.008l-0.003,-0.005l0.007,0.009l0.001,0l0.007,0.009l-0.004,-0.006l0.014,0.014l0.011,0.009l0.013,0.009l0.013,0.008l0.005,0.002l0.009,0.005l0.014,0.006l0.015,0.006l0.015,0.005l0.017,0.004l0.002,0l0.014,0.004l0.017,0.003l0.018,0.003l0.018,0.001l0.01,0.001l0.008,0.001l0.018,0.001l0.015,0l0.003,0l0.018,0l0.018,-0.001l0.006,0l0.012,-0.001l0.018,-0.001l0.017,-0.003l0.016,-0.003l0.016,-0.004l0.015,-0.005l0.001,0l0.014,-0.004l0.014,-0.005l0.012,-0.006l0.012,-0.006l0.01,-0.007l0.012,-0.01l-0.005,0.006l0.007,-0.007l0.003,-0.003l0.01,-0.011l-0.007,0.015l0.008,-0.015l0.006,-0.016l-0.001,0.009l0.004,-0.015l0.002,-0.015l0.001,0.008l0,-0.015l0,-0.004l-0.002,-0.012l0.003,0.008l-0.004,-0.017l-0.007,-0.017l0.004,0.005l-0.01,-0.018l-0.011,-0.017l-0.015,-0.017l-0.018,-0.019l-0.021,-0.019l-0.016,-0.012l-0.009,-0.008l-0.028,-0.02l-0.028,-0.019l-0.004,-0.002l-0.008,-0.017l0.018,-0.007l0.005,0.001l0.033,0.008l0.036,0.01l0.012,0.005l0.02,0.007l0.031,0.013l0.027,0.015l0.025,0.016l0.023,0.017l0.021,0.02l0.017,0.022l0.015,0.023l0.009,0.019l0.002,0.006l0.008,0.027l0.003,0.028l0.001,0.028l-0.003,0.029l-0.008,0.033l-0.014,0.027l-0.003,0.006l-0.01,0.016l-0.016,0.021l-0.017,0.019l-0.019,0.018l-0.02,0.017l-0.021,0.015l-0.023,0.014l0,0l-0.023,0.013l-0.025,0.011l-0.025,0.01l-0.026,0.008l-0.027,0.008l-0.018,0.004l-0.009,0.002l-0.027,0.004l-0.028,0.003l-0.005,0.001l-0.024,0l-0.028,0l-0.012,-0.001l-0.017,-0.001l-0.028,-0.005l-0.028,-0.005l-0.028,-0.008l-0.024,-0.007l-0.004,-0.002l-0.027,-0.011l-0.026,-0.013l-0.025,-0.014l-0.025,-0.017l-0.016,-0.012l-0.007,-0.006l-0.022,-0.02l-0.02,-0.022l-0.018,-0.024l-0.017,-0.025l-0.009,-0.018l-0.001,0l-0.008,-0.018l-0.007,-0.018l-0.005,-0.019l-0.004,-0.019l-0.002,-0.019l-0.002,-0.019l0.001,0l0.001,-0.018l0.002,-0.019l0.001,0l0.005,-0.018l0,-0.001l0,0l0.007,-0.016l0.008,-0.016l0.01,-0.015l0.01,-0.014l0.012,-0.013l0.013,-0.012l0.014,-0.011l0.015,-0.01l0.015,-0.009l0.017,-0.008l0.017,-0.008l0.018,-0.007l0.037,-0.012l0.011,-0.002l0.03,-0.006l0.044,-0.007l0.047,-0.004l0.045,-0.001l0.005,0l0.014,0.01l-0.009,0.015l-0.005,0.001l-0.041,0.017l-0.04,0.018l-0.036,0.019l-0.023,0.015l-0.008,0.004l-0.027,0.019l-0.011,0.009l-0.01,0.009l-0.009,0.009l-0.007,0.009l-0.006,0.008l-0.007,0.01l0.003,-0.003l-0.005,0.009l-0.005,0.009l0.003,-0.005l-0.003,0.009l-0.002,0.009l0.003,-0.006l-0.002,0.008l0,0.007Z"/><path id="H-4" serif:id="H 4" d="M3.393,5.449l-0.002,0.012l-0.005,0.004l-0.019,0.015l-0.02,0.02l-0.017,0.021l-0.014,0.022l-0.012,0.022l-0.009,0.022l-0.006,0.024l-0.004,0.023l-0.002,0.018l0,0.005l0.001,0.024l0.002,0.024l0.005,0.024l0.008,0.023l0.009,0.024l0.012,0.023l0.014,0.023l0.016,0.023l0.018,0.022l0.02,0.021l0.004,0.003l0.018,0.017l0.025,0.02l0.026,0.019l0.028,0.018l0.021,0.011l0.01,0.005l0.032,0.016l0.035,0.014l0.037,0.013l0.023,0.006l0.015,0.005l0.041,0.01l0.043,0.008l0.044,0.006l0,0l0.052,0.005l0.024,0.004l0.01,0.002l0.03,0.004l0.023,0.001l0.008,0.001l0.033,0l0.025,-0.001l0.009,0l0.035,-0.003l0.029,-0.005l0.006,0l0.036,-0.007l0.036,-0.008l0.035,-0.01l0.035,-0.011l0.007,-0.003l0.027,-0.01l0.032,-0.014l0.031,-0.015l0.03,-0.017l0.027,-0.018l0,0l0.025,-0.019l0.023,-0.021l0.01,-0.009l0.009,-0.011l0.009,-0.011l0.008,-0.011l0.007,-0.011l0.006,-0.011l0.004,-0.008l0.002,-0.003l0.005,-0.012l0.004,-0.012l0.003,-0.012l0.003,-0.012l0.001,-0.013l0.001,-0.013l-0.001,-0.013l-0.001,-0.014l-0.003,-0.014l-0.003,-0.015l-0.005,-0.015l-0.007,-0.015l-0.007,-0.016l-0.009,-0.016l-0.011,-0.017l-0.012,-0.017l-0.005,-0.006l-0.009,-0.011l-0.015,-0.018l-0.016,-0.018l-0.019,-0.019l-0.016,-0.015l-0.004,-0.003l-0.002,-0.013l0.013,-0.001l0.004,0.003l0.019,0.012l0.022,0.015l0.021,0.016l0.019,0.016l0.011,0.01l0.006,0.006l0.016,0.017l0.015,0.016l0.013,0.017l0.011,0.017l0.011,0.017l0.009,0.018l0.007,0.017l0.006,0.018l0.005,0.018l0.004,0.017l0.002,0.018l0,0.018l0,0.018l-0.002,0.018l-0.003,0.017l-0.005,0.018l-0.001,0.005l-0.004,0.012l-0.007,0.017l-0.008,0.016l-0.008,0.016l-0.01,0.016l-0.011,0.015l-0.011,0.016l-0.025,0.028l-0.027,0.028l-0.001,0l-0.03,0.026l-0.033,0.024l-0.035,0.023l-0.036,0.021l-0.03,0.015l-0.008,0.004l-0.04,0.016l-0.04,0.015l-0.041,0.013l-0.042,0.011l-0.008,0.002l-0.034,0.007l-0.042,0.006l-0.011,0.001l-0.031,0.002l-0.042,0l-0.01,0l-0.031,-0.002l-0.04,-0.006l-0.01,-0.002l-0.023,-0.005l-0.049,-0.007l-0.001,0l-0.05,-0.01l-0.049,-0.013l-0.047,-0.014l-0.017,-0.007l-0.027,-0.01l-0.042,-0.019l-0.039,-0.021l-0.037,-0.022l-0.011,-0.008l-0.024,-0.016l-0.031,-0.025l-0.029,-0.027l-0.027,-0.027l-0.02,-0.024l-0.004,-0.004l-0.021,-0.03l-0.018,-0.029l-0.016,-0.031l-0.013,-0.03l-0.01,-0.031l-0.008,-0.03l-0.004,-0.031l-0.002,-0.03l0,-0.03l0.004,-0.029l0.001,-0.006l0.005,-0.022l0.01,-0.027l0.012,-0.026l0.014,-0.025l0.018,-0.023l0.019,-0.022l0.023,-0.02l0.025,-0.018l0.021,-0.013l0.005,-0.003l0.013,0.003Z"/><path id="H-3" serif:id="H 3" d="M3.031,5.654l-0.003,0.009l-0.007,0.028l-0.007,0.036l-0.005,0.037l-0.002,0.036l0.001,0.037l0.003,0.036l0.005,0.036l0.003,0.015l0.005,0.021l0.01,0.036l0.012,0.035l0.014,0.034l0.017,0.034l0.018,0.032l0.021,0.032l0.023,0.031l0.025,0.03l0.006,0.006l0.021,0.023l0.028,0.027l0.031,0.026l0.032,0.025l0.02,0.013l0.015,0.01l0.036,0.021l0.038,0.02l0.04,0.018l0.026,0.01l0.015,0.006l0.044,0.015l0.045,0.012l0.047,0.01l0.014,0.003l0.036,0.006l0.024,0.003l0.026,0.003l0.026,0.002l0.027,0.002l0.022,0.001l0.005,0l0.031,0.001l0.047,0.003l0.043,0.002l0.043,0l0.01,-0.001l0.033,0l0.042,-0.003l0.041,-0.004l0.041,-0.005l0.038,-0.007l0.002,0l0.039,-0.008l0.038,-0.009l0.038,-0.011l0.036,-0.013l0.035,-0.013l0.007,-0.003l0.028,-0.012l0.032,-0.016l0.032,-0.018l0.03,-0.018l0.029,-0.021l0.019,-0.014l0.008,-0.007l0.026,-0.022l0.024,-0.024l0.022,-0.025l0.021,-0.026l0.019,-0.027l0.017,-0.029l0.014,-0.03l0.013,-0.031l0.011,-0.032l0.002,-0.009l0.006,-0.025l0.006,-0.035l0.004,-0.037l0.001,-0.039l0.019,-0.023l0.021,0.022l0.005,0.04l0.002,0.04l-0.001,0.039l-0.003,0.029l-0.001,0.01l-0.007,0.039l-0.01,0.037l-0.012,0.037l-0.015,0.036l-0.018,0.034l-0.02,0.034l-0.022,0.033l-0.024,0.031l-0.027,0.03l-0.009,0.009l-0.02,0.02l-0.031,0.027l-0.032,0.026l-0.035,0.025l-0.036,0.023l-0.03,0.017l-0.007,0.005l-0.039,0.02l-0.041,0.018l-0.042,0.017l-0.043,0.015l-0.044,0.014l-0.002,0l-0.043,0.011l-0.047,0.01l-0.047,0.008l-0.048,0.006l-0.037,0.003l-0.012,0.001l-0.049,0.002l-0.05,-0.001l-0.047,-0.002l-0.029,0l-0.006,0l-0.026,-0.001l-0.031,-0.003l-0.031,-0.003l-0.03,-0.004l-0.03,-0.005l-0.042,-0.008l-0.015,-0.003l-0.056,-0.016l-0.053,-0.018l-0.051,-0.02l-0.018,-0.009l-0.031,-0.014l-0.046,-0.026l-0.043,-0.028l-0.041,-0.029l-0.017,-0.014l-0.022,-0.018l-0.036,-0.033l-0.033,-0.035l-0.03,-0.036l-0.022,-0.03l-0.006,-0.008l-0.025,-0.038l-0.023,-0.04l-0.019,-0.04l-0.017,-0.04l-0.014,-0.042l-0.012,-0.041l-0.009,-0.042l-0.006,-0.042l-0.002,-0.024l-0.001,-0.017l-0.001,-0.042l0.003,-0.041l0.005,-0.041l0.007,-0.039l0.011,-0.04l0.013,-0.038l0.012,-0.027l0.004,-0.009l0.025,-0.012l0.013,0.025Z"/><path id="H-2" serif:id="H 2" d="M2.759,6.093l0.001,0.01l0.001,0.02l0.002,0.028l0.002,0.028l0.004,0.027l0.004,0.027l0.005,0.026l0.005,0.025l0.006,0.025l0.007,0.024l0.008,0.023l0.008,0.023l0.006,0.016l0.002,0.006l0.009,0.022l0.009,0.021l0.01,0.02l0.011,0.02l0.011,0.02l0.011,0.018l0.025,0.037l0.026,0.034l0.028,0.031l0.03,0.03l0.032,0.028l0.01,0.009l0.022,0.018l0.034,0.025l0.036,0.023l0.037,0.021l0.035,0.018l0.003,0.002l0.039,0.018l0.041,0.017l0.041,0.015l0.043,0.013l0.017,0.005l0.026,0.008l0.044,0.011l0.045,0.009l0.045,0.008l0.028,0.004l0.018,0.003l0.046,0.006l0.047,0.004l0.047,0.003l0.024,0.001l0.023,0.001l0.047,0.002l0.048,0l0.047,-0.002l0.027,-0.002l0.02,0l0.047,-0.003l0.047,-0.005l0.047,-0.006l0.046,-0.007l0.009,-0.002l0.036,-0.006l0.045,-0.009l0.044,-0.011l0.043,-0.012l0.042,-0.013l0.009,-0.003l0.032,-0.011l0.04,-0.016l0.039,-0.017l0.037,-0.018l0.036,-0.019l0.015,-0.009l0.019,-0.011l0.033,-0.021l0.032,-0.023l0.029,-0.024l0.028,-0.025l0.025,-0.026l0.024,-0.027l0.021,-0.029l0.02,-0.03l0.016,-0.03l0.001,-0.001l0.015,-0.033l0.006,-0.017l0.006,-0.017l0.005,-0.017l0.005,-0.018l0.004,-0.018l0.003,-0.019l0.02,-0.019l0.017,0.022l0,0.02l-0.001,0.02l-0.002,0.02l-0.002,0.02l-0.004,0.02l-0.004,0.02l-0.01,0.039l-0.001,0.001l-0.013,0.037l-0.017,0.037l-0.019,0.036l-0.022,0.036l-0.025,0.034l-0.027,0.033l-0.029,0.032l-0.032,0.031l-0.033,0.029l-0.02,0.016l-0.016,0.013l-0.038,0.027l-0.039,0.025l-0.041,0.025l-0.042,0.023l-0.034,0.017l-0.01,0.004l-0.045,0.02l-0.047,0.019l-0.048,0.017l-0.048,0.016l-0.04,0.011l-0.01,0.003l-0.05,0.013l-0.052,0.01l-0.051,0.01l-0.053,0.007l-0.022,0.003l-0.031,0.003l-0.053,0.003l-0.053,0.002l-0.053,0l-0.027,0l-0.027,-0.002l-0.053,-0.004l-0.053,-0.007l-0.053,-0.008l-0.02,-0.003l-0.032,-0.007l-0.051,-0.012l-0.051,-0.014l-0.05,-0.016l-0.029,-0.011l-0.02,-0.007l-0.047,-0.021l-0.047,-0.022l-0.045,-0.024l-0.044,-0.025l-0.004,-0.003l-0.038,-0.025l-0.041,-0.03l-0.039,-0.032l-0.037,-0.034l-0.023,-0.024l-0.012,-0.012l-0.032,-0.038l-0.03,-0.04l-0.028,-0.041l-0.025,-0.044l-0.022,-0.045l-0.011,-0.023l-0.009,-0.024l-0.009,-0.024l-0.008,-0.025l-0.007,-0.025l-0.007,-0.025l-0.001,-0.007l-0.005,-0.019l-0.004,-0.026l-0.004,-0.027l-0.004,-0.027l-0.002,-0.027l-0.002,-0.028l-0.001,-0.028l0,-0.028l0.001,-0.029l0.001,-0.03l0.003,-0.029l0.002,-0.02l0.001,-0.01l0.019,-0.018l0.018,0.019Z"/><path id="H-1" serif:id="H 1" d="M2.634,6.647l0.002,0.012l0.006,0.038l0.011,0.047l0.013,0.046l0.015,0.043l0.018,0.041l0.019,0.04l0.002,0.003l0.02,0.034l0.023,0.036l0.025,0.034l0.027,0.032l0.028,0.03l0.03,0.029l0.032,0.027l0.033,0.025l0.015,0.011l0.019,0.014l0.036,0.023l0.036,0.021l0.039,0.02l0.039,0.019l0.04,0.017l0.042,0.016l0.042,0.014l0.044,0.012l0.008,0.003l0.035,0.009l0.045,0.011l0.045,0.01l0.046,0.008l0.016,0.002l0.031,0.005l0.047,0.006l0.047,0.004l0.047,0.004l0.009,0l0.039,0.003l0.048,0.002l0.048,0.001l0.048,-0.001l0.015,-0.001l0.033,-0.001l0.047,-0.002l0.048,-0.004l0.047,-0.005l0.047,-0.007l0.005,0l0.042,-0.007l0.046,-0.008l0.046,-0.01l0.044,-0.011l0.045,-0.013l0.043,-0.013l0.042,-0.016l0.041,-0.016l0.04,-0.018l0.039,-0.019l0.022,-0.012l0.016,-0.008l0.036,-0.022l0.035,-0.022l0.034,-0.025l0.032,-0.025l0.03,-0.027l0.029,-0.028l0.027,-0.029l0.025,-0.031l0.023,-0.033l0.022,-0.034l0.019,-0.035l0.017,-0.037l0.015,-0.04l0.031,-0.019l0.015,0.033l-0.01,0.043l-0.012,0.043l-0.016,0.041l-0.018,0.041l-0.021,0.039l-0.023,0.038l-0.025,0.037l-0.028,0.036l-0.029,0.035l-0.032,0.033l-0.034,0.033l-0.036,0.03l-0.037,0.03l-0.016,0.011l-0.024,0.017l-0.041,0.026l-0.042,0.025l-0.044,0.023l-0.045,0.022l-0.046,0.021l-0.048,0.019l-0.048,0.018l-0.049,0.017l-0.051,0.015l-0.045,0.012l-0.005,0.001l-0.052,0.011l-0.052,0.01l-0.053,0.008l-0.053,0.007l-0.036,0.003l-0.018,0.002l-0.054,0.002l-0.053,0.001l-0.054,0l-0.044,-0.002l-0.01,0l-0.053,-0.005l-0.054,-0.007l-0.052,-0.008l-0.036,-0.007l-0.017,-0.003l-0.051,-0.013l-0.051,-0.014l-0.051,-0.015l-0.039,-0.014l-0.01,-0.004l-0.048,-0.019l-0.047,-0.022l-0.046,-0.023l-0.044,-0.024l-0.043,-0.026l-0.042,-0.028l-0.04,-0.03l-0.039,-0.031l-0.021,-0.018l-0.015,-0.015l-0.035,-0.035l-0.032,-0.037l-0.03,-0.038l-0.028,-0.04l-0.026,-0.041l-0.023,-0.043l-0.021,-0.044l-0.016,-0.041l-0.002,-0.004l-0.014,-0.048l-0.013,-0.048l-0.009,-0.05l-0.006,-0.051l-0.003,-0.052l-0.001,-0.039l0,-0.013l0.023,-0.027l0.026,0.023Z"/></g></g></g><clipPath id="_clip7"><rect id="Parlament-observer-logo" serif:id="Parlament observer logo" x="0.937" y="0.886" width="25.435" height="8.478"/></clipPath><g clip-path="url(#_clip7)"><g><path d="M6.093,2.17l0,1.221l0.41,0l0,-0.508l0,-0.508l0.366,0c0.41,0 0.5,-0.015 0.649,-0.104c0.243,-0.144 0.382,-0.45 0.331,-0.724c-0.056,-0.303 -0.287,-0.533 -0.585,-0.582c-0.054,-0.01 -0.338,-0.017 -0.633,-0.017l-0.538,0l0,1.222Zm1.172,-0.78c0.21,0.095 0.248,0.38 0.069,0.516c-0.082,0.062 -0.185,0.077 -0.519,0.072l-0.304,-0.009l-0.005,-0.308l-0.003,-0.306l0.347,0c0.303,0 0.357,0.008 0.415,0.031l0,0.004Zm1.582,-0.435c0,0 -0.203,0.525 -0.452,1.159c-0.249,0.634 -0.462,1.182 -0.475,1.216l-0.022,0.063l0.215,-0.009l0.215,-0.009l0.083,-0.213l0.086,-0.213l1.08,0l0.083,0.213l0.086,0.213l0.216,0.009c0.17,0 0.215,0 0.208,-0.017c-0.005,-0.011 -0.216,-0.552 -0.47,-1.201c-0.254,-0.649 -0.466,-1.19 -0.471,-1.202c-0.006,-0.013 -0.06,-0.019 -0.195,-0.019c-0.103,0 -0.187,0 -0.187,0.009l0,0.001Zm0.387,1.121l0.185,0.471l-0.186,0.009c-0.104,0 -0.276,0 -0.382,0l-0.197,-0.009l0.046,-0.115c0.024,-0.063 0.11,-0.279 0.188,-0.48c0.079,-0.202 0.148,-0.361 0.153,-0.356c0.006,0.009 0.093,0.221 0.193,0.48l0,0Zm1.253,0.094l0,1.221l0.409,0l0,-0.508l0,-0.508l0.473,0l0.291,0.508l0.292,0.508l0.471,0l-0.025,-0.046c-0.013,-0.024 -0.149,-0.264 -0.303,-0.533l-0.279,-0.488l0.043,-0.017c0.08,-0.03 0.196,-0.128 0.255,-0.215c0.207,-0.301 0.171,-0.691 -0.083,-0.934c-0.202,-0.193 -0.281,-0.21 -0.999,-0.21l-0.545,0l0,1.222Zm1.134,-0.795c0.133,0.038 0.21,0.146 0.21,0.295c0,0.116 -0.048,0.2 -0.143,0.257l-0.079,0.046l-0.352,0l-0.352,0l-0.006,-0.308l-0.003,-0.307l0.331,0c0.184,0 0.361,0.009 0.393,0.017l0.001,0Zm1.188,-0.417c-0.006,0.009 -0.011,0.558 -0.011,1.223l0,1.21l1.623,0l0,-0.205l0,-0.205l-0.599,0l-0.598,0l-0.003,-1.013l-0.006,-1.011l-0.198,-0.009c-0.108,0 -0.202,0 -0.208,0.009l0,0.001Zm2.6,0.01c-0.021,0.028 -0.939,2.377 -0.939,2.403c0,0.017 0.051,0.02 0.208,0.017l0.208,-0.009l0.086,-0.213l0.083,-0.213l1.079,0l0.088,0.216l0.089,0.218l0.21,0c0.116,0 0.211,0 0.211,-0.008c0,0 -0.213,-0.551 -0.474,-1.218l-0.473,-1.212l-0.179,-0.009c-0.133,0 -0.185,0 -0.197,0.017l0,0.011Zm0.381,1.095c0.096,0.248 0.18,0.461 0.183,0.471c0.006,0.016 -0.074,0.021 -0.37,0.021c-0.266,0 -0.379,-0.009 -0.379,-0.019c0,-0.039 0.367,-0.949 0.377,-0.937c0.006,0.008 0.092,0.216 0.189,0.464l0,0Zm1.254,0.107l0,1.221l0.393,0l0,-0.82c0,-0.45 0.006,-0.819 0.013,-0.819c0.01,0 0.618,0.765 0.766,0.962c0.013,0.018 0.108,-0.095 0.409,-0.48l0.394,-0.504l0.005,0.832l0.004,0.831l0.193,-0.009l0.192,-0.009l0,-1.213l0,-1.213l-0.115,-0.009c-0.062,0 -0.123,0 -0.133,0.009c-0.008,0.009 -0.214,0.267 -0.455,0.579c-0.243,0.311 -0.449,0.575 -0.459,0.586c-0.015,0.015 -0.122,-0.109 -0.486,-0.578l-0.467,-0.599l-0.126,0l-0.128,0l0,1.233Zm2.958,-1.202c-0.005,0.012 -0.006,0.559 -0.005,1.218l0.005,1.197l1.623,0l0,-0.197l0,-0.197l-0.601,-0.008l-0.604,0l0,-0.361l0,-0.361l0.918,0l0,-0.196l0,-0.197l-0.459,0l-0.459,0l0,-0.254l0,-0.254l1.215,0l-0.005,-0.202l-0.005,-0.2l-0.809,-0.009c-0.637,0 -0.809,0 -0.814,0.017l0,0.004Zm1.954,-0.009c-0.006,0.009 -0.011,0.556 -0.011,1.222l0,1.211l0.21,-0.009l0.208,-0.009l0.008,-0.821l0.008,-0.823l0.655,0.826l0.656,0.827l0.131,0l0.131,-0.009l0,-1.213l0,-1.213l-0.204,0l-0.205,0l-0.008,0.826l-0.008,0.826l-0.661,-0.829l-0.66,-0.832l-0.12,0c-0.066,0 -0.125,0.009 -0.13,0.012l0,0.008Zm2.345,0c-0.007,0.009 -0.012,0.099 -0.012,0.205l0,0.194l0.836,0l0,2.034l0.21,-0.009l0.208,-0.009l0.005,-1.013l0.004,-1.011l0.82,0l0,-0.205l0,-0.205l-1.03,0c-0.567,0 -1.036,0.009 -1.041,0.012l0,0.007Zm-18.142,5.472l0,1.221l0.546,0c0.324,0 0.585,-0.008 0.644,-0.018c0.357,-0.065 0.603,-0.385 0.575,-0.748c-0.016,-0.226 -0.136,-0.416 -0.336,-0.539c-0.003,0 0.014,-0.036 0.035,-0.076c0.116,-0.198 0.124,-0.452 0.021,-0.66c-0.098,-0.199 -0.29,-0.346 -0.5,-0.386c-0.047,-0.008 -0.29,-0.016 -0.536,-0.016l-0.449,0l0,1.222Zm0.993,-0.78c0.169,0.077 0.227,0.313 0.112,0.456c-0.089,0.108 -0.128,0.119 -0.428,0.119l-0.267,0l0,-0.303l0,-0.303l0.259,0c0.215,0 0.269,0.009 0.324,0.031l0,0Zm0.212,1.023c0.223,0.126 0.19,0.483 -0.053,0.551c-0.034,0.009 -0.214,0.018 -0.401,0.018l-0.341,0l0,-0.303l0,-0.304l0.365,0c0.348,0 0.368,0 0.43,0.038l0,0Zm1.582,-1.454c-0.23,0.039 -0.353,0.087 -0.486,0.187c-0.298,0.224 -0.355,0.686 -0.113,0.927c0.15,0.15 0.366,0.227 0.787,0.277c0.282,0.035 0.363,0.053 0.454,0.102c0.123,0.065 0.154,0.166 0.097,0.294c-0.087,0.191 -0.415,0.288 -0.713,0.211c-0.134,-0.034 -0.328,-0.139 -0.457,-0.246l-0.109,-0.09l-0.123,0.143c-0.068,0.077 -0.124,0.147 -0.124,0.155c0,0.038 0.252,0.22 0.429,0.31c0.209,0.105 0.384,0.149 0.595,0.151c0.204,0 0.328,-0.025 0.495,-0.105c0.12,-0.057 0.296,-0.213 0.355,-0.315c0.147,-0.251 0.113,-0.577 -0.079,-0.744c-0.159,-0.141 -0.333,-0.2 -0.73,-0.251c-0.313,-0.04 -0.408,-0.061 -0.485,-0.105c-0.09,-0.051 -0.126,-0.108 -0.124,-0.196c0.005,-0.199 0.165,-0.305 0.462,-0.305c0.21,0 0.4,0.059 0.595,0.183c0.075,0.05 0.08,0.05 0.102,0.02c0.011,-0.017 0.062,-0.084 0.113,-0.146c0.05,-0.064 0.091,-0.123 0.091,-0.131c0,-0.051 -0.363,-0.233 -0.568,-0.286c-0.13,-0.034 -0.381,-0.055 -0.464,-0.04l0,0Zm1.582,0.009c-0.006,0.012 -0.007,0.559 -0.006,1.218l0.006,1.197l0.808,0.009l0.806,0l0,-0.205l0,-0.205l-0.598,0l-0.598,0l0,-0.361l0,-0.36l0.918,0l0,-0.197l0,-0.197l-0.459,0l-0.459,0l0,-0.254l0,-0.254l1.196,0l0,-0.205l0,-0.205l-0.803,0c-0.628,0 -0.806,0.009 -0.811,0.02l0,-0.001Zm1.942,1.202l0,1.223l0.21,-0.009l0.208,-0.009l0.005,-0.505l0.004,-0.503l0.469,0l0.287,0.503l0.288,0.505l0.233,0.009c0.133,0 0.231,0 0.231,-0.011c0,-0.009 -0.129,-0.241 -0.288,-0.518c-0.158,-0.277 -0.292,-0.513 -0.296,-0.523c-0.003,-0.012 0.019,-0.029 0.048,-0.04c0.138,-0.049 0.297,-0.249 0.347,-0.436c0.022,-0.08 0.027,-0.143 0.022,-0.246c-0.015,-0.236 -0.125,-0.42 -0.33,-0.552c-0.159,-0.104 -0.239,-0.113 -0.878,-0.113l-0.559,0l-0.001,1.225Zm1.228,-0.757c0.17,0.113 0.175,0.37 0.008,0.496l-0.061,0.048l-0.375,0.009l-0.374,0.009l0,-0.305l0,-0.305l0.366,0.009l0.367,0.008l0.069,0.031Zm0.838,-0.449c0,0.008 0.213,0.555 0.473,1.217l0.474,1.202l0.384,0l0.473,-1.203c0.261,-0.662 0.474,-1.212 0.474,-1.218c0,-0.009 -0.098,-0.013 -0.22,-0.013l-0.219,0l-0.099,0.249c-0.052,0.138 -0.209,0.541 -0.347,0.895c-0.151,0.383 -0.256,0.636 -0.264,0.623c-0.01,-0.019 -0.564,-1.436 -0.657,-1.682l-0.031,-0.086l-0.222,0c-0.121,0 -0.219,0.009 -0.219,0.015l0,0.001Zm2.59,1.206l0,1.221l1.622,0l0,-0.205l0,-0.205l-0.606,0l-0.607,0l0.004,-0.357l0.005,-0.356l0.464,-0.009l0.462,0l0,-0.196l0,-0.197l-0.462,0l-0.464,-0.009l-0.005,-0.251l-0.005,-0.249l1.214,0l0,-0.205l0,-0.205l-0.811,0l-0.812,0l0.001,1.223Zm1.95,0l0,1.221l0.41,0l0,-0.508l0,-0.51l0.482,0.018l0.264,0.461c0.144,0.252 0.275,0.478 0.292,0.503l0.028,0.044l0.229,0c0.126,0 0.23,0 0.23,-0.009c0,-0.009 -0.133,-0.241 -0.296,-0.525c-0.162,-0.283 -0.295,-0.521 -0.295,-0.529c0,-0.009 0.03,-0.027 0.066,-0.042c0.161,-0.071 0.308,-0.291 0.346,-0.513c0.062,-0.376 -0.194,-0.737 -0.574,-0.809c-0.049,-0.008 -0.331,-0.016 -0.634,-0.016l-0.548,0l0,1.214Zm1.161,-0.787c0.123,0.053 0.188,0.148 0.188,0.279c0.002,0.108 -0.042,0.196 -0.124,0.251c-0.066,0.044 -0.067,0.044 -0.441,0.049l-0.374,0.009l0,-0.304l0,-0.304l0.344,0c0.276,0 0.358,0.008 0.407,0.024l0,-0.004Z" style="fill-rule:nonzero;"/></g></g></g></svg>