<?xml version="1.0" encoding="UTF-8" standalone="no"?><!DOCTYPE svg PUBLIC "-//W3C//DTD SVG 1.1//EN" "http://www.w3.org/Graphics/SVG/1.1/DTD/svg11.dtd"><svg width="100%" height="100%" viewBox="0 0 30 30" version="1.1" xmlns="http://www.w3.org/2000/svg" xmlns:xlink="http://www.w3.org/1999/xlink" xml:space="preserve" xmlns:serif="http://www.serif.com/" style="fill-rule:evenodd;clip-rule:evenodd;stroke-linejoin:round;stroke-miterlimit:1.41421;"><g><path d="M7.253,11.817c-0.06,-5.934 4.773,-10.867 10.706,-10.928c5.933,-0.06 10.865,4.774 10.925,10.708c0.061,5.934 -4.772,10.867 -10.705,10.928c-5.933,0.061 -10.865,-4.773 -10.926,-10.707" style="fill:none;stroke:#fff;stroke-width:1.65px;"/><path d="M1.245,28.231l8.909,-8.909l1.122,1.122l-8.909,8.909l-1.122,-1.122Z" style="fill:#fff;stroke:#fff;stroke-width:1px;"/><path d="M12.949,6.272c0.489,-0.507 1.027,-0.96 1.604,-1.348c0.636,-0.428 1.317,-0.772 2.022,-1.023c0.758,-0.269 1.541,-0.433 2.316,-0.491c0.905,-0.074 1.799,0 2.636,0.132c-0.774,-0.348 -1.664,-0.603 -2.633,-0.687c-0.827,-0.074 -1.699,0 -2.572,0.195c-0.809,0.195 -1.603,0.518 -2.345,0.965c-0.729,0.433 -1.397,0.978 -1.984,1.603c-0.11,0.116 -0.216,0.232 -0.319,0.354c-0.461,0.54 -0.86,1.127 -1.193,1.745c-0.425,0.788 -0.74,1.617 -0.945,2.455c-0.221,0.899 -0.314,1.795 -0.297,2.657c0.021,0.966 0.178,1.872 0.431,2.688c-0.042,-0.851 -0.01,-1.744 0.122,-2.656c0.119,-0.81 0.317,-1.628 0.605,-2.433c0.267,-0.748 0.61,-1.48 1.03,-2.174c0.401,-0.664 0.869,-1.29 1.4,-1.858c0.043,-0.053 0.081,-0.084 0.121,-0.126l0.001,0.002Z" style="fill:#fff;fill-rule:nonzero;"/><g><path id="V-6" serif:id="V 6" d="M17.466,6.421c-2.674,-0.06 -4.279,2.43 -5.332,7.92" style="fill:none;"/><clipPath id="_clip1"><path d="M17.466,6.421c-2.674,-0.06 -4.279,2.43 -5.332,7.92"/></clipPath><g clip-path="url(#_clip1)"><path id="V-6-OLD" serif:id="V 6 OLD" d="M13.676,9.321c0.236,-0.493 0.507,-0.954 0.831,-1.372c0.211,-0.275 0.441,-0.519 0.694,-0.73c0.23,-0.188 0.474,-0.345 0.728,-0.467c0.249,-0.117 0.505,-0.204 0.757,-0.255c0.269,-0.056 0.533,-0.076 0.78,-0.076c-0.246,0 -0.513,-0.003 -0.787,0.051c-0.256,0.051 -0.518,0.117 -0.776,0.229c-0.262,0.117 -0.516,0.269 -0.754,0.462c-0.263,0.209 -0.503,0.458 -0.721,0.733c-0.367,0.462 -0.665,0.977 -0.918,1.526c-0.139,0.3 -0.263,0.605 -0.375,0.911c-0.532,1.441 -0.824,2.907 -1.001,4.008c0.231,-1.084 0.564,-2.55 1.101,-3.97c0.133,-0.351 0.277,-0.7 0.441,-1.041l0,-0.009Z" style="fill-rule:nonzero;"/></g><path d="M17.089,6.313l0.062,0.001l0.063,0.003l0.063,0.003l0.064,0.004l0.063,0.005l0.028,0.003l0.035,0.004l0.084,0.086l-0.086,0.084l-0.035,0.003l-0.027,0.002l-0.061,0.005l-0.06,0.006l-0.06,0.007l-0.059,0.008l-0.058,0.009l-0.058,0.01l-0.057,0.01l-0.057,0.011l-0.056,0.013l-0.056,0.013l-0.055,0.014l-0.054,0.015l-0.054,0.015l-0.054,0.017l-0.053,0.017l-0.037,0.013l-0.015,0.005l-0.052,0.019l-0.051,0.019l-0.051,0.021l-0.051,0.021l-0.05,0.022l-0.049,0.022l-0.049,0.024l-0.049,0.024l-0.048,0.026l-0.048,0.026l-0.047,0.027l-0.046,0.028l-0.047,0.029l-0.046,0.029l-0.045,0.031l-0.045,0.031l-0.044,0.032l-0.045,0.033l-0.043,0.034l-0.044,0.035l-0.043,0.036l-0.031,0.027l-0.011,0.009l-0.043,0.037l-0.042,0.038l-0.042,0.038l-0.042,0.04l-0.041,0.04l-0.041,0.042l-0.04,0.042l-0.04,0.043l-0.04,0.044l-0.04,0.045l-0.037,0.044l-0.002,0.002l-0.039,0.047l-0.039,0.047l-0.039,0.048l-0.039,0.05l-0.038,0.05l-0.038,0.051l-0.038,0.053l-0.037,0.053l-0.037,0.054l-0.037,0.055l-0.015,0.024l-0.022,0.032l-0.037,0.057l-0.037,0.057l-0.036,0.059l-0.037,0.059l-0.036,0.061l-0.035,0.062l-0.036,0.063l-0.035,0.063l-0.03,0.056l-0.005,0.009l-0.036,0.065l-0.036,0.065l-0.071,0.136l-0.07,0.14l-0.069,0.144l-0.006,0.013l-0.066,0.133l-0.072,0.15l-0.071,0.155l-0.071,0.159l-0.016,0.039l-0.056,0.123l-0.073,0.167l-0.071,0.171l-0.071,0.175l-0.045,0.115l-0.027,0.065l-0.072,0.184l-0.072,0.188l-0.071,0.192l-0.065,0.182l-0.005,0.016l-0.072,0.201l-0.071,0.206l-0.07,0.21l-0.058,0.177l-0.012,0.038l-0.071,0.219l-0.071,0.223l-0.07,0.228l-0.07,0.233l-0.069,0.237l-0.05,0.174l-0.019,0.068l-0.07,0.246l-0.07,0.251l-0.104,0.087l-0.063,-0.12l0.03,-0.259l0.031,-0.256l0.009,-0.07l0.025,-0.181l0.035,-0.246l0.037,-0.243l0.038,-0.238l0.039,-0.235l0.04,-0.23l0.007,-0.04l0.036,-0.186l0.045,-0.222l0.046,-0.218l0.047,-0.213l0.004,-0.017l0.047,-0.193l0.051,-0.205l0.053,-0.201l0.055,-0.197l0.02,-0.071l0.037,-0.122l0.06,-0.189l0.06,-0.184l0.063,-0.181l0.048,-0.135l0.016,-0.041l0.069,-0.172l0.07,-0.167l0.071,-0.163l0.066,-0.146l0.007,-0.014l0.079,-0.153l0.08,-0.15l0.081,-0.144l0.041,-0.072l0.041,-0.07l0.006,-0.01l0.037,-0.059l0.044,-0.067l0.044,-0.067l0.044,-0.065l0.044,-0.065l0.045,-0.063l0.045,-0.062l0.045,-0.062l0.046,-0.06l0.027,-0.035l0.019,-0.024l0.048,-0.058l0.047,-0.056l0.048,-0.056l0.048,-0.055l0.049,-0.053l0.049,-0.053l0.049,-0.051l0.049,-0.05l0.05,-0.05l0.05,-0.048l0.003,-0.003l0.048,-0.044l0.051,-0.046l0.052,-0.044l0.052,-0.044l0.052,-0.042l0.053,-0.042l0.053,-0.04l0.053,-0.04l0.053,-0.038l0.054,-0.037l0.054,-0.036l0.015,-0.01l0.04,-0.025l0.055,-0.033l0.056,-0.033l0.055,-0.031l0.056,-0.03l0.057,-0.029l0.056,-0.028l0.057,-0.027l0.057,-0.025l0.057,-0.025l0.058,-0.024l0.057,-0.022l0.058,-0.022l0.059,-0.02l0.058,-0.019l0.059,-0.018l0.059,-0.017l0.059,-0.016l0.06,-0.015l0.059,-0.014l0.06,-0.013l0.06,-0.012l0.018,-0.003l0.043,-0.007l0.061,-0.009l0.06,-0.008l0.061,-0.007l0.062,-0.006l0.061,-0.005l0.062,-0.004l0.062,-0.003l0.062,-0.001l0.062,-0.001l0.063,0Z" style="fill:#fff;"/><path id="V-5" serif:id="V 5" d="M17.612,7.075c-2.503,0.943 -3.487,4.121 -3.881,9.477" style="fill:none;"/><clipPath id="_clip2"><path d="M17.612,7.075c-2.503,0.943 -3.487,4.121 -3.881,9.477"/></clipPath><g clip-path="url(#_clip2)"><path id="V-5-OLD" serif:id="V 5 OLD" d="M14.623,11.182c0.129,-0.452 0.279,-0.895 0.46,-1.32c0.18,-0.417 0.385,-0.81 0.626,-1.169c0.247,-0.366 0.524,-0.686 0.829,-0.95c0.343,-0.3 0.713,-0.518 1.074,-0.668c-0.371,0.127 -0.756,0.325 -1.119,0.614c-0.322,0.254 -0.616,0.571 -0.878,0.938c-0.257,0.361 -0.475,0.755 -0.663,1.178c-0.19,0.427 -0.346,0.877 -0.477,1.337c-0.015,0.05 -0.031,0.101 -0.041,0.152c-0.246,0.906 -0.393,1.822 -0.494,2.689c-0.054,0.468 -0.095,0.929 -0.128,1.355c-0.03,0.417 -0.059,0.861 -0.082,1.215c0.053,-0.397 0.094,-0.749 0.149,-1.208c0.052,-0.422 0.11,-0.883 0.176,-1.347c0.132,-0.91 0.3,-1.871 0.569,-2.815l0.001,-0.001l-0.002,0Z"/></g><path d="M17.774,7.013l-0.1,0.223l-0.029,0.015l-0.026,0.012l-0.053,0.028l-0.053,0.027l-0.052,0.029l-0.051,0.029l-0.05,0.03l-0.05,0.031l-0.049,0.031l-0.049,0.032l-0.048,0.033l-0.047,0.033l-0.047,0.034l-0.046,0.035l-0.045,0.035l-0.045,0.036l-0.044,0.037l-0.044,0.037l-0.035,0.032l-0.008,0.006l-0.042,0.038l-0.043,0.039l-0.041,0.04l-0.041,0.041l-0.041,0.041l-0.04,0.041l-0.039,0.043l-0.039,0.043l-0.039,0.044l-0.038,0.045l-0.037,0.045l-0.037,0.046l-0.036,0.047l-0.036,0.047l-0.035,0.049l-0.035,0.049l-0.035,0.049l-0.034,0.051l-0.033,0.051l-0.033,0.052l-0.033,0.053l-0.017,0.028l-0.015,0.025l-0.032,0.053l-0.032,0.055l-0.032,0.055l-0.031,0.056l-0.03,0.057l-0.03,0.057l-0.03,0.059l-0.029,0.059l-0.029,0.06l-0.029,0.06l-0.007,0.017l-0.021,0.045l-0.028,0.061l-0.056,0.127l-0.054,0.129l-0.052,0.133l-0.051,0.136l-0.008,0.022l-0.043,0.116l-0.05,0.142l-0.049,0.144l-0.047,0.149l-0.034,0.113l-0.012,0.038l-0.048,0.154l-0.046,0.157l-0.045,0.161l-0.036,0.135l-0.008,0.028l-0.046,0.167l-0.037,0.137l-0.009,0.032l-0.047,0.173l-0.041,0.162l-0.004,0.014l-0.048,0.179l-0.046,0.183l-0.045,0.186l-0.044,0.189l-0.013,0.056l-0.032,0.137l-0.045,0.196l-0.045,0.2l-0.043,0.203l-0.025,0.123l-0.018,0.083l-0.043,0.21l-0.043,0.213l-0.042,0.217l-0.023,0.123l-0.019,0.097l-0.042,0.223l-0.042,0.227l-0.041,0.23l-0.04,0.234l-0.04,0.237l-0.024,0.152l-0.015,0.088l-0.04,0.244l-0.034,0.214l-0.006,0.034l-0.186,0.162l-0.159,-0.189l0,-0.034l-0.002,-0.217l0,-0.249l0,-0.091l0.002,-0.155l0.003,-0.243l0.005,-0.239l0.007,-0.237l0.007,-0.234l0.009,-0.231l0.004,-0.1l0.007,-0.128l0.014,-0.225l0.014,-0.221l0.017,-0.219l0.007,-0.088l0.011,-0.128l0.021,-0.213l0.023,-0.21l0.023,-0.207l0.018,-0.144l0.008,-0.059l0.03,-0.201l0.031,-0.198l0.032,-0.194l0.034,-0.192l0.003,-0.016l0.036,-0.172l0.04,-0.185l0.008,-0.035l0.036,-0.147l0.045,-0.179l0.009,-0.031l0.042,-0.144l0.053,-0.171l0.054,-0.169l0.056,-0.165l0.015,-0.041l0.045,-0.12l0.062,-0.159l0.064,-0.155l0.066,-0.151l0.056,-0.125l0.011,-0.024l0.072,-0.144l0.072,-0.142l0.075,-0.138l0.075,-0.134l0.04,-0.067l0.028,-0.048l0.011,-0.017l0.04,-0.064l0.041,-0.064l0.041,-0.062l0.042,-0.062l0.042,-0.061l0.042,-0.059l0.043,-0.06l0.044,-0.058l0.044,-0.057l0.044,-0.057l0.021,-0.025l0.024,-0.03l0.046,-0.055l0.046,-0.053l0.047,-0.052l0.048,-0.052l0.047,-0.051l0.048,-0.05l0.049,-0.049l0.049,-0.048l0.05,-0.047l0.05,-0.046l0.05,-0.046l0.051,-0.044l0.051,-0.044l0.052,-0.042l0.052,-0.042l0.053,-0.041l0.053,-0.04l0.053,-0.039l0.054,-0.038l0.055,-0.037l0.055,-0.036l0.01,-0.006l0.046,-0.029l0.056,-0.033l0.056,-0.033l0.057,-0.032l0.058,-0.031l0.058,-0.03l0.058,-0.029l0.059,-0.028l0.059,-0.027l0.059,-0.026l0.06,-0.025l0.06,-0.025l0.061,-0.023l0.061,-0.022l0.062,-0.022l0.062,-0.02l0.062,-0.02l0.029,-0.008l0.033,-0.01l0.224,0.1Z" style="fill:#fff;"/><path id="V-4" serif:id="V 4" d="M18.296,7.68c-1.176,1.614 -1.994,5.401 -2.264,10.06" style="fill:none;"/><clipPath id="_clip3"><path d="M18.296,7.68c-1.176,1.614 -1.994,5.401 -2.264,10.06"/></clipPath><g clip-path="url(#_clip3)"><path id="V-4-OLD" serif:id="V 4 OLD" d="M16.735,12.512c0.01,-0.066 0.025,-0.132 0.035,-0.198c0.18,-0.943 0.379,-1.811 0.643,-2.65c0.125,-0.397 0.256,-0.759 0.407,-1.103c0.145,-0.33 0.297,-0.62 0.476,-0.881c-0.202,0.244 -0.379,0.524 -0.547,0.847c-0.175,0.336 -0.328,0.699 -0.47,1.092c-0.302,0.831 -0.525,1.713 -0.709,2.656c-0.025,0.117 -0.045,0.234 -0.066,0.351c-0.155,0.858 -0.265,1.706 -0.341,2.519c-0.091,0.971 -0.13,1.84 -0.131,2.595c0.073,-0.764 0.161,-1.601 0.289,-2.577c0.112,-0.859 0.244,-1.747 0.413,-2.652l0.001,0.001Z"/></g><path d="M18.456,7.793l-0.018,0.03l-0.029,0.05l-0.046,0.081l-0.044,0.084l-0.044,0.087l-0.043,0.091l-0.042,0.093l-0.042,0.096l-0.04,0.099l-0.041,0.102l-0.039,0.105l-0.003,0.007l-0.037,0.1l-0.039,0.11l-0.038,0.113l-0.038,0.116l-0.037,0.119l-0.036,0.121l-0.036,0.124l-0.034,0.126l-0.034,0.129l-0.033,0.132l-0.012,0.049l-0.022,0.085l-0.033,0.136l-0.033,0.139l-0.032,0.141l-0.031,0.144l-0.008,0.038l-0.024,0.108l-0.032,0.148l-0.03,0.151l-0.03,0.153l-0.026,0.134l-0.004,0.021l-0.031,0.157l-0.03,0.159l-0.03,0.161l-0.029,0.164l-0.004,0.022l-0.027,0.143l-0.031,0.168l-0.03,0.169l-0.03,0.172l0,0l-0.034,0.173l-0.034,0.174l-0.033,0.177l-0.032,0.174l-0.001,0.005l-0.036,0.181l-0.035,0.182l-0.035,0.184l-0.034,0.187l-0.011,0.06l-0.025,0.128l-0.035,0.189l-0.035,0.192l-0.035,0.194l-0.024,0.138l-0.01,0.057l-0.035,0.197l-0.035,0.198l-0.034,0.201l-0.028,0.171l-0.005,0.031l-0.035,0.203l-0.034,0.205l-0.033,0.207l-0.032,0.209l-0.032,0.21l-0.031,0.211l-0.012,0.082l-0.02,0.131l-0.031,0.215l-0.031,0.216l-0.208,0.201l-0.182,-0.224l-0.005,-0.22l-0.004,-0.218l-0.001,-0.134l-0.001,-0.083l0,-0.216l0,-0.215l0.002,-0.213l0.002,-0.212l0.004,-0.211l0.004,-0.209l0,-0.032l0.006,-0.176l0.008,-0.207l0.009,-0.204l0.01,-0.204l0.003,-0.059l0.008,-0.142l0.014,-0.2l0.014,-0.199l0.015,-0.196l0.01,-0.133l0.006,-0.062l0.02,-0.193l0.02,-0.192l0.021,-0.189l0.021,-0.188l0.001,-0.005l0.026,-0.18l0.028,-0.184l0.028,-0.181l0.029,-0.179l0,-0.001l0.035,-0.176l0.036,-0.175l0.037,-0.172l0.032,-0.148l0.005,-0.022l0.042,-0.168l0.042,-0.165l0.042,-0.163l0.043,-0.161l0.006,-0.022l0.04,-0.136l0.047,-0.156l0.047,-0.153l0.048,-0.151l0.036,-0.111l0.013,-0.037l0.051,-0.146l0.051,-0.143l0.052,-0.141l0.052,-0.138l0.034,-0.086l0.02,-0.049l0.055,-0.133l0.055,-0.13l0.056,-0.127l0.056,-0.124l0.057,-0.122l0.057,-0.119l0.058,-0.116l0.058,-0.113l0.059,-0.111l0.055,-0.1l0.004,-0.007l0.06,-0.104l0.061,-0.102l0.061,-0.098l0.062,-0.095l0.062,-0.093l0.063,-0.089l0.062,-0.086l0.064,-0.083l0.063,-0.08l0.04,-0.046l0.023,-0.028l0.272,-0.046l0.047,0.272Z" style="fill:#fff;"/><path id="V-3" serif:id="V 3" d="M19.378,7.95l-0.424,10.277" style="fill:none;"/><clipPath id="_clip4"><path d="M19.378,7.95l-0.424,10.277"/></clipPath><g clip-path="url(#_clip4)"><path id="V-3-OLD" serif:id="V 3 OLD" d="M19.267,13.017c0.077,-1.887 0.116,-3.696 0.111,-5.067c-0.122,1.403 -0.235,3.272 -0.314,5.211c-0.077,1.886 -0.116,3.696 -0.11,5.066l0.313,-5.21Z"/></g><path d="M19.584,7.958l0.002,0.034l0.051,1.017l0.052,1.32l0.019,0.709l0.009,0.716l-0.003,0.701l-0.018,0.666l-0.043,0.712l-0.071,0.81l-0.087,0.849l-0.094,0.829l-0.167,1.357l-0.07,0.525l-0.004,0.033l-0.215,0.201l-0.197,-0.218l-0.002,-0.033l-0.026,-0.53l-0.055,-1.366l-0.026,-0.833l-0.016,-0.854l-0.004,-0.813l0.016,-0.713l0.037,-0.665l0.055,-0.699l0.068,-0.713l0.076,-0.705l0.161,-1.311l0.135,-1.009l0.005,-0.034l0.214,-0.197l0.198,0.214Z" style="fill:#fff;"/><path id="V-2" serif:id="V 2" d="M20.567,7.803c1.463,3.592 1.426,5.687 1.339,10.04" style="fill:none;"/><clipPath id="_clip5"><path d="M20.567,7.803c1.463,3.592 1.426,5.687 1.339,10.04"/></clipPath><g clip-path="url(#_clip5)"><path id="V-2-OLD" serif:id="V 2 OLD" d="M21.92,12.651c-0.064,-0.581 -0.157,-1.15 -0.28,-1.704c-0.272,-1.232 -0.668,-2.294 -1.073,-3.144c0.325,0.887 0.657,1.952 0.897,3.181c0.118,0.6 0.207,1.212 0.271,1.838c0.031,0.311 0.057,0.62 0.076,0.928c0.051,0.796 0.055,1.59 0.056,2.311c0,0.346 -0.001,0.647 0.003,0.963c0.005,0.295 0.016,0.559 0.036,0.819c0.003,-0.264 0.015,-0.522 0.031,-0.817c0.015,-0.305 0.035,-0.627 0.053,-0.962c0.036,-0.724 0.054,-1.518 0.015,-2.324l0,-0.001c-0.015,-0.361 -0.046,-0.725 -0.085,-1.088l0,0Z"/></g><path d="M20.747,7.73l0.014,0.028l0.069,0.134l0.081,0.16l0.079,0.159l0.077,0.158l0.074,0.155l0.072,0.154l0.001,0.001l0.068,0.154l0.067,0.152l0.064,0.151l0.063,0.15l0.06,0.15l0.059,0.148l0.057,0.147l0.054,0.147l0.014,0.037l0.038,0.109l0.049,0.146l0.048,0.145l0.046,0.145l0.044,0.143l0.041,0.146l0.039,0.144l0.038,0.144l0.036,0.143l0.031,0.132l0.003,0.012l0.031,0.144l0.029,0.144l0.028,0.144l0.027,0.145l0.02,0.117l0.005,0.027l0.02,0.146l0.02,0.145l0.018,0.146l0.017,0.147l0.008,0.066l0.007,0.081l0.011,0.148l0.008,0.118l0.002,0.031l0.006,0.149l0.006,0.151l0.001,0.048l0.002,0.103l0.001,0.152l0,0.154l-0.001,0.154l-0.002,0.156l-0.001,0.105l-0.002,0.052l-0.013,0.318l-0.016,0.324l-0.009,0.164l-0.011,0.168l-0.025,0.339l-0.026,0.325l-0.002,0.022l-0.034,0.356l-0.035,0.367l-0.038,0.377l-0.024,0.233l-0.058,0.526l-0.004,0.031l-0.197,0.192l-0.189,-0.2l-0.002,-0.031l-0.038,-0.527l-0.015,-0.233l-0.025,-0.378l-0.024,-0.365l-0.026,-0.355l-0.001,-0.022l-0.021,-0.322l-0.024,-0.334l-0.013,-0.165l-0.011,-0.161l-0.023,-0.316l-0.026,-0.31l-0.005,-0.05l-0.007,-0.101l-0.012,-0.15l-0.013,-0.148l-0.014,-0.147l-0.014,-0.145l-0.01,-0.098l-0.004,-0.046l-0.014,-0.143l-0.014,-0.142l-0.003,-0.029l-0.01,-0.111l-0.014,-0.14l-0.008,-0.076l-0.005,-0.063l-0.012,-0.139l-0.014,-0.137l-0.014,-0.138l-0.016,-0.137l-0.003,-0.025l-0.011,-0.112l-0.014,-0.136l-0.017,-0.137l-0.017,-0.137l-0.018,-0.137l-0.002,-0.011l-0.016,-0.126l-0.019,-0.138l-0.021,-0.138l-0.021,-0.139l-0.024,-0.14l0,-0.001l-0.023,-0.139l-0.024,-0.142l-0.026,-0.143l-0.028,-0.143l-0.022,-0.108l-0.007,-0.037l-0.029,-0.147l-0.03,-0.148l-0.033,-0.149l-0.034,-0.151l-0.036,-0.153l-0.038,-0.155l-0.039,-0.156l-0.042,-0.158l0,-0.001l-0.041,-0.16l-0.044,-0.163l-0.045,-0.165l-0.048,-0.167l-0.049,-0.17l-0.043,-0.143l-0.009,-0.03l0.107,-0.252l0.252,0.107Z" style="fill:#fff;"/><path id="V-1" serif:id="V 1" d="M21.456,7.219c2.174,1.857 3.347,4.994 2.728,9.52" style="fill:none;"/><clipPath id="_clip6"><path d="M21.456,7.219c2.174,1.857 3.347,4.994 2.728,9.52"/></clipPath><g clip-path="url(#_clip6)"><path id="V-1-OLD" serif:id="V 1 OLD" d="M24.099,11.508c-0.015,-0.061 -0.03,-0.127 -0.046,-0.189c-0.221,-0.827 -0.549,-1.594 -0.972,-2.271c-0.488,-0.782 -1.068,-1.386 -1.625,-1.829c0.523,0.483 1.066,1.106 1.524,1.89c0.396,0.68 0.705,1.436 0.921,2.251c0.03,0.112 0.056,0.219 0.082,0.331c0.173,0.748 0.263,1.501 0.298,2.232c0.051,1.046 -0.015,2.019 -0.097,2.818c0.141,-0.792 0.25,-1.764 0.226,-2.823c-0.015,-0.788 -0.109,-1.605 -0.308,-2.413l-0.003,0.003Z"/></g><path d="M21.586,7.12l0.082,0.062l0.109,0.084l0.108,0.086l0.106,0.089l0.105,0.091l0.104,0.093l0.102,0.095l0.083,0.08l0.018,0.018l0.099,0.1l0.097,0.103l0.096,0.105l0.094,0.107l0.092,0.109l0.091,0.111l0.09,0.114l0.088,0.116l0.086,0.118l0.034,0.048l0.05,0.073l0.082,0.123l0.079,0.125l0.078,0.128l0.077,0.13l0.029,0.052l0.044,0.08l0.071,0.135l0.07,0.137l0.067,0.139l0.066,0.142l0.017,0.039l0.045,0.104l0.059,0.147l0.058,0.148l0.055,0.15l0.048,0.138l0.005,0.015l0.049,0.155l0.046,0.158l0.044,0.159l0.042,0.161l0.006,0.024l0.031,0.14l0.034,0.166l0.008,0.042l0.022,0.126l0.027,0.17l0.013,0.088l0.011,0.084l0.02,0.174l0.018,0.176l0.015,0.177l0.013,0.179l0.003,0.051l0.006,0.13l0.005,0.183l0.003,0.185l0.001,0.186l-0.002,0.188l0,0.01l-0.006,0.179l-0.009,0.192l-0.011,0.193l-0.014,0.194l-0.008,0.096l-0.009,0.101l-0.021,0.198l-0.023,0.199l-0.026,0.201l-0.029,0.203l-0.032,0.205l-0.034,0.206l-0.012,0.067l-0.026,0.14l-0.041,0.21l-0.037,0.178l-0.006,0.032l-0.177,0.138l-0.136,-0.179l0.002,-0.032l0.01,-0.181l0.009,-0.209l0.004,-0.139l0.003,-0.067l0.006,-0.204l0.003,-0.202l0.001,-0.199l-0.001,-0.197l-0.004,-0.194l-0.006,-0.192l-0.005,-0.097l-0.003,-0.093l-0.009,-0.187l-0.011,-0.185l-0.014,-0.183l-0.015,-0.17l0,-0.01l-0.017,-0.178l-0.018,-0.175l-0.021,-0.174l-0.022,-0.171l-0.018,-0.121l-0.007,-0.047l-0.024,-0.167l-0.027,-0.165l-0.029,-0.162l-0.031,-0.16l-0.016,-0.077l-0.015,-0.081l-0.033,-0.156l-0.026,-0.115l-0.008,-0.039l-0.034,-0.153l-0.031,-0.128l-0.005,-0.022l-0.035,-0.149l-0.037,-0.147l-0.039,-0.145l-0.041,-0.144l-0.004,-0.014l-0.036,-0.128l-0.042,-0.14l-0.044,-0.139l-0.046,-0.136l-0.035,-0.098l-0.013,-0.038l-0.048,-0.134l-0.049,-0.132l-0.052,-0.13l-0.054,-0.129l-0.034,-0.077l-0.021,-0.05l-0.056,-0.126l-0.058,-0.124l-0.06,-0.123l-0.062,-0.121l-0.038,-0.071l-0.025,-0.049l-0.064,-0.118l-0.066,-0.117l-0.068,-0.116l-0.07,-0.113l-0.072,-0.113l-0.073,-0.11l-0.076,-0.109l-0.077,-0.107l-0.079,-0.106l-0.014,-0.019l-0.066,-0.086l-0.081,-0.103l-0.084,-0.102l-0.085,-0.1l-0.087,-0.099l-0.089,-0.097l-0.09,-0.095l-0.071,-0.072l-0.022,-0.023l-0.016,-0.222l0.222,-0.016l0.027,0.02Z" style="fill:#fff;"/><path id="V-0" serif:id="V 0" d="M21.506,6.322l0.022,0.002l0.068,0.007l0.067,0.008l0.067,0.009l0.066,0.009l0.066,0.011l0.066,0.012l0.065,0.013l0.065,0.014l0.065,0.015l0.064,0.016l0.064,0.017l0.064,0.018l0.063,0.019l0.062,0.02l0.058,0.019l0.005,0.002l0.061,0.022l0.062,0.024l0.061,0.024l0.06,0.025l0.06,0.027l0.06,0.027l0.059,0.029l0.059,0.029l0.058,0.03l0.058,0.031l0.058,0.033l0.057,0.033l0.056,0.034l0.057,0.035l0.055,0.037l0.056,0.037l0.054,0.038l0.055,0.039l0.054,0.04l0.053,0.041l0.02,0.016l0.033,0.026l0.052,0.044l0.051,0.044l0.051,0.045l0.051,0.046l0.05,0.047l0.05,0.048l0.049,0.049l0.048,0.05l0.048,0.05l0.048,0.052l0.047,0.052l0.047,0.054l0.046,0.054l0.045,0.055l0.045,0.056l0.045,0.057l0.044,0.058l0.044,0.058l0.043,0.06l0.042,0.06l0.007,0.01l0.035,0.051l0.04,0.063l0.041,0.063l0.039,0.064l0.039,0.065l0.039,0.066l0.038,0.066l0.038,0.068l0.037,0.068l0.022,0.041l0.014,0.028l0.035,0.07l0.035,0.071l0.034,0.072l0.034,0.072l0.033,0.074l0.032,0.074l0.032,0.074l0.032,0.076l0.002,0.004l0.028,0.073l0.057,0.156l0.055,0.159l0.053,0.162l0.041,0.131l0.01,0.033l0.046,0.169l0.045,0.171l0.042,0.174l0.04,0.176l0.014,0.069l0.022,0.111l0.034,0.182l0.031,0.185l0.029,0.188l0.026,0.191l0.025,0.193l0.022,0.195l0.02,0.199l0.018,0.2l0.002,0.019l0.012,0.185l0.011,0.206l0.01,0.209l0.007,0.211l0.004,0.213l0.003,0.216l0,0.218l-0.002,0.221l-0.004,0.223l-0.1,0.116l-0.107,-0.111l-0.016,-0.221l-0.018,-0.217l-0.021,-0.215l-0.022,-0.212l-0.024,-0.209l-0.026,-0.206l-0.028,-0.203l-0.029,-0.2l-0.029,-0.18l-0.003,-0.017l-0.031,-0.195l-0.034,-0.191l-0.035,-0.188l-0.038,-0.186l-0.039,-0.182l-0.041,-0.179l-0.043,-0.176l-0.044,-0.173l-0.029,-0.104l-0.017,-0.066l-0.047,-0.167l-0.048,-0.163l-0.05,-0.161l-0.052,-0.157l-0.011,-0.031l-0.041,-0.124l-0.054,-0.152l-0.055,-0.148l-0.057,-0.146l-0.028,-0.067l-0.001,-0.004l-0.028,-0.071l-0.029,-0.07l-0.03,-0.07l-0.029,-0.069l-0.031,-0.068l-0.03,-0.067l-0.031,-0.066l-0.032,-0.066l-0.013,-0.026l-0.018,-0.038l-0.032,-0.065l-0.032,-0.063l-0.033,-0.063l-0.033,-0.062l-0.034,-0.061l-0.034,-0.06l-0.034,-0.06l-0.035,-0.059l-0.03,-0.048l-0.006,-0.01l-0.035,-0.057l-0.035,-0.057l-0.037,-0.056l-0.036,-0.055l-0.037,-0.054l-0.038,-0.054l-0.038,-0.053l-0.039,-0.052l-0.039,-0.051l-0.039,-0.05l-0.04,-0.05l-0.041,-0.048l-0.04,-0.048l-0.042,-0.048l-0.042,-0.046l-0.042,-0.045l-0.043,-0.045l-0.043,-0.044l-0.044,-0.043l-0.045,-0.042l-0.027,-0.026l-0.017,-0.016l-0.045,-0.041l-0.046,-0.04l-0.045,-0.04l-0.047,-0.039l-0.047,-0.038l-0.047,-0.037l-0.048,-0.036l-0.048,-0.036l-0.049,-0.034l-0.05,-0.034l-0.05,-0.033l-0.051,-0.032l-0.051,-0.032l-0.051,-0.03l-0.052,-0.03l-0.053,-0.029l-0.053,-0.028l-0.054,-0.027l-0.054,-0.027l-0.055,-0.025l-0.004,-0.002l-0.052,-0.023l-0.055,-0.025l-0.057,-0.023l-0.057,-0.023l-0.057,-0.021l-0.058,-0.021l-0.059,-0.02l-0.059,-0.019l-0.06,-0.018l-0.06,-0.018l-0.061,-0.016l-0.062,-0.016l-0.062,-0.014l-0.063,-0.014l-0.063,-0.013l-0.021,-0.004l-0.044,-0.008l-0.089,-0.117l0.117,-0.089l0.045,0.004Z" style="fill:#fff;"/><path id="H-5" serif:id="H 5" d="M18.011,6.297l0.009,-0.014l-0.01,0.027l-0.009,0.026l0.009,-0.016l-0.008,0.026l-0.006,0.025l0.008,-0.018l-0.005,0.025l-0.003,0.025l0.007,-0.02l-0.002,0.024l-0.001,0.02l0,0.004l0.005,-0.022l-0.001,0.024l0.001,0.023l0.003,-0.023l0.002,0.023l0.003,0.023l0.001,-0.023l0.004,0.023l0.005,0.023l-0.001,-0.022l0.006,0.023l0.008,0.023l-0.004,-0.022l0.009,0.024l0.011,0.024l-0.006,-0.021l0.012,0.024l0.013,0.024l-0.007,-0.019l0.014,0.025l0.016,0.025l-0.008,-0.018l0.018,0.026l0.019,0.026l-0.009,-0.017l0.021,0.027l0.022,0.026l-0.009,-0.014l0.001,0.001l0.022,0.026l0.024,0.028l-0.011,-0.016l0.04,0.042l0.034,0.031l0.035,0.03l0.036,0.028l0.037,0.026l0.039,0.025l0.039,0.024l0.041,0.023l0.027,0.013l0.014,0.008l0.041,0.022l0.043,0.02l0.044,0.02l0.045,0.018l0.046,0.016l0.047,0.016l0.048,0.014l0.049,0.013l0.05,0.012l0.014,0.003l0.036,0.009l0.051,0.012l0.051,0.011l0.053,0.01l0.053,0.008l0.053,0.007l0.054,0.006l0.054,0.004l0.055,0.003l0.01,0l0.045,0.004l0.055,0.004l0.055,0.003l0.055,0.001l0.039,0l0.017,0.001l0.055,0.001l0.055,-0.001l0.055,-0.001l0.055,-0.003l0.036,-0.003l0.019,-0.001l0.054,-0.003l0.054,-0.004l0.053,-0.006l0.053,-0.007l0.051,-0.008l0.051,-0.009l0.051,-0.01l0.049,-0.011l0.047,-0.013l0.047,-0.013l0.045,-0.015l0.001,0l0.044,-0.013l0.044,-0.015l0.042,-0.016l0.04,-0.016l0.039,-0.017l0.038,-0.018l0.036,-0.019l0.034,-0.019l0.032,-0.02l0.031,-0.02l0.036,-0.029l-0.015,0.016l0.035,-0.03l0.032,-0.031l-0.013,0.018l0.014,-0.014l0.017,-0.017l0.03,-0.032l-0.013,0.02l0.034,-0.044l-0.032,0.068l0.014,-0.024l0.013,-0.023l-0.004,0.01l0.013,-0.023l0.011,-0.024l-0.003,0.012l0.01,-0.024l0.01,-0.023l-0.002,0.012l0.008,-0.023l0.009,-0.024l-0.002,0.013l0.007,-0.023l0.007,-0.023l-0.001,0.013l0.005,-0.023l0.006,-0.023l-0.001,0.013l0.005,-0.023l0.003,-0.022l0.001,0.013l0.002,-0.023l0.002,-0.023l0.002,0.013l0.001,-0.023l0.001,-0.023l0.002,0.013l0,-0.023l-0.002,-0.023l0.004,0.012l-0.002,-0.023l0,-0.001l-0.003,-0.023l0.004,0.011l-0.003,-0.024l-0.004,-0.024l0.004,0.011l-0.005,-0.024l-0.005,-0.025l0.004,0.01l-0.006,-0.025l-0.008,-0.025l0.005,0.009l-0.009,-0.026l-0.01,-0.025l0.006,0.008l-0.011,-0.026l-0.012,-0.027l0.005,0.008l-0.013,-0.027l-0.014,-0.027l0.005,0.007l-0.015,-0.028l-0.014,-0.024l-0.015,-0.025l-0.016,-0.025l-0.018,-0.026l-0.019,-0.026l-0.02,-0.027l-0.021,-0.026l-0.023,-0.028l-0.024,-0.027l-0.025,-0.028l-0.026,-0.028l-0.028,-0.028l-0.029,-0.028l-0.063,-0.058l-0.068,-0.059l-0.073,-0.059l-0.021,-0.016l-0.057,-0.045l-0.083,-0.062l-0.089,-0.063l-0.094,-0.063l-0.075,-0.048l-0.025,-0.016l-0.047,-0.103l0.106,-0.039l0.029,0.006l0.089,0.02l0.115,0.028l0.11,0.03l0.106,0.032l0.074,0.025l0.029,0.009l0.097,0.037l0.094,0.039l0.089,0.041l0.044,0.022l0.043,0.021l0.041,0.023l0.041,0.022l0.04,0.024l0.039,0.024l0.037,0.024l0.037,0.026l0.036,0.026l0.036,0.026l0.034,0.027l0.033,0.028l0.032,0.029l0.032,0.029l0.03,0.03l0.03,0.031l0.028,0.032l0.027,0.032l0.026,0.033l0.026,0.034l0.024,0.034l0.022,0.036l0.022,0.036l0.021,0.037l0.019,0.037l0.018,0.038l0.016,0.039l0.015,0.04l0.014,0.04l0.012,0.041l0.01,0.041l0.009,0.042l0.008,0.041l0.007,0.043l0.005,0.042l0.004,0.043l0.002,0.043l0.001,0.043l0,0.043l-0.002,0.043l-0.003,0.043l-0.004,0.043l-0.005,0.043l-0.007,0.044l-0.008,0.043l-0.008,0.043l-0.01,0.043l-0.022,0.073l-0.045,0.094l-0.036,0.07l-0.021,0.038l-0.019,0.03l-0.043,0.066l-0.046,0.064l-0.048,0.062l-0.052,0.059l-0.053,0.058l-0.056,0.055l-0.058,0.054l-0.061,0.052l-0.062,0.049l-0.064,0.048l-0.065,0.046l-0.068,0.044l-0.067,0.041l-0.001,0.001l-0.072,0.039l-0.072,0.037l-0.074,0.035l-0.075,0.033l-0.076,0.031l-0.078,0.029l-0.078,0.028l-0.079,0.025l-0.081,0.024l-0.081,0.022l-0.082,0.02l-0.027,0.006l-0.056,0.011l-0.084,0.014l-0.084,0.012l-0.085,0.01l-0.086,0.008l-0.027,0.002l-0.059,0.003l-0.086,0.002l-0.087,0l-0.086,-0.003l-0.072,-0.003l-0.015,-0.002l-0.087,-0.009l-0.086,-0.012l-0.086,-0.014l-0.086,-0.017l-0.086,-0.018l-0.085,-0.021l-0.085,-0.023l-0.084,-0.025l-0.061,-0.021l-0.023,-0.008l-0.082,-0.033l-0.081,-0.036l-0.08,-0.038l-0.079,-0.04l-0.078,-0.043l-0.077,-0.046l-0.075,-0.048l-0.074,-0.051l-0.072,-0.053l-0.024,-0.02l-0.045,-0.038l-0.067,-0.06l-0.065,-0.063l-0.063,-0.066l-0.06,-0.069l-0.057,-0.071l-0.055,-0.073l-0.052,-0.077l-0.047,-0.077l-0.032,-0.054l-0.027,-0.051l-0.002,-0.003l-0.026,-0.055l-0.024,-0.055l-0.022,-0.055l-0.019,-0.056l-0.018,-0.057l-0.016,-0.056l-0.013,-0.057l-0.01,-0.057l-0.009,-0.058l-0.005,-0.057l-0.004,-0.058l0,-0.057l0.002,-0.058l0.005,-0.057l0.004,-0.056l0.004,0l0.01,-0.056l0.009,-0.055l0.005,0.001l0.015,-0.054l0.003,-0.009l0.016,-0.044l0.022,-0.051l0.024,-0.05l0.026,-0.048l0.029,-0.046l0.03,-0.046l0.032,-0.043l0.034,-0.042l0.036,-0.04l0.037,-0.038l0.039,-0.037l0.04,-0.036l0.041,-0.034l0.043,-0.032l0.044,-0.031l0.045,-0.03l0.047,-0.029l0.047,-0.027l0.049,-0.026l0.05,-0.025l0.051,-0.023l0.052,-0.023l0.054,-0.022l0.054,-0.02l0.056,-0.02l0.057,-0.018l0.058,-0.018l0.059,-0.017l0.06,-0.015l0.005,-0.002l0.057,-0.012l0.062,-0.013l0.064,-0.012l0.066,-0.011l0.066,-0.01l0.067,-0.009l0.069,-0.008l0.07,-0.007l0.07,-0.007l0.072,-0.005l0.073,-0.005l0.075,-0.004l0.075,-0.003l0.077,-0.002l0.046,-0.001l0.031,0l0.09,0.062l-0.062,0.09l-0.028,0.01l-0.043,0.017l-0.069,0.027l-0.068,0.027l-0.066,0.028l-0.064,0.028l-0.062,0.028l-0.061,0.028l-0.059,0.029l-0.057,0.029l-0.055,0.029l-0.054,0.029l-0.051,0.029l-0.05,0.029l-0.048,0.03l-0.043,0.027l-0.004,0.002l-0.044,0.028l-0.043,0.029l-0.042,0.028l-0.039,0.029l-0.037,0.028l-0.036,0.028l-0.033,0.028l-0.032,0.028l-0.03,0.028l-0.027,0.027l-0.026,0.027l-0.024,0.027l-0.022,0.026l-0.02,0.026l-0.023,0.029l0.009,-0.008l-0.02,0.029l-0.02,0.028l0.01,-0.009l-0.018,0.028l-0.015,0.028l0.009,-0.012l-0.014,0.027l-0.012,0.028Z" style="fill:#fff;"/><path id="H-4" serif:id="H 4" d="M16.635,5.871l-0.016,0.075l-0.027,0.021l-0.01,0.007l-0.035,0.029l-0.034,0.029l-0.034,0.03l-0.032,0.03l-0.031,0.03l-0.03,0.03l-0.028,0.031l-0.028,0.032l-0.027,0.031l-0.025,0.032l-0.025,0.032l-0.023,0.033l-0.022,0.032l-0.022,0.033l-0.02,0.034l-0.019,0.033l-0.018,0.034l-0.017,0.033l-0.016,0.034l-0.016,0.035l-0.014,0.034l-0.013,0.035l-0.012,0.034l-0.011,0.035l-0.011,0.035l-0.009,0.035l-0.009,0.035l-0.007,0.036l-0.007,0.035l-0.005,0.035l-0.005,0.036l-0.004,0.036l-0.003,0.035l-0.002,0.036l0,0.003l-0.001,0.033l-0.001,0.036l0.001,0.036l0.001,0.036l0.002,0.036l0.003,0.036l0.003,0.036l0.005,0.036l0.005,0.037l0.007,0.036l0.007,0.036l0.008,0.036l0.009,0.036l0.01,0.036l0.01,0.037l0.012,0.036l0.012,0.036l0.013,0.036l0.014,0.035l0.015,0.036l0.016,0.036l0.016,0.036l0.017,0.035l0.018,0.036l0.019,0.035l0.02,0.035l0.021,0.035l0.021,0.035l0.023,0.034l0.023,0.035l0.024,0.034l0.025,0.034l0.025,0.034l0.027,0.034l0.027,0.033l0.028,0.034l0.029,0.033l0.029,0.032l0.031,0.033l0.031,0.032l0.032,0.032l0.022,0.02l0.011,0.011l0.033,0.032l0.034,0.031l0.035,0.031l0.036,0.031l0.037,0.03l0.037,0.03l0.038,0.03l0.039,0.029l0.04,0.029l0.04,0.028l0.042,0.028l0.042,0.028l0.043,0.027l0.044,0.027l0.044,0.026l0.046,0.026l0.046,0.026l0.033,0.017l0.013,0.008l0.048,0.025l0.048,0.024l0.049,0.024l0.05,0.023l0.05,0.023l0.052,0.023l0.052,0.021l0.053,0.022l0.054,0.02l0.054,0.02l0.055,0.02l0.057,0.019l0.056,0.018l0.058,0.018l0.059,0.017l0.027,0.007l0.032,0.01l0.059,0.016l0.061,0.016l0.061,0.015l0.063,0.015l0.063,0.014l0.063,0.013l0.065,0.012l0.065,0.012l0.066,0.011l0.067,0.01l0.068,0.01l0.069,0.009l0.063,0.007l0.006,0.001l0.07,0.008l0.071,0.007l0.072,0.007l0.106,0.009l0.075,0.017l0.042,0.008l0.034,0.006l0.008,0.002l0.043,0.007l0.044,0.007l0.045,0.006l0.046,0.005l0.046,0.005l0.047,0.003l0.047,0.003l0.048,0.002l0.049,0.003l0.049,0.001l0.05,0.001l0.05,0l0.051,-0.001l0.051,-0.001l0.051,-0.003l0.049,-0.002l0.003,-0.001l0.053,-0.003l0.052,-0.003l0.053,-0.004l0.053,-0.006l0.054,-0.005l0.053,-0.007l0.054,-0.007l0.054,-0.008l0.012,-0.002l0.041,-0.006l0.11,-0.018l0.109,-0.02l0.109,-0.024l0.108,-0.026l0.108,-0.028l0.107,-0.031l0.107,-0.035l0.052,-0.017l0.052,-0.018l0.042,-0.016l0.01,-0.003l0.052,-0.019l0.051,-0.019l0.051,-0.02l0.05,-0.021l0.05,-0.021l0.05,-0.022l0.049,-0.022l0.048,-0.023l0.048,-0.023l0.047,-0.024l0.046,-0.025l0.046,-0.025l0.044,-0.025l0.045,-0.026l0.043,-0.026l0.043,-0.027l0.041,-0.027l0.041,-0.028l0.04,-0.028l0.001,-0.001l0.039,-0.027l0.039,-0.029l0.037,-0.029l0.037,-0.029l0.036,-0.03l0.034,-0.03l0.034,-0.031l0.033,-0.031l0.031,-0.031l0.031,-0.031l0.029,-0.032l0.028,-0.032l0.027,-0.033l0.026,-0.033l0.025,-0.033l0.024,-0.033l0.022,-0.034l0.022,-0.033l0.02,-0.034l0.019,-0.035l0.017,-0.034l0.007,-0.015l0.01,-0.02l0.015,-0.035l0.015,-0.036l0.013,-0.035l0.012,-0.037l0.01,-0.036l0.01,-0.037l0.008,-0.037l0.006,-0.038l0.005,-0.038l0.004,-0.039l0.003,-0.039l0.001,-0.04l-0.001,-0.04l-0.002,-0.041l-0.004,-0.042l-0.005,-0.042l-0.007,-0.043l-0.009,-0.043l-0.01,-0.044l-0.012,-0.045l-0.015,-0.045l-0.016,-0.046l-0.018,-0.047l-0.02,-0.047l-0.022,-0.048l-0.025,-0.049l-0.026,-0.049l-0.029,-0.05l-0.031,-0.05l-0.033,-0.051l-0.036,-0.052l-0.038,-0.052l-0.03,-0.039l-0.01,-0.013l-0.042,-0.053l-0.045,-0.054l-0.047,-0.055l-0.05,-0.054l-0.052,-0.055l-0.055,-0.056l-0.057,-0.056l-0.06,-0.057l-0.04,-0.035l-0.023,-0.022l-0.013,-0.077l0.078,-0.009l0.028,0.018l0.045,0.029l0.071,0.046l0.068,0.048l0.066,0.047l0.063,0.048l0.061,0.048l0.059,0.048l0.057,0.048l0.054,0.049l0.014,0.013l0.038,0.037l0.05,0.05l0.047,0.05l0.046,0.05l0.043,0.051l0.04,0.051l0.039,0.051l0.037,0.051l0.034,0.052l0.033,0.052l0.03,0.053l0.028,0.052l0.026,0.053l0.024,0.053l0.022,0.054l0.02,0.054l0.018,0.053l0.015,0.055l0.014,0.054l0.011,0.054l0.01,0.055l0.007,0.054l0.005,0.055l0.003,0.054l0.001,0.054l-0.001,0.055l-0.002,0.054l-0.005,0.054l-0.007,0.054l-0.009,0.053l-0.01,0.054l-0.012,0.053l-0.015,0.052l-0.009,0.03l-0.007,0.022l-0.017,0.052l-0.02,0.051l-0.021,0.051l-0.023,0.05l-0.024,0.05l-0.026,0.049l-0.027,0.049l-0.029,0.048l-0.03,0.048l-0.031,0.047l-0.033,0.047l-0.033,0.046l-0.036,0.045l-0.036,0.045l-0.037,0.045l-0.039,0.044l-0.039,0.043l-0.041,0.043l-0.042,0.042l-0.043,0.042l-0.043,0.04l0,0.001l-0.046,0.04l-0.046,0.039l-0.046,0.039l-0.048,0.038l-0.049,0.038l-0.049,0.037l-0.051,0.037l-0.051,0.036l-0.051,0.035l-0.053,0.035l-0.053,0.034l-0.054,0.033l-0.054,0.033l-0.056,0.032l-0.055,0.031l-0.057,0.031l-0.057,0.03l-0.057,0.03l-0.058,0.029l-0.011,0.005l-0.048,0.022l-0.059,0.027l-0.061,0.026l-0.12,0.05l-0.122,0.047l-0.123,0.044l-0.125,0.041l-0.126,0.038l-0.126,0.035l-0.126,0.031l-0.05,0.011l-0.015,0.004l-0.064,0.013l-0.064,0.012l-0.064,0.011l-0.065,0.01l-0.064,0.01l-0.064,0.008l-0.064,0.008l-0.064,0.007l-0.005,0l-0.059,0.005l-0.064,0.004l-0.064,0.003l-0.064,0.002l-0.063,0.001l-0.063,0.001l-0.064,-0.001l-0.062,-0.002l-0.002,0l-0.061,-0.003l-0.062,-0.005l-0.062,-0.006l-0.062,-0.007l-0.061,-0.007l-0.061,-0.009l-0.061,-0.01l-0.06,-0.011l-0.012,-0.003l-0.047,-0.01l-0.06,-0.014l-0.024,-0.007l-0.049,-0.007l-0.082,-0.01l-0.081,-0.012l-0.081,-0.012l-0.006,-0.001l-0.073,-0.013l-0.079,-0.015l-0.078,-0.017l-0.076,-0.016l-0.076,-0.018l-0.075,-0.019l-0.075,-0.019l-0.073,-0.021l-0.073,-0.021l-0.071,-0.021l-0.071,-0.023l-0.07,-0.023l-0.069,-0.024l-0.037,-0.014l-0.03,-0.012l-0.067,-0.026l-0.066,-0.027l-0.065,-0.028l-0.064,-0.029l-0.063,-0.029l-0.062,-0.03l-0.062,-0.03l-0.06,-0.031l-0.059,-0.032l-0.059,-0.033l-0.057,-0.032l-0.057,-0.034l-0.056,-0.034l-0.054,-0.035l-0.054,-0.035l-0.015,-0.01l-0.038,-0.026l-0.051,-0.037l-0.051,-0.037l-0.049,-0.038l-0.049,-0.038l-0.048,-0.038l-0.046,-0.04l-0.046,-0.039l-0.045,-0.04l-0.044,-0.04l-0.042,-0.041l-0.042,-0.041l-0.041,-0.042l-0.04,-0.041l-0.039,-0.043l-0.038,-0.042l-0.036,-0.043l-0.036,-0.043l-0.012,-0.015l-0.023,-0.029l-0.033,-0.044l-0.033,-0.044l-0.031,-0.045l-0.031,-0.044l-0.029,-0.045l-0.029,-0.045l-0.027,-0.046l-0.026,-0.045l-0.026,-0.046l-0.024,-0.046l-0.023,-0.046l-0.023,-0.046l-0.021,-0.046l-0.02,-0.047l-0.02,-0.046l-0.018,-0.046l-0.017,-0.047l-0.016,-0.046l-0.015,-0.047l-0.014,-0.047l-0.013,-0.046l-0.012,-0.047l-0.011,-0.046l-0.01,-0.047l-0.009,-0.046l-0.008,-0.047l-0.007,-0.046l-0.005,-0.046l-0.005,-0.046l-0.004,-0.046l-0.002,-0.046l-0.002,-0.046l0,-0.045l0,-0.046l0.002,-0.045l0.003,-0.045l0.004,-0.044l0.004,-0.045l0.006,-0.044l0.007,-0.043l0.008,-0.041l0,-0.003l0.01,-0.043l0.01,-0.043l0.012,-0.042l0.012,-0.042l0.014,-0.042l0.014,-0.041l0.016,-0.041l0.017,-0.04l0.017,-0.04l0.019,-0.04l0.02,-0.039l0.021,-0.038l0.021,-0.038l0.023,-0.037l0.024,-0.037l0.025,-0.036l0.026,-0.036l0.026,-0.035l0.028,-0.034l0.029,-0.034l0.03,-0.033l0.03,-0.033l0.032,-0.032l0.032,-0.031l0.034,-0.03l0.034,-0.03l0.036,-0.029l0.036,-0.029l0.037,-0.028l0.038,-0.027l0.04,-0.026l0.04,-0.026l0.041,-0.025l0.041,-0.024l0.012,-0.006l0.031,-0.017l0.074,0.016Z" style="fill:#fff;"/><path id="H-3" serif:id="H 3" d="M14.43,7.123l-0.016,0.055l-0.001,0.001l-0.015,0.054l-0.014,0.055l-0.014,0.055l-0.012,0.055l-0.011,0.055l-0.01,0.055l-0.01,0.055l-0.008,0.056l-0.007,0.055l-0.007,0.056l-0.005,0.055l-0.004,0.056l-0.004,0.055l-0.002,0.056l-0.002,0.056l0,0.055l0,0.056l0.002,0.055l0.002,0.056l0.003,0.055l0.004,0.056l0.006,0.055l0.006,0.055l0.006,0.055l0.008,0.055l0.009,0.055l0.01,0.055l0.01,0.055l0.007,0.034l0.004,0.021l0.012,0.054l0.013,0.054l0.014,0.055l0.014,0.054l0.016,0.054l0.016,0.053l0.017,0.054l0.018,0.053l0.019,0.053l0.019,0.053l0.021,0.053l0.021,0.052l0.023,0.052l0.023,0.052l0.024,0.052l0.024,0.051l0.026,0.051l0.026,0.051l0.028,0.05l0.028,0.05l0.028,0.05l0.03,0.049l0.031,0.05l0.031,0.048l0.032,0.049l0.033,0.047l0.033,0.048l0.035,0.047l0.035,0.047l0.036,0.046l0.037,0.046l0.037,0.045l0.039,0.045l0.039,0.045l0.034,0.037l0.006,0.007l0.04,0.044l0.041,0.043l0.041,0.043l0.043,0.043l0.043,0.042l0.044,0.041l0.044,0.041l0.046,0.041l0.046,0.04l0.047,0.039l0.047,0.039l0.049,0.038l0.049,0.038l0.049,0.037l0.051,0.036l0.051,0.036l0.052,0.035l0.015,0.01l0.038,0.025l0.053,0.035l0.053,0.033l0.055,0.034l0.055,0.032l0.056,0.032l0.057,0.031l0.057,0.031l0.058,0.03l0.059,0.029l0.059,0.028l0.061,0.028l0.061,0.027l0.061,0.026l0.063,0.026l0.063,0.025l0.035,0.013l0.028,0.011l0.064,0.024l0.065,0.023l0.066,0.023l0.066,0.022l0.067,0.021l0.068,0.02l0.069,0.019l0.069,0.018l0.07,0.018l0.071,0.017l0.071,0.016l0.072,0.015l0.073,0.014l0.074,0.013l0.007,0.001l0.067,0.013l0.074,0.012l0.076,0.012l0.076,0.011l0.077,0.01l0.078,0.009l0.079,0.008l0.079,0.007l0.08,0.007l0.081,0.005l0.082,0.004l0.082,0.003l0.052,0.001l0.032,0.002l0.083,0.003l0.103,0.003l0.153,0.012l0.132,0.008l0.133,0.006l0.131,0.004l0.131,0.001l0.13,-0.002l0.064,-0.002l0.066,0l0.129,-0.004l0.128,-0.006l0.127,-0.008l0.127,-0.011l0.125,-0.013l0.125,-0.015l0.123,-0.018l0.122,-0.02l0.112,-0.021l0.009,-0.002l0.12,-0.023l0.119,-0.025l0.118,-0.027l0.116,-0.03l0.114,-0.032l0.113,-0.034l0.112,-0.037l0.11,-0.038l0.108,-0.041l0.106,-0.043l0.041,-0.018l0.064,-0.026l0.103,-0.046l0.101,-0.048l0.099,-0.05l0.098,-0.053l0.047,-0.026l0.047,-0.027l0.047,-0.028l0.046,-0.028l0.046,-0.029l0.045,-0.03l0.044,-0.029l0.044,-0.031l0.043,-0.03l0.043,-0.032l0.042,-0.031l0.042,-0.033l0.03,-0.024l0.011,-0.008l0.041,-0.033l0.04,-0.033l0.039,-0.034l0.039,-0.034l0.039,-0.035l0.037,-0.035l0.037,-0.036l0.037,-0.036l0.035,-0.037l0.035,-0.037l0.035,-0.037l0.033,-0.038l0.033,-0.039l0.033,-0.039l0.032,-0.04l0.031,-0.039l0.03,-0.041l0.029,-0.041l0.029,-0.041l0.028,-0.042l0.028,-0.043l0.027,-0.042l0.026,-0.044l0.025,-0.043l0.024,-0.045l0.024,-0.045l0.023,-0.045l0.022,-0.045l0.022,-0.047l0.02,-0.046l0.02,-0.048l0.019,-0.047l0.018,-0.049l0.017,-0.048l0.017,-0.049l0.016,-0.05l0.014,-0.05l0.014,-0.051l0.001,-0.001l0.013,-0.05l0.012,-0.052l0.012,-0.052l0.011,-0.053l0.01,-0.053l0.009,-0.053l0.008,-0.055l0.007,-0.054l0.006,-0.056l0.005,-0.056l0.005,-0.056l0.003,-0.057l0.002,-0.057l0.001,-0.058l0.001,-0.059l0.112,-0.135l0.131,0.117l0.009,0.061l0.008,0.062l0.006,0.062l0.006,0.061l0.005,0.062l0.003,0.061l0.002,0.061l0.001,0.06l0,0.061l-0.001,0.06l-0.002,0.061l-0.003,0.06l-0.005,0.059l-0.005,0.06l-0.007,0.057l0,0.002l-0.008,0.059l-0.009,0.058l-0.01,0.059l-0.011,0.058l-0.013,0.058l-0.013,0.057l-0.014,0.057l-0.016,0.057l-0.016,0.057l-0.017,0.056l-0.019,0.056l-0.019,0.056l-0.02,0.055l-0.022,0.055l-0.022,0.054l-0.024,0.054l-0.024,0.054l-0.025,0.053l-0.026,0.053l-0.027,0.053l-0.028,0.052l-0.029,0.052l-0.03,0.052l-0.031,0.051l-0.031,0.05l-0.033,0.05l-0.033,0.05l-0.035,0.05l-0.035,0.048l-0.036,0.049l-0.037,0.048l-0.037,0.047l-0.039,0.047l-0.039,0.047l-0.04,0.046l-0.041,0.046l-0.041,0.045l-0.043,0.045l-0.011,0.011l-0.032,0.033l-0.045,0.043l-0.045,0.043l-0.045,0.042l-0.047,0.042l-0.047,0.041l-0.048,0.041l-0.048,0.041l-0.05,0.039l-0.049,0.04l-0.051,0.038l-0.051,0.039l-0.053,0.038l-0.105,0.073l-0.108,0.072l-0.111,0.069l-0.113,0.067l-0.069,0.039l-0.046,0.026l-0.118,0.061l-0.121,0.06l-0.122,0.057l-0.124,0.054l-0.127,0.053l-0.128,0.05l-0.13,0.047l-0.132,0.045l-0.133,0.043l-0.136,0.04l-0.01,0.002l-0.127,0.034l-0.139,0.033l-0.14,0.031l-0.141,0.028l-0.143,0.026l-0.145,0.023l-0.145,0.02l-0.146,0.017l-0.148,0.015l-0.076,0.006l-0.073,0.005l-0.15,0.006l-0.15,0.004l-0.151,0l-0.152,-0.002l-0.153,-0.005l-0.133,-0.006l-0.081,0l-0.097,-0.001l-0.037,0l-0.06,-0.003l-0.096,-0.006l-0.095,-0.007l-0.095,-0.008l-0.093,-0.009l-0.093,-0.011l-0.093,-0.011l-0.091,-0.013l-0.091,-0.014l-0.09,-0.015l-0.089,-0.016l-0.088,-0.017l-0.079,-0.016l-0.009,-0.002l-0.086,-0.021l-0.086,-0.022l-0.085,-0.023l-0.084,-0.024l-0.083,-0.024l-0.082,-0.026l-0.082,-0.027l-0.081,-0.028l-0.079,-0.029l-0.079,-0.03l-0.078,-0.03l-0.077,-0.032l-0.077,-0.032l-0.075,-0.034l-0.034,-0.015l-0.04,-0.02l-0.073,-0.036l-0.073,-0.037l-0.071,-0.037l-0.071,-0.039l-0.069,-0.039l-0.069,-0.04l-0.067,-0.041l-0.067,-0.042l-0.066,-0.043l-0.065,-0.043l-0.064,-0.044l-0.063,-0.044l-0.062,-0.046l-0.061,-0.046l-0.06,-0.047l-0.043,-0.034l-0.016,-0.013l-0.058,-0.049l-0.057,-0.049l-0.055,-0.05l-0.055,-0.05l-0.054,-0.051l-0.053,-0.052l-0.052,-0.052l-0.051,-0.052l-0.05,-0.054l-0.049,-0.053l-0.048,-0.055l-0.047,-0.054l-0.046,-0.055l-0.045,-0.056l-0.044,-0.056l-0.043,-0.057l-0.042,-0.057l-0.006,-0.008l-0.035,-0.049l-0.039,-0.058l-0.039,-0.059l-0.037,-0.059l-0.037,-0.059l-0.035,-0.059l-0.034,-0.06l-0.034,-0.06l-0.032,-0.061l-0.032,-0.06l-0.03,-0.061l-0.029,-0.062l-0.029,-0.061l-0.027,-0.062l-0.026,-0.062l-0.025,-0.062l-0.025,-0.062l-0.023,-0.062l-0.022,-0.063l-0.021,-0.063l-0.02,-0.063l-0.02,-0.063l-0.018,-0.063l-0.017,-0.063l-0.016,-0.063l-0.015,-0.064l-0.014,-0.063l-0.013,-0.064l-0.012,-0.063l-0.011,-0.064l-0.01,-0.063l-0.008,-0.064l-0.008,-0.063l-0.007,-0.064l-0.006,-0.063l-0.002,-0.024l-0.002,-0.039l-0.003,-0.064l-0.003,-0.063l-0.001,-0.063l0,-0.063l0.001,-0.063l0.002,-0.063l0.003,-0.062l0.004,-0.063l0.005,-0.062l0.006,-0.062l0.007,-0.062l0.009,-0.061l0.009,-0.062l0.01,-0.061l0.011,-0.061l0.013,-0.06l0.013,-0.06l0.014,-0.06l0.016,-0.06l0.016,-0.059l0.018,-0.059l0.018,-0.059l0.02,-0.058l0.02,-0.058l0.022,-0.057l0.022,-0.057l0.024,-0.057l0.025,-0.056l0,-0.001l0.025,-0.054l0.158,-0.071l0.07,0.158Z" style="fill:#fff;"/><path id="H-2" serif:id="H 2" d="M12.782,9.791l0.002,0.062l0.001,0.028l0.005,0.088l0.005,0.088l0.007,0.086l0.008,0.085l0.008,0.084l0.01,0.084l0.011,0.082l0.012,0.082l0.014,0.08l0.014,0.079l0.015,0.079l0.016,0.077l0.017,0.077l0.018,0.075l0.019,0.075l0.02,0.073l0.021,0.073l0.022,0.072l0.023,0.07l0.024,0.07l0.025,0.069l0.025,0.068l0.012,0.031l0.014,0.036l0.027,0.066l0.027,0.066l0.029,0.064l0.029,0.064l0.03,0.063l0.031,0.062l0.031,0.061l0.032,0.06l0.034,0.059l0.034,0.059l0.034,0.058l0.036,0.056l0.036,0.056l0.037,0.056l0.037,0.054l0.039,0.054l0.039,0.052l0.039,0.052l0.041,0.052l0.041,0.05l0.042,0.05l0.042,0.049l0.043,0.048l0.044,0.047l0.044,0.047l0.045,0.046l0.046,0.045l0.046,0.044l0.047,0.044l0.048,0.043l0.048,0.042l0.048,0.042l0.05,0.04l0.015,0.013l0.034,0.028l0.05,0.04l0.05,0.039l0.051,0.039l0.052,0.038l0.052,0.037l0.053,0.037l0.053,0.036l0.054,0.035l0.054,0.035l0.055,0.034l0.056,0.033l0.056,0.033l0.056,0.032l0.057,0.032l0.057,0.03l0.058,0.031l0.059,0.029l0.039,0.02l0.019,0.009l0.059,0.029l0.06,0.028l0.059,0.028l0.061,0.027l0.06,0.026l0.062,0.026l0.061,0.025l0.062,0.025l0.063,0.024l0.063,0.023l0.063,0.023l0.063,0.022l0.064,0.021l0.064,0.021l0.131,0.04l0.103,0.03l0.028,0.008l0.132,0.037l0.133,0.035l0.134,0.032l0.136,0.03l0.136,0.028l0.138,0.025l0.138,0.023l0.14,0.021l0.031,0.004l0.109,0.016l0.14,0.019l0.141,0.017l0.142,0.014l0.142,0.012l0.143,0.01l0.143,0.008l0.144,0.005l0.143,0.008l0.144,0.005l0.144,0.004l0.144,0.001l0.144,-0.001l0.144,-0.004l0.144,-0.005l0.144,-0.008l0.02,-0.001l0.124,-0.005l0.143,-0.009l0.143,-0.01l0.143,-0.013l0.142,-0.015l0.142,-0.017l0.14,-0.019l0.141,-0.021l0.139,-0.023l0.057,-0.01l0.081,-0.014l0.138,-0.025l0.137,-0.027l0.135,-0.029l0.135,-0.032l0.133,-0.033l0.132,-0.035l0.13,-0.038l0.129,-0.039l0.127,-0.041l0.056,-0.02l0.07,-0.023l0.124,-0.044l0.123,-0.046l0.121,-0.048l0.118,-0.05l0.117,-0.051l0.115,-0.054l0.112,-0.056l0.111,-0.057l0.109,-0.06l0.052,-0.03l0.039,-0.023l0.013,-0.008l0.053,-0.031l0.051,-0.031l0.051,-0.032l0.051,-0.032l0.05,-0.033l0.049,-0.033l0.048,-0.033l0.048,-0.035l0.047,-0.034l0.047,-0.035l0.046,-0.036l0.045,-0.036l0.044,-0.036l0.044,-0.037l0.043,-0.037l0.042,-0.038l0.042,-0.038l0.041,-0.039l0.04,-0.039l0.039,-0.04l0.039,-0.04l0.037,-0.041l0.037,-0.041l0.037,-0.041l0.035,-0.042l0.035,-0.043l0.034,-0.043l0.033,-0.043l0.032,-0.044l0.031,-0.044l0.031,-0.045l0.03,-0.046l0.029,-0.045l0.028,-0.047l0.027,-0.047l0.026,-0.047l0.025,-0.048l0.021,-0.04l0.004,-0.008l0.024,-0.049l0.023,-0.049l0.022,-0.049l0.022,-0.051l0.02,-0.05l0.019,-0.052l0.019,-0.052l0.017,-0.052l0.017,-0.053l0.015,-0.053l0.015,-0.054l0.013,-0.055l0.013,-0.055l0.011,-0.056l0.01,-0.056l0.01,-0.058l0.122,-0.11l0.104,0.127l0,0.061l-0.001,0.062l-0.002,0.062l-0.004,0.061l-0.004,0.062l-0.006,0.061l-0.008,0.061l-0.008,0.061l-0.01,0.061l-0.01,0.06l-0.012,0.06l-0.013,0.06l-0.015,0.059l-0.015,0.06l-0.017,0.059l-0.018,0.059l-0.003,0.009l-0.016,0.049l-0.02,0.058l-0.022,0.058l-0.022,0.057l-0.024,0.057l-0.025,0.057l-0.026,0.056l-0.027,0.056l-0.028,0.056l-0.029,0.055l-0.03,0.055l-0.031,0.054l-0.032,0.054l-0.034,0.054l-0.034,0.054l-0.035,0.053l-0.036,0.052l-0.037,0.053l-0.038,0.051l-0.039,0.052l-0.039,0.051l-0.041,0.05l-0.042,0.051l-0.042,0.049l-0.043,0.05l-0.044,0.048l-0.046,0.049l-0.045,0.048l-0.047,0.048l-0.048,0.047l-0.048,0.046l-0.049,0.047l-0.05,0.046l-0.051,0.045l-0.051,0.045l-0.052,0.044l-0.053,0.044l-0.054,0.044l-0.014,0.011l-0.041,0.032l-0.056,0.042l-0.112,0.083l-0.116,0.081l-0.118,0.079l-0.121,0.077l-0.123,0.075l-0.125,0.073l-0.128,0.071l-0.131,0.069l-0.132,0.067l-0.074,0.036l-0.06,0.029l-0.137,0.062l-0.139,0.059l-0.141,0.058l-0.142,0.056l-0.144,0.053l-0.146,0.051l-0.147,0.05l-0.149,0.047l-0.15,0.044l-0.089,0.026l-0.062,0.016l-0.153,0.039l-0.155,0.036l-0.155,0.034l-0.156,0.031l-0.157,0.029l-0.159,0.027l-0.158,0.025l-0.16,0.022l-0.138,0.018l-0.022,0.002l-0.161,0.014l-0.162,0.012l-0.162,0.009l-0.162,0.007l-0.162,0.004l-0.163,0.002l-0.162,0l-0.162,-0.003l-0.001,-0.001l-0.162,-0.01l-0.162,-0.012l-0.162,-0.015l-0.161,-0.018l-0.161,-0.02l-0.16,-0.023l-0.16,-0.026l-0.123,-0.022l-0.036,-0.007l-0.157,-0.033l-0.157,-0.037l-0.156,-0.039l-0.155,-0.041l-0.153,-0.045l-0.153,-0.047l-0.151,-0.05l-0.15,-0.052l-0.031,-0.012l-0.116,-0.045l-0.145,-0.06l-0.074,-0.032l-0.072,-0.031l-0.071,-0.033l-0.071,-0.033l-0.071,-0.034l-0.07,-0.034l-0.07,-0.036l-0.069,-0.036l-0.069,-0.037l-0.068,-0.037l-0.068,-0.038l-0.067,-0.039l-0.066,-0.04l-0.066,-0.04l-0.021,-0.013l-0.045,-0.028l-0.064,-0.043l-0.064,-0.043l-0.063,-0.044l-0.063,-0.044l-0.062,-0.046l-0.061,-0.046l-0.061,-0.046l-0.06,-0.048l-0.06,-0.048l-0.058,-0.049l-0.058,-0.049l-0.057,-0.051l-0.057,-0.051l-0.056,-0.052l-0.055,-0.052l-0.054,-0.053l-0.054,-0.054l-0.036,-0.038l-0.016,-0.017l-0.052,-0.056l-0.05,-0.057l-0.05,-0.057l-0.049,-0.058l-0.048,-0.059l-0.047,-0.06l-0.046,-0.06l-0.045,-0.061l-0.045,-0.061l-0.043,-0.062l-0.043,-0.063l-0.041,-0.064l-0.041,-0.064l-0.04,-0.065l-0.038,-0.066l-0.038,-0.067l-0.037,-0.067l-0.036,-0.067l-0.034,-0.069l-0.034,-0.069l-0.033,-0.07l-0.031,-0.07l-0.031,-0.071l-0.029,-0.072l-0.029,-0.072l-0.027,-0.073l-0.026,-0.074l-0.025,-0.074l-0.024,-0.075l-0.023,-0.075l-0.022,-0.076l-0.02,-0.077l-0.02,-0.078l-0.01,-0.042l-0.008,-0.036l-0.016,-0.079l-0.016,-0.079l-0.014,-0.08l-0.013,-0.081l-0.012,-0.081l-0.01,-0.082l-0.01,-0.082l-0.008,-0.083l-0.007,-0.084l-0.006,-0.084l-0.004,-0.084l-0.003,-0.086l-0.003,-0.086l0,-0.086l0,-0.087l0.002,-0.088l0.003,-0.088l0.004,-0.089l0.005,-0.089l0.007,-0.09l0.008,-0.091l0.01,-0.091l0.003,-0.028l0.007,-0.063l0.118,-0.109l0.109,0.118Z" style="fill:#fff;"/><path id="H-1" serif:id="H 1" d="M12.018,13.16l0.011,0.078l0.012,0.075l0.013,0.076l0.014,0.074l0.014,0.073l0.016,0.073l0.017,0.072l0.018,0.071l0.018,0.07l0.02,0.069l0.02,0.069l0.021,0.068l0.022,0.067l0.023,0.066l0.024,0.066l0.025,0.064l0.025,0.064l0.027,0.063l0.027,0.062l0.028,0.062l0.028,0.061l0.03,0.06l0.03,0.059l0.031,0.059l0.011,0.02l0.021,0.038l0.032,0.057l0.032,0.057l0.034,0.056l0.034,0.055l0.035,0.055l0.035,0.053l0.037,0.054l0.037,0.052l0.037,0.052l0.039,0.051l0.039,0.051l0.039,0.049l0.041,0.049l0.041,0.049l0.042,0.048l0.042,0.047l0.043,0.046l0.043,0.046l0.045,0.046l0.044,0.044l0.046,0.044l0.046,0.044l0.047,0.042l0.047,0.042l0.048,0.042l0.048,0.041l0.049,0.04l0.05,0.04l0.05,0.039l0.05,0.038l0.051,0.038l0.052,0.037l0.039,0.028l0.013,0.009l0.052,0.037l0.053,0.037l0.053,0.036l0.054,0.035l0.054,0.035l0.055,0.034l0.055,0.033l0.056,0.033l0.056,0.033l0.056,0.032l0.058,0.031l0.057,0.031l0.059,0.03l0.058,0.03l0.059,0.029l0.059,0.028l0.121,0.056l0.122,0.053l0.124,0.051l0.125,0.048l0.127,0.047l0.129,0.044l0.13,0.042l0.131,0.04l0.132,0.037l0.052,0.014l0.081,0.023l0.134,0.036l0.135,0.034l0.137,0.032l0.137,0.029l0.139,0.028l0.139,0.025l0.14,0.023l0.092,0.014l0.049,0.008l0.141,0.022l0.142,0.02l0.143,0.017l0.143,0.015l0.144,0.014l0.144,0.011l0.145,0.009l0.056,0.002l0.089,0.007l0.145,0.01l0.145,0.007l0.146,0.005l0.145,0.003l0.146,0l0.146,-0.001l0.146,-0.003l0.095,-0.004l0.051,0l0.146,-0.005l0.145,-0.006l0.146,-0.008l0.145,-0.011l0.145,-0.012l0.144,-0.015l0.144,-0.017l0.143,-0.019l0.142,-0.02l0.03,-0.005l0.113,-0.016l0.141,-0.023l0.141,-0.024l0.14,-0.027l0.139,-0.029l0.138,-0.031l0.137,-0.032l0.135,-0.035l0.135,-0.037l0.133,-0.039l0.132,-0.041l0.131,-0.044l0.129,-0.045l0.127,-0.047l0.126,-0.049l0.125,-0.052l0.122,-0.053l0.121,-0.055l0.119,-0.058l0.117,-0.059l0.115,-0.062l0.023,-0.012l0.091,-0.05l0.113,-0.064l0.055,-0.032l0.054,-0.033l0.055,-0.034l0.053,-0.034l0.054,-0.035l0.052,-0.035l0.052,-0.036l0.052,-0.036l0.05,-0.037l0.051,-0.038l0.049,-0.037l0.05,-0.039l0.048,-0.039l0.048,-0.039l0.047,-0.04l0.047,-0.041l0.046,-0.041l0.045,-0.041l0.045,-0.042l0.044,-0.043l0.043,-0.043l0.043,-0.043l0.042,-0.045l0.041,-0.044l0.041,-0.046l0.04,-0.045l0.039,-0.047l0.039,-0.047l0.038,-0.047l0.037,-0.048l0.036,-0.049l0.036,-0.049l0.035,-0.049l0.034,-0.05l0.034,-0.051l0.032,-0.052l0.032,-0.051l0.031,-0.053l0.03,-0.053l0.03,-0.054l0.029,-0.054l0.027,-0.054l0.027,-0.056l0.027,-0.056l0.025,-0.056l0.024,-0.057l0.024,-0.058l0.023,-0.058l0.022,-0.059l0.021,-0.061l0.183,-0.108l0.102,0.186l-0.013,0.065l-0.015,0.067l-0.016,0.066l-0.016,0.065l-0.018,0.065l-0.019,0.065l-0.02,0.065l-0.021,0.064l-0.022,0.064l-0.023,0.063l-0.024,0.063l-0.025,0.063l-0.026,0.062l-0.027,0.062l-0.028,0.061l-0.029,0.061l-0.03,0.061l-0.031,0.06l-0.031,0.06l-0.033,0.059l-0.034,0.059l-0.034,0.058l-0.036,0.058l-0.036,0.058l-0.038,0.057l-0.038,0.056l-0.039,0.057l-0.04,0.055l-0.041,0.056l-0.041,0.054l-0.043,0.055l-0.043,0.054l-0.044,0.053l-0.045,0.053l-0.046,0.053l-0.047,0.052l-0.047,0.051l-0.048,0.051l-0.049,0.051l-0.05,0.05l-0.05,0.049l-0.051,0.05l-0.052,0.048l-0.053,0.048l-0.053,0.048l-0.054,0.047l-0.054,0.047l-0.056,0.046l-0.056,0.045l-0.057,0.046l-0.115,0.088l-0.094,0.07l-0.024,0.017l-0.121,0.083l-0.123,0.081l-0.126,0.078l-0.128,0.077l-0.131,0.075l-0.132,0.072l-0.134,0.07l-0.136,0.069l-0.138,0.066l-0.14,0.064l-0.142,0.061l-0.143,0.06l-0.145,0.057l-0.146,0.056l-0.148,0.053l-0.149,0.051l-0.151,0.049l-0.152,0.046l-0.153,0.045l-0.154,0.042l-0.123,0.031l-0.033,0.008l-0.156,0.035l-0.158,0.033l-0.159,0.031l-0.159,0.029l-0.16,0.026l-0.161,0.024l-0.161,0.021l-0.162,0.019l-0.163,0.017l-0.056,0.006l-0.107,0.007l-0.163,0.009l-0.163,0.007l-0.164,0.004l-0.164,0.002l-0.163,0l-0.164,-0.002l-0.164,-0.005l-0.1,-0.005l-0.063,-0.005l-0.163,-0.014l-0.163,-0.016l-0.162,-0.019l-0.161,-0.021l-0.161,-0.024l-0.161,-0.026l-0.159,-0.029l-0.055,-0.011l-0.104,-0.022l-0.157,-0.036l-0.157,-0.039l-0.155,-0.041l-0.155,-0.044l-0.153,-0.046l-0.152,-0.048l-0.15,-0.051l-0.092,-0.033l-0.057,-0.022l-0.147,-0.059l-0.146,-0.061l-0.144,-0.064l-0.142,-0.066l-0.14,-0.068l-0.138,-0.071l-0.137,-0.074l-0.134,-0.076l-0.131,-0.078l-0.067,-0.04l-0.065,-0.041l-0.064,-0.042l-0.064,-0.042l-0.063,-0.042l-0.063,-0.044l-0.062,-0.044l-0.061,-0.044l-0.061,-0.045l-0.06,-0.046l-0.06,-0.047l-0.059,-0.047l-0.058,-0.048l-0.057,-0.048l-0.057,-0.049l-0.057,-0.049l-0.014,-0.013l-0.041,-0.038l-0.054,-0.052l-0.053,-0.053l-0.053,-0.053l-0.052,-0.053l-0.051,-0.054l-0.05,-0.055l-0.05,-0.056l-0.048,-0.056l-0.048,-0.056l-0.048,-0.057l-0.046,-0.058l-0.045,-0.058l-0.045,-0.059l-0.044,-0.06l-0.043,-0.06l-0.042,-0.061l-0.041,-0.061l-0.04,-0.062l-0.04,-0.063l-0.038,-0.063l-0.038,-0.063l-0.037,-0.064l-0.035,-0.065l-0.035,-0.065l-0.034,-0.066l-0.033,-0.067l-0.032,-0.066l-0.031,-0.068l-0.03,-0.068l-0.028,-0.069l-0.028,-0.069l-0.027,-0.069l-0.017,-0.046l-0.009,-0.025l-0.024,-0.07l-0.023,-0.072l-0.022,-0.072l-0.022,-0.072l-0.02,-0.073l-0.019,-0.074l-0.017,-0.074l-0.017,-0.074l-0.016,-0.075l-0.014,-0.075l-0.014,-0.076l-0.012,-0.076l-0.011,-0.077l-0.011,-0.077l-0.009,-0.078l-0.008,-0.078l-0.006,-0.079l-0.006,-0.079l-0.004,-0.079l-0.004,-0.08l-0.002,-0.081l-0.001,-0.08l0,-0.082l0,0l0.002,-0.081l0.139,-0.156l0.156,0.139Z" style="fill:#fff;"/></g></g></svg>