<svg xmlns="http://www.w3.org/2000/svg" xmlns:serif="http://www.serif.com/" fill-rule="evenodd" stroke-linejoin="round" stroke-miterlimit="1" clip-rule="evenodd" version="1" viewBox="0 0 30 30"><path fill="none" stroke="#fff" stroke-width="2" d="M7.253,11.817c-0.06,-5.934 4.773,-10.867 10.706,-10.928c5.933,-0.06 10.865,4.774 10.925,10.708c0.061,5.934 -4.772,10.867 -10.705,10.928c-5.933,0.061 -10.865,-4.773 -10.926,-10.707"/><path fill="#fff" stroke="#fff" d="M1.245,28.231l8.909,-8.909l1.122,1.122l-8.909,8.909l-1.122,-1.122Z"/><path fill="#fff" fill-rule="nonzero" d="M12.949,6.272c0.489,-0.507 1.027,-0.96 1.604,-1.348c0.636,-0.428 1.317,-0.772 2.022,-1.023c0.758,-0.269 1.541,-0.433 2.316,-0.491c0.905,-0.074 1.799,0 2.636,0.132c-0.774,-0.348 -1.664,-0.603 -2.633,-0.687c-0.827,-0.074 -1.699,0 -2.572,0.195c-0.809,0.195 -1.603,0.518 -2.345,0.965c-0.729,0.433 -1.397,0.978 -1.984,1.603c-0.11,0.116 -0.216,0.232 -0.319,0.354c-0.461,0.54 -0.86,1.127 -1.193,1.745c-0.425,0.788 -0.74,1.617 -0.945,2.455c-0.221,0.899 -0.314,1.795 -0.297,2.657c0.021,0.966 0.178,1.872 0.431,2.688c-0.042,-0.851 -0.01,-1.744 0.122,-2.656c0.119,-0.81 0.317,-1.628 0.605,-2.433c0.267,-0.748 0.61,-1.48 1.03,-2.174c0.401,-0.664 0.869,-1.29 1.4,-1.858c0.043,-0.053 0.081,-0.084 0.121,-0.126l0.001,0.002Z"/><path fill="none" d="M17.228,6.324c-2.779,-0.062 -4.446,2.524 -5.54,8.227" serif:id="V 6"/><clipPath id="a"><path d="M17.228,6.324c-2.779,-0.062 -4.446,2.524 -5.54,8.227"/></clipPath><g clip-path="url(#a)"><path fill-rule="nonzero" d="M13.29,9.337c0.246,-0.513 0.527,-0.991 0.864,-1.426c0.219,-0.285 0.458,-0.539 0.721,-0.758c0.238,-0.196 0.493,-0.359 0.756,-0.486c0.259,-0.122 0.525,-0.211 0.786,-0.264c0.279,-0.058 0.555,-0.079 0.811,-0.079c-0.256,0 -0.533,-0.003 -0.818,0.052c-0.265,0.053 -0.538,0.122 -0.806,0.238c-0.272,0.122 -0.536,0.28 -0.784,0.481c-0.273,0.216 -0.522,0.475 -0.749,0.76c-0.38,0.481 -0.69,1.016 -0.954,1.586c-0.144,0.312 -0.272,0.629 -0.389,0.947c-0.553,1.497 -0.856,3.02 -1.04,4.163c0.241,-1.126 0.586,-2.648 1.144,-4.124c0.138,-0.365 0.288,-0.728 0.458,-1.081l0,-0.009Z" serif:id="V 6 OLD"/></g><path fill="#fff" d="M16.836,6.216l0.065,0.001l0.065,0.002l0.066,0.003l0.066,0.005l0.065,0.005l0.029,0.003l0.037,0.003l0.084,0.087l-0.087,0.084l-0.036,0.002l-0.028,0.002l-0.063,0.006l-0.063,0.006l-0.061,0.007l-0.062,0.008l-0.061,0.009l-0.06,0.01l-0.059,0.01l-0.059,0.012l-0.059,0.013l-0.058,0.013l-0.057,0.014l-0.057,0.016l-0.056,0.016l-0.056,0.017l-0.055,0.018l-0.039,0.013l-0.015,0.005l-0.055,0.019l-0.053,0.02l-0.053,0.021l-0.053,0.022l-0.052,0.023l-0.052,0.023l-0.051,0.025l-0.05,0.025l-0.051,0.026l-0.049,0.027l-0.049,0.028l-0.049,0.029l-0.048,0.03l-0.048,0.031l-0.048,0.031l-0.047,0.033l-0.046,0.033l-0.046,0.034l-0.046,0.036l-0.045,0.036l-0.045,0.037l-0.033,0.028l-0.011,0.01l-0.045,0.038l-0.044,0.039l-0.044,0.04l-0.043,0.041l-0.043,0.042l-0.043,0.043l-0.042,0.044l-0.042,0.045l-0.042,0.046l-0.041,0.047l-0.039,0.045l-0.002,0.003l-0.041,0.048l-0.041,0.049l-0.041,0.05l-0.04,0.052l-0.04,0.052l-0.039,0.053l-0.04,0.055l-0.039,0.055l-0.038,0.056l-0.039,0.058l-0.016,0.024l-0.022,0.034l-0.039,0.059l-0.039,0.06l-0.038,0.06l-0.038,0.063l-0.037,0.063l-0.037,0.064l-0.037,0.065l-0.037,0.066l-0.032,0.059l-0.005,0.009l-0.037,0.067l-0.038,0.069l-0.037,0.07l-0.037,0.071l-0.036,0.072l-0.036,0.072l-0.073,0.15l-0.006,0.014l-0.069,0.139l-0.074,0.156l-0.074,0.161l-0.073,0.166l-0.017,0.04l-0.058,0.128l-0.075,0.174l-0.075,0.178l-0.073,0.182l-0.047,0.119l-0.027,0.068l-0.075,0.191l-0.074,0.196l-0.073,0.2l-0.067,0.189l-0.006,0.016l-0.074,0.21l-0.073,0.214l-0.073,0.218l-0.059,0.184l-0.013,0.04l-0.074,0.227l-0.073,0.233l-0.072,0.237l-0.072,0.242l-0.071,0.246l-0.051,0.182l-0.02,0.07l-0.072,0.256l-0.071,0.26l-0.104,0.088l-0.064,-0.12l0.032,-0.27l0.034,-0.265l0.009,-0.073l0.026,-0.187l0.038,-0.256l0.038,-0.252l0.04,-0.248l0.041,-0.243l0.043,-0.239l0.008,-0.042l0.037,-0.193l0.047,-0.23l0.049,-0.226l0.049,-0.222l0.004,-0.017l0.049,-0.2l0.054,-0.213l0.055,-0.209l0.057,-0.204l0.021,-0.073l0.039,-0.127l0.062,-0.196l0.064,-0.191l0.064,-0.188l0.051,-0.14l0.017,-0.043l0.071,-0.178l0.073,-0.173l0.074,-0.17l0.069,-0.15l0.007,-0.015l0.081,-0.159l0.042,-0.078l0.041,-0.077l0.042,-0.076l0.042,-0.075l0.043,-0.074l0.043,-0.073l0.005,-0.009l0.039,-0.062l0.045,-0.07l0.045,-0.069l0.046,-0.068l0.046,-0.067l0.046,-0.065l0.047,-0.065l0.047,-0.064l0.047,-0.062l0.028,-0.036l0.02,-0.026l0.049,-0.059l0.049,-0.059l0.05,-0.058l0.05,-0.057l0.05,-0.055l0.05,-0.055l0.051,-0.053l0.052,-0.052l0.051,-0.052l0.052,-0.05l0.003,-0.003l0.05,-0.046l0.053,-0.047l0.053,-0.046l0.054,-0.046l0.054,-0.044l0.054,-0.043l0.055,-0.042l0.055,-0.041l0.055,-0.04l0.056,-0.038l0.056,-0.038l0.015,-0.009l0.042,-0.027l0.057,-0.035l0.057,-0.033l0.058,-0.033l0.058,-0.031l0.058,-0.03l0.058,-0.029l0.059,-0.028l0.059,-0.027l0.059,-0.026l0.06,-0.024l0.06,-0.024l0.06,-0.022l0.06,-0.021l0.061,-0.02l0.061,-0.019l0.061,-0.018l0.061,-0.017l0.062,-0.016l0.062,-0.014l0.062,-0.014l0.062,-0.012l0.018,-0.003l0.045,-0.008l0.062,-0.009l0.064,-0.009l0.063,-0.007l0.063,-0.007l0.064,-0.005l0.064,-0.004l0.064,-0.003l0.065,-0.002l0.064,-0.001l0.065,0Z"/><path fill="none" d="M17.38,7.003c-2.601,0.98 -3.623,4.281 -4.033,9.846" serif:id="V 5"/><clipPath id="b"><path d="M17.38,7.003c-2.601,0.98 -3.623,4.281 -4.033,9.846"/></clipPath><g clip-path="url(#b)"><path d="M14.274,11.27c0.134,-0.47 0.29,-0.93 0.479,-1.371c0.186,-0.434 0.399,-0.842 0.65,-1.215c0.256,-0.38 0.543,-0.712 0.86,-0.987c0.357,-0.312 0.741,-0.538 1.117,-0.694c-0.385,0.132 -0.786,0.338 -1.163,0.638c-0.335,0.264 -0.64,0.593 -0.913,0.975c-0.266,0.375 -0.492,0.783 -0.688,1.223c-0.198,0.444 -0.36,0.912 -0.496,1.389c-0.015,0.052 -0.031,0.105 -0.042,0.158c-0.256,0.941 -0.408,1.893 -0.513,2.793c-0.057,0.486 -0.099,0.965 -0.133,1.409c-0.032,0.433 -0.062,0.894 -0.085,1.261c0.054,-0.412 0.097,-0.778 0.155,-1.254c0.053,-0.439 0.113,-0.918 0.183,-1.4c0.136,-0.945 0.311,-1.944 0.59,-2.924l0.001,-0.002l-0.002,0.001Z" serif:id="V 5 OLD"/></g><path fill="#fff" d="M17.541,6.941l-0.099,0.223l-0.031,0.016l-0.027,0.012l-0.055,0.028l-0.055,0.029l-0.054,0.03l-0.053,0.03l-0.053,0.031l-0.052,0.031l-0.051,0.033l-0.051,0.033l-0.05,0.034l-0.049,0.034l-0.049,0.035l-0.048,0.036l-0.048,0.037l-0.046,0.037l-0.046,0.039l-0.046,0.038l-0.037,0.033l-0.008,0.007l-0.045,0.04l-0.044,0.04l-0.043,0.041l-0.043,0.042l-0.042,0.043l-0.042,0.043l-0.041,0.044l-0.041,0.045l-0.04,0.046l-0.04,0.046l-0.039,0.047l-0.038,0.048l-0.039,0.049l-0.037,0.049l-0.037,0.05l-0.037,0.051l-0.036,0.052l-0.035,0.052l-0.035,0.053l-0.035,0.054l-0.034,0.055l-0.018,0.03l-0.016,0.025l-0.033,0.056l-0.034,0.057l-0.033,0.057l-0.032,0.059l-0.032,0.059l-0.032,0.059l-0.031,0.061l-0.03,0.062l-0.03,0.062l-0.03,0.063l-0.008,0.017l-0.022,0.047l-0.03,0.064l-0.029,0.065l-0.028,0.065l-0.057,0.136l-0.055,0.138l-0.053,0.141l-0.009,0.024l-0.045,0.12l-0.052,0.147l-0.051,0.151l-0.049,0.154l-0.036,0.118l-0.012,0.04l-0.05,0.16l-0.048,0.163l-0.047,0.167l-0.037,0.141l-0.009,0.03l-0.048,0.173l-0.038,0.143l-0.009,0.033l-0.049,0.18l-0.043,0.168l-0.004,0.015l-0.049,0.186l-0.048,0.19l-0.046,0.194l-0.046,0.197l-0.013,0.058l-0.033,0.142l-0.047,0.204l-0.045,0.208l-0.045,0.211l-0.026,0.128l-0.018,0.086l-0.045,0.219l-0.044,0.221l-0.043,0.225l-0.023,0.129l-0.02,0.1l-0.043,0.232l-0.042,0.236l-0.042,0.239l-0.041,0.243l-0.041,0.247l-0.025,0.157l-0.015,0.093l-0.041,0.253l-0.035,0.222l-0.005,0.035l-0.186,0.162l-0.159,-0.188l-0.001,-0.035l-0.001,-0.226l0.001,-0.259l0,-0.094l0.003,-0.161l0.004,-0.252l0.006,-0.249l0.007,-0.246l0.009,-0.243l0.009,-0.24l0.005,-0.103l0.008,-0.133l0.014,-0.234l0.016,-0.23l0.017,-0.227l0.008,-0.091l0.012,-0.133l0.023,-0.221l0.023,-0.218l0.025,-0.214l0.019,-0.151l0.009,-0.061l0.031,-0.208l0.032,-0.205l0.034,-0.202l0.036,-0.199l0.003,-0.016l0.037,-0.179l0.041,-0.193l0.009,-0.036l0.037,-0.152l0.048,-0.186l0.008,-0.032l0.044,-0.149l0.055,-0.178l0.056,-0.175l0.058,-0.171l0.015,-0.043l0.047,-0.125l0.064,-0.164l0.067,-0.161l0.067,-0.157l0.059,-0.129l0.011,-0.025l0.074,-0.15l0.075,-0.147l0.076,-0.142l0.04,-0.072l0.04,-0.069l0.04,-0.069l0.029,-0.049l0.011,-0.019l0.042,-0.066l0.042,-0.066l0.043,-0.065l0.043,-0.064l0.043,-0.063l0.044,-0.062l0.044,-0.061l0.045,-0.061l0.046,-0.059l0.046,-0.059l0.021,-0.027l0.025,-0.031l0.048,-0.056l0.048,-0.055l0.048,-0.055l0.049,-0.054l0.049,-0.052l0.05,-0.052l0.05,-0.051l0.051,-0.05l0.051,-0.049l0.052,-0.048l0.052,-0.047l0.052,-0.046l0.053,-0.046l0.054,-0.044l0.054,-0.043l0.054,-0.043l0.055,-0.041l0.056,-0.041l0.056,-0.039l0.056,-0.039l0.057,-0.037l0.01,-0.007l0.047,-0.029l0.058,-0.036l0.059,-0.034l0.059,-0.033l0.059,-0.032l0.06,-0.031l0.061,-0.03l0.06,-0.03l0.061,-0.028l0.062,-0.027l0.062,-0.027l0.063,-0.025l0.063,-0.024l0.063,-0.023l0.064,-0.023l0.064,-0.021l0.065,-0.021l0.029,-0.008l0.034,-0.011l0.224,0.1Z"/><path fill="none" d="M18.09,7.632c-1.222,1.677 -2.071,5.611 -2.352,10.451" serif:id="V 4"/><clipPath id="c"><path d="M18.09,7.632c-1.222,1.677 -2.071,5.611 -2.352,10.451"/></clipPath><g clip-path="url(#c)"><path d="M16.468,12.652c0.011,-0.069 0.026,-0.138 0.037,-0.206c0.187,-0.98 0.393,-1.881 0.668,-2.753c0.129,-0.412 0.266,-0.788 0.423,-1.146c0.151,-0.343 0.308,-0.644 0.494,-0.916c-0.209,0.254 -0.394,0.545 -0.568,0.881c-0.181,0.348 -0.341,0.725 -0.489,1.134c-0.313,0.863 -0.545,1.78 -0.736,2.76c-0.026,0.121 -0.047,0.243 -0.068,0.364c-0.161,0.891 -0.276,1.772 -0.355,2.617c-0.095,1.009 -0.135,1.912 -0.136,2.696c0.075,-0.794 0.167,-1.663 0.3,-2.678c0.117,-0.892 0.254,-1.814 0.429,-2.755l0.001,0.002Z" serif:id="V 4 OLD"/></g><path fill="#fff" d="M18.25,7.745l-0.019,0.031l-0.03,0.052l-0.048,0.084l-0.046,0.087l-0.046,0.091l-0.045,0.093l-0.044,0.097l-0.044,0.1l-0.043,0.103l-0.042,0.106l-0.041,0.109l-0.003,0.007l-0.039,0.104l-0.041,0.115l-0.04,0.117l-0.04,0.12l-0.039,0.123l-0.038,0.126l-0.037,0.129l-0.036,0.132l-0.036,0.134l-0.035,0.137l-0.013,0.051l-0.022,0.088l-0.035,0.141l-0.035,0.145l-0.033,0.147l-0.033,0.149l-0.008,0.039l-0.025,0.113l-0.033,0.154l-0.033,0.156l-0.031,0.159l-0.027,0.139l-0.004,0.022l-0.033,0.163l-0.032,0.166l-0.031,0.167l-0.03,0.171l-0.004,0.022l-0.028,0.149l-0.033,0.174l-0.031,0.177l-0.031,0.178l0,0l-0.036,0.18l-0.035,0.181l-0.034,0.184l-0.032,0.181l-0.002,0.005l-0.037,0.188l-0.036,0.189l-0.036,0.192l-0.035,0.194l-0.011,0.062l-0.026,0.133l-0.037,0.197l-0.036,0.2l-0.035,0.201l-0.024,0.143l-0.011,0.06l-0.036,0.204l-0.036,0.207l-0.034,0.208l-0.029,0.178l-0.005,0.032l-0.036,0.212l-0.034,0.213l-0.034,0.215l-0.033,0.217l-0.033,0.218l-0.032,0.22l-0.012,0.085l-0.02,0.136l-0.032,0.223l-0.031,0.225l-0.208,0.201l-0.182,-0.225l-0.004,-0.227l-0.004,-0.227l-0.001,-0.139l0,-0.087l0,-0.224l0.001,-0.223l0.002,-0.222l0.004,-0.22l0.004,-0.219l0.004,-0.217l0.001,-0.033l0.007,-0.183l0.009,-0.214l0.009,-0.213l0.011,-0.211l0.003,-0.061l0.009,-0.148l0.014,-0.208l0.015,-0.206l0.016,-0.204l0.012,-0.138l0.006,-0.064l0.02,-0.201l0.022,-0.198l0.022,-0.197l0.023,-0.195l0,-0.005l0.027,-0.187l0.029,-0.191l0.03,-0.188l0.03,-0.186l0,0l0.036,-0.184l0.038,-0.181l0.037,-0.179l0.034,-0.154l0.006,-0.023l0.042,-0.174l0.044,-0.171l0.044,-0.17l0.044,-0.167l0.006,-0.022l0.042,-0.142l0.048,-0.162l0.049,-0.159l0.049,-0.157l0.037,-0.114l0.014,-0.04l0.052,-0.151l0.053,-0.149l0.053,-0.146l0.054,-0.143l0.035,-0.089l0.02,-0.052l0.057,-0.137l0.057,-0.135l0.058,-0.132l0.058,-0.129l0.058,-0.127l0.059,-0.123l0.06,-0.121l0.06,-0.118l0.06,-0.114l0.057,-0.105l0.004,-0.007l0.063,-0.108l0.063,-0.106l0.063,-0.102l0.064,-0.099l0.064,-0.096l0.064,-0.092l0.065,-0.09l0.066,-0.086l0.065,-0.083l0.041,-0.049l0.024,-0.029l0.273,-0.046l0.046,0.273Z"/><path fill="none" d="M19.214,7.912l-0.441,10.677" serif:id="V 3"/><clipPath id="d"><path d="M19.214,7.912l-0.441,10.677"/></clipPath><g clip-path="url(#d)"><path d="M19.099,13.176c0.08,-1.96 0.121,-3.84 0.115,-5.264c-0.127,1.458 -0.244,3.399 -0.326,5.414c-0.08,1.959 -0.12,3.839 -0.115,5.263l0.326,-5.413Z" serif:id="V 3 OLD"/></g><path fill="#fff" d="M19.42,7.92l0.002,0.035l0.05,1.057l0.05,1.371l0.017,0.737l0.008,0.743l-0.004,0.728l-0.019,0.692l-0.045,0.74l-0.071,0.841l-0.089,0.883l-0.095,0.861l-0.17,1.409l-0.07,0.546l-0.004,0.035l-0.215,0.2l-0.198,-0.218l-0.001,-0.034l-0.025,-0.55l-0.054,-1.419l-0.023,-0.865l-0.016,-0.887l-0.002,-0.845l0.017,-0.74l0.038,-0.692l0.056,-0.726l0.069,-0.74l0.078,-0.733l0.163,-1.362l0.136,-1.049l0.005,-0.035l0.214,-0.197l0.198,0.214Z"/><path fill="none" d="M20.45,7.759c1.52,3.732 1.481,5.908 1.391,10.431" serif:id="V 2"/><clipPath id="e"><path d="M20.45,7.759c1.52,3.732 1.481,5.908 1.391,10.431"/></clipPath><g clip-path="url(#e)"><path d="M21.855,12.795c-0.066,-0.603 -0.163,-1.194 -0.29,-1.769c-0.284,-1.281 -0.695,-2.384 -1.115,-3.267c0.337,0.922 0.682,2.028 0.932,3.305c0.122,0.623 0.215,1.259 0.281,1.91c0.032,0.322 0.059,0.643 0.079,0.963c0.053,0.827 0.057,1.652 0.058,2.402c0,0.359 -0.001,0.672 0.004,1c0.004,0.307 0.015,0.58 0.037,0.851c0.003,-0.274 0.015,-0.543 0.031,-0.849c0.016,-0.317 0.037,-0.651 0.056,-0.999c0.037,-0.753 0.056,-1.577 0.016,-2.415l0,-0.001c-0.016,-0.375 -0.048,-0.753 -0.089,-1.131l0,0Z" serif:id="V 2 OLD"/></g><path fill="#fff" d="M20.629,7.687l0.015,0.029l0.071,0.139l0.084,0.167l0.081,0.165l0.079,0.164l0.077,0.162l0.074,0.159l0.001,0.001l0.07,0.16l0.069,0.158l0.066,0.157l0.065,0.156l0.062,0.155l0.06,0.154l0.059,0.154l0.056,0.152l0.014,0.038l0.04,0.114l0.05,0.151l0.049,0.151l0.048,0.15l0.045,0.149l0.042,0.151l0.041,0.15l0.038,0.149l0.037,0.149l0.033,0.137l0.003,0.013l0.032,0.149l0.03,0.15l0.029,0.149l0.027,0.15l0.021,0.122l0.005,0.028l0.021,0.151l0.02,0.151l0.019,0.152l0.018,0.152l0.008,0.069l0.007,0.084l0.011,0.153l0.009,0.122l0.002,0.032l0.007,0.156l0.006,0.156l0.001,0.05l0.002,0.107l0.001,0.158l0.001,0.159l-0.001,0.16l-0.002,0.162l-0.001,0.109l-0.002,0.054l-0.006,0.164l-0.006,0.167l-0.016,0.336l-0.009,0.17l-0.011,0.174l-0.025,0.352l-0.026,0.338l-0.002,0.023l-0.034,0.371l-0.036,0.38l-0.038,0.392l-0.024,0.242l-0.059,0.546l-0.003,0.033l-0.197,0.192l-0.19,-0.2l-0.002,-0.032l-0.037,-0.548l-0.015,-0.242l-0.024,-0.392l-0.025,-0.38l-0.025,-0.369l-0.002,-0.022l-0.021,-0.335l-0.023,-0.348l-0.013,-0.171l-0.011,-0.167l-0.024,-0.329l-0.012,-0.161l-0.014,-0.16l-0.004,-0.052l-0.008,-0.105l-0.012,-0.156l-0.013,-0.155l-0.014,-0.152l-0.015,-0.151l-0.01,-0.102l-0.004,-0.048l-0.014,-0.149l-0.015,-0.147l-0.003,-0.03l-0.011,-0.116l-0.014,-0.146l-0.008,-0.079l-0.005,-0.065l-0.013,-0.144l-0.014,-0.144l-0.015,-0.142l-0.017,-0.143l-0.003,-0.026l-0.011,-0.116l-0.016,-0.142l-0.017,-0.143l-0.018,-0.142l-0.02,-0.142l-0.001,-0.012l-0.017,-0.131l-0.02,-0.143l-0.022,-0.144l-0.023,-0.145l-0.025,-0.145l0,-0.001l-0.024,-0.145l-0.026,-0.147l-0.027,-0.148l-0.029,-0.149l-0.024,-0.113l-0.007,-0.038l-0.03,-0.152l-0.033,-0.154l-0.034,-0.155l-0.036,-0.157l-0.038,-0.159l-0.039,-0.16l-0.042,-0.163l-0.044,-0.164l0,-0.001l-0.044,-0.166l-0.045,-0.169l-0.048,-0.171l-0.05,-0.174l-0.052,-0.177l-0.045,-0.148l-0.009,-0.031l0.107,-0.251l0.251,0.107Z"/><path fill="none" d="M21.373,7.153c2.258,1.929 3.477,5.187 2.834,9.89" serif:id="V 1"/><clipPath id="f"><path d="M21.373,7.153c2.258,1.929 3.477,5.187 2.834,9.89"/></clipPath><g clip-path="url(#f)"><path d="M24.119,11.608c-0.016,-0.063 -0.032,-0.132 -0.048,-0.195c-0.23,-0.86 -0.57,-1.656 -1.009,-2.361c-0.507,-0.812 -1.111,-1.439 -1.689,-1.899c0.544,0.502 1.108,1.149 1.583,1.963c0.412,0.706 0.732,1.492 0.957,2.339c0.032,0.116 0.059,0.227 0.086,0.343c0.179,0.777 0.272,1.559 0.309,2.319c0.052,1.087 -0.016,2.098 -0.101,2.927c0.146,-0.822 0.26,-1.831 0.235,-2.932c-0.016,-0.819 -0.113,-1.667 -0.32,-2.507l-0.003,0.003Z" serif:id="V 1 OLD"/></g><path fill="#fff" d="M21.503,7.054l0.086,0.065l0.113,0.087l0.111,0.09l0.111,0.093l0.108,0.094l0.108,0.097l0.106,0.099l0.085,0.083l0.019,0.019l0.102,0.104l0.1,0.107l0.099,0.109l0.098,0.111l0.096,0.114l0.094,0.115l0.093,0.118l0.091,0.121l0.089,0.123l0.035,0.05l0.051,0.075l0.085,0.128l0.082,0.13l0.081,0.133l0.079,0.135l0.03,0.053l0.046,0.084l0.073,0.14l0.072,0.142l0.07,0.145l0.067,0.146l0.018,0.041l0.047,0.109l0.061,0.152l0.06,0.153l0.057,0.156l0.05,0.143l0.005,0.016l0.05,0.161l0.048,0.163l0.046,0.165l0.043,0.168l0.006,0.024l0.032,0.146l0.036,0.172l0.008,0.043l0.023,0.131l0.029,0.176l0.013,0.092l0.012,0.087l0.021,0.18l0.018,0.182l0.016,0.184l0.014,0.186l0.003,0.054l0.006,0.134l0.006,0.19l0.004,0.192l0.001,0.193l-0.002,0.195l0,0.01l-0.006,0.187l-0.008,0.198l-0.012,0.201l-0.013,0.202l-0.009,0.099l-0.009,0.104l-0.021,0.206l-0.024,0.207l-0.026,0.209l-0.03,0.211l-0.032,0.212l-0.035,0.214l-0.012,0.07l-0.026,0.146l-0.042,0.217l-0.038,0.186l-0.007,0.032l-0.177,0.139l-0.136,-0.18l0.002,-0.033l0.011,-0.187l0.01,-0.217l0.005,-0.145l0.003,-0.07l0.007,-0.212l0.004,-0.209l0.001,-0.207l-0.001,-0.205l-0.003,-0.202l-0.006,-0.2l-0.004,-0.101l-0.004,-0.096l-0.008,-0.194l-0.012,-0.193l-0.013,-0.189l-0.015,-0.178l-0.001,-0.01l-0.017,-0.185l-0.018,-0.183l-0.022,-0.18l-0.023,-0.178l-0.018,-0.126l-0.007,-0.049l-0.025,-0.174l-0.028,-0.171l-0.029,-0.169l-0.032,-0.166l-0.017,-0.08l-0.016,-0.085l-0.034,-0.162l-0.026,-0.12l-0.009,-0.04l-0.035,-0.159l-0.032,-0.134l-0.005,-0.023l-0.037,-0.155l-0.039,-0.153l-0.04,-0.151l-0.043,-0.149l-0.004,-0.015l-0.038,-0.133l-0.044,-0.146l-0.046,-0.144l-0.048,-0.142l-0.037,-0.102l-0.013,-0.039l-0.05,-0.139l-0.052,-0.137l-0.054,-0.136l-0.056,-0.134l-0.036,-0.08l-0.022,-0.052l-0.059,-0.131l-0.06,-0.129l-0.063,-0.128l-0.064,-0.126l-0.04,-0.073l-0.026,-0.051l-0.068,-0.123l-0.069,-0.122l-0.071,-0.119l-0.073,-0.119l-0.074,-0.116l-0.077,-0.115l-0.079,-0.113l-0.08,-0.111l-0.083,-0.11l-0.015,-0.019l-0.068,-0.09l-0.086,-0.107l-0.087,-0.105l-0.088,-0.104l-0.091,-0.102l-0.093,-0.101l-0.094,-0.099l-0.074,-0.075l-0.023,-0.023l-0.016,-0.222l0.222,-0.016l0.027,0.02Z"/><path fill="#fff" d="M21.425,6.225l0.022,0.002l0.07,0.007l0.07,0.008l0.07,0.01l0.069,0.01l0.068,0.011l0.068,0.013l0.068,0.013l0.067,0.015l0.067,0.016l0.067,0.016l0.066,0.018l0.066,0.019l0.065,0.02l0.065,0.021l0.061,0.02l0.004,0.001l0.064,0.024l0.064,0.024l0.063,0.026l0.063,0.026l0.062,0.027l0.062,0.029l0.061,0.029l0.061,0.031l0.06,0.031l0.061,0.033l0.059,0.034l0.059,0.034l0.059,0.036l0.058,0.036l0.058,0.038l0.057,0.038l0.057,0.04l0.056,0.041l0.056,0.041l0.055,0.043l0.021,0.016l0.034,0.028l0.054,0.045l0.053,0.046l0.053,0.047l0.052,0.048l0.052,0.048l0.052,0.05l0.051,0.051l0.05,0.052l0.05,0.052l0.049,0.054l0.049,0.054l0.048,0.055l0.048,0.057l0.047,0.057l0.047,0.058l0.046,0.059l0.045,0.06l0.045,0.061l0.045,0.061l0.044,0.063l0.007,0.011l0.036,0.053l0.042,0.065l0.042,0.065l0.041,0.067l0.041,0.067l0.04,0.068l0.039,0.069l0.039,0.07l0.039,0.071l0.022,0.042l0.015,0.03l0.037,0.072l0.036,0.074l0.035,0.075l0.035,0.075l0.034,0.076l0.034,0.077l0.033,0.077l0.033,0.079l0.002,0.004l0.029,0.075l0.03,0.081l0.029,0.081l0.029,0.082l0.029,0.083l0.028,0.084l0.027,0.085l0.042,0.136l0.01,0.034l0.049,0.175l0.046,0.177l0.044,0.181l0.041,0.183l0.015,0.072l0.023,0.114l0.035,0.19l0.033,0.192l0.03,0.195l0.028,0.198l0.026,0.2l0.023,0.203l0.021,0.206l0.019,0.208l0.002,0.019l0.013,0.193l0.012,0.214l0.01,0.216l0.008,0.219l0.005,0.222l0.003,0.224l0.001,0.227l-0.002,0.229l-0.004,0.232l-0.1,0.116l-0.107,-0.111l-0.016,-0.229l-0.019,-0.227l-0.02,-0.223l-0.023,-0.22l-0.025,-0.217l-0.026,-0.214l-0.029,-0.211l-0.03,-0.208l-0.03,-0.187l-0.003,-0.018l-0.032,-0.202l-0.035,-0.199l-0.036,-0.196l-0.039,-0.193l-0.04,-0.189l-0.043,-0.187l-0.044,-0.183l-0.046,-0.179l-0.03,-0.109l-0.018,-0.068l-0.048,-0.174l-0.05,-0.17l-0.052,-0.167l-0.054,-0.164l-0.011,-0.032l-0.043,-0.129l-0.027,-0.079l-0.028,-0.078l-0.029,-0.078l-0.029,-0.077l-0.029,-0.076l-0.03,-0.075l-0.029,-0.07l-0.001,-0.004l-0.03,-0.074l-0.03,-0.073l-0.03,-0.073l-0.031,-0.071l-0.032,-0.071l-0.032,-0.07l-0.032,-0.069l-0.033,-0.068l-0.014,-0.027l-0.019,-0.04l-0.033,-0.067l-0.033,-0.066l-0.034,-0.065l-0.035,-0.065l-0.035,-0.063l-0.035,-0.063l-0.036,-0.062l-0.037,-0.061l-0.031,-0.05l-0.006,-0.01l-0.036,-0.06l-0.038,-0.059l-0.037,-0.058l-0.038,-0.058l-0.039,-0.056l-0.039,-0.056l-0.04,-0.055l-0.04,-0.054l-0.041,-0.053l-0.041,-0.053l-0.042,-0.051l-0.042,-0.051l-0.043,-0.05l-0.043,-0.049l-0.044,-0.048l-0.044,-0.047l-0.044,-0.046l-0.046,-0.046l-0.045,-0.045l-0.047,-0.044l-0.028,-0.026l-0.018,-0.017l-0.047,-0.043l-0.047,-0.042l-0.048,-0.041l-0.048,-0.04l-0.049,-0.039l-0.05,-0.039l-0.05,-0.038l-0.05,-0.037l-0.051,-0.036l-0.052,-0.035l-0.052,-0.034l-0.053,-0.033l-0.053,-0.033l-0.054,-0.032l-0.054,-0.031l-0.055,-0.03l-0.055,-0.029l-0.056,-0.028l-0.057,-0.027l-0.057,-0.027l-0.004,-0.002l-0.053,-0.024l-0.059,-0.025l-0.058,-0.024l-0.06,-0.023l-0.059,-0.023l-0.061,-0.021l-0.061,-0.021l-0.062,-0.02l-0.062,-0.019l-0.063,-0.017l-0.063,-0.017l-0.064,-0.016l-0.065,-0.016l-0.065,-0.014l-0.066,-0.013l-0.022,-0.004l-0.045,-0.009l-0.089,-0.116l0.117,-0.089l0.047,0.004Z" serif:id="V 0"/><path fill="#fff" d="M17.812,6.116l0.009,-0.011l-0.016,0.029l-0.015,0.029l0.009,-0.012l-0.013,0.028l-0.011,0.028l0.009,-0.015l-0.01,0.027l-0.008,0.027l0.008,-0.016l-0.006,0.026l-0.006,0.026l0.008,-0.019l-0.004,0.026l-0.002,0.025l0.005,-0.02l0,0.021l-0.001,0.004l-0.001,0.024l0.005,-0.022l0,0.025l0.002,0.024l0.002,-0.023l0.003,0.025l0.004,0.024l-0.001,-0.023l0.006,0.024l0.006,0.025l-0.002,-0.022l0.008,0.024l0.009,0.025l-0.004,-0.021l0.01,0.025l0.012,0.025l-0.006,-0.02l0.013,0.026l0.015,0.026l-0.007,-0.018l0.016,0.027l0.018,0.026l-0.008,-0.017l0.02,0.028l0.021,0.027l-0.009,-0.015l0.023,0.028l0.019,0.022l0.022,0.023l0.016,0.017l0.016,0.015l0.038,0.036l0.037,0.031l0.038,0.03l0.039,0.028l0.04,0.027l0.042,0.026l0.042,0.024l0.029,0.015l0.015,0.008l0.043,0.023l0.045,0.022l0.047,0.02l0.047,0.02l0.048,0.018l0.05,0.016l0.05,0.015l0.052,0.014l0.052,0.013l0.015,0.003l0.038,0.01l0.053,0.013l0.055,0.012l0.055,0.01l0.055,0.009l0.056,0.007l0.057,0.006l0.057,0.005l0.058,0.003l0.01,0l0.047,0.005l0.058,0.003l0.058,0.003l0.058,0.001l0.04,0l0.018,0.001l0.058,0.001l0.058,-0.001l0.058,-0.002l0.057,-0.003l0.038,-0.003l0.019,-0.001l0.057,-0.004l0.057,-0.004l0.056,-0.007l0.055,-0.007l0.054,-0.009l0.054,-0.01l0.052,-0.011l0.052,-0.012l0.05,-0.013l0.049,-0.015l0.048,-0.015l0.001,-0.001l0.046,-0.014l0.045,-0.016l0.044,-0.016l0.043,-0.018l0.041,-0.019l0.039,-0.019l0.038,-0.02l0.036,-0.021l0.034,-0.021l0.032,-0.022l0.03,-0.023l0.036,-0.031l-0.014,0.017l0.034,-0.033l0.014,-0.015l0.018,-0.018l-0.013,0.019l0.031,-0.034l0.029,-0.035l-0.032,0.068l0.015,-0.025l0.013,-0.025l-0.004,0.011l0.013,-0.025l0.012,-0.025l-0.004,0.012l0.011,-0.025l0.01,-0.024l-0.002,0.012l0.009,-0.025l0.008,-0.024l-0.002,0.012l0.008,-0.024l0.007,-0.024l-0.002,0.013l0.006,-0.024l0.006,-0.024l-0.001,0.013l0.005,-0.024l0.003,-0.024l0.001,0.013l0.002,-0.024l0.002,-0.024l0.002,0.013l0.001,-0.024l0,-0.024l0.002,0.013l0,-0.024l-0.002,-0.025l0.004,0.013l-0.003,-0.024l0,-0.001l-0.002,-0.025l0.004,0.012l-0.004,-0.025l-0.004,-0.025l0.004,0.011l-0.005,-0.026l-0.007,-0.026l0.005,0.01l-0.007,-0.026l-0.009,-0.026l0.005,0.009l-0.009,-0.027l-0.01,-0.026l0.005,0.008l-0.012,-0.027l-0.012,-0.028l0.005,0.008l-0.014,-0.028l-0.015,-0.028l0.005,0.006l-0.016,-0.028l-0.014,-0.025l-0.016,-0.026l-0.018,-0.027l-0.018,-0.026l-0.02,-0.028l-0.021,-0.027l-0.023,-0.028l-0.024,-0.028l-0.025,-0.028l-0.026,-0.029l-0.028,-0.029l-0.029,-0.029l-0.031,-0.03l-0.032,-0.029l-0.033,-0.03l-0.071,-0.061l-0.077,-0.061l-0.022,-0.017l-0.059,-0.046l-0.087,-0.064l-0.093,-0.064l-0.098,-0.065l-0.078,-0.049l-0.026,-0.017l-0.047,-0.103l0.106,-0.039l0.03,0.006l0.092,0.022l0.119,0.03l0.114,0.032l0.11,0.033l0.076,0.026l0.03,0.01l0.101,0.039l0.096,0.041l0.047,0.021l0.046,0.022l0.045,0.022l0.044,0.023l0.043,0.023l0.042,0.024l0.041,0.024l0.04,0.025l0.039,0.026l0.038,0.026l0.037,0.027l0.036,0.028l0.035,0.028l0.035,0.029l0.033,0.03l0.032,0.03l0.031,0.031l0.03,0.032l0.03,0.032l0.028,0.034l0.026,0.034l0.026,0.035l0.025,0.036l0.023,0.036l0.022,0.037l0.021,0.038l0.02,0.039l0.018,0.039l0.017,0.04l0.015,0.041l0.014,0.041l0.012,0.042l0.011,0.042l0.009,0.043l0.008,0.043l0.007,0.043l0.005,0.044l0.004,0.044l0.002,0.044l0.001,0.044l-0.001,0.044l-0.001,0.044l-0.004,0.045l-0.004,0.044l-0.005,0.044l-0.007,0.045l-0.008,0.044l-0.009,0.044l-0.011,0.044l-0.022,0.075l-0.046,0.096l-0.037,0.072l-0.022,0.038l-0.019,0.032l-0.044,0.067l-0.048,0.066l-0.05,0.063l-0.053,0.061l-0.055,0.059l-0.058,0.057l-0.06,0.055l-0.062,0.053l-0.064,0.051l-0.066,0.049l-0.068,0.048l-0.069,0.045l-0.07,0.042l-0.001,0.001l-0.074,0.04l-0.075,0.037l-0.076,0.036l-0.077,0.034l-0.079,0.032l-0.08,0.03l-0.081,0.028l-0.082,0.026l-0.083,0.025l-0.083,0.022l-0.085,0.021l-0.028,0.006l-0.058,0.011l-0.087,0.014l-0.087,0.013l-0.087,0.01l-0.089,0.008l-0.027,0.002l-0.061,0.003l-0.089,0.002l-0.09,0l-0.089,-0.003l-0.074,-0.003l-0.016,-0.002l-0.089,-0.01l-0.089,-0.012l-0.089,-0.014l-0.089,-0.017l-0.088,-0.019l-0.088,-0.022l-0.087,-0.023l-0.087,-0.027l-0.063,-0.02l-0.024,-0.009l-0.084,-0.034l-0.084,-0.036l-0.082,-0.039l-0.082,-0.042l-0.08,-0.044l-0.079,-0.047l-0.078,-0.049l-0.076,-0.053l-0.074,-0.055l-0.025,-0.02l-0.047,-0.038l-0.069,-0.063l-0.067,-0.065l-0.064,-0.067l-0.062,-0.071l-0.059,-0.073l-0.057,-0.075l-0.052,-0.076l-0.027,-0.042l-0.025,-0.042l-0.031,-0.054l-0.028,-0.052l-0.002,-0.003l-0.027,-0.056l-0.024,-0.057l-0.023,-0.057l-0.02,-0.057l-0.019,-0.058l-0.016,-0.058l-0.013,-0.058l-0.011,-0.059l-0.009,-0.058l-0.006,-0.059l-0.003,-0.059l-0.001,-0.059l0.002,-0.059l0.005,-0.058l0.008,-0.058l0.011,-0.057l0.013,-0.056l0.016,-0.055l0.003,-0.009l0.017,-0.045l0.022,-0.052l0.024,-0.051l0.027,-0.049l0.029,-0.048l0.031,-0.046l0.033,-0.045l0.034,-0.043l0.037,-0.041l0.038,-0.04l0.04,-0.038l0.041,-0.037l0.042,-0.035l0.044,-0.033l0.046,-0.033l0.046,-0.03l0.048,-0.03l0.049,-0.028l0.05,-0.027l0.052,-0.026l0.052,-0.025l0.054,-0.024l0.055,-0.022l0.056,-0.022l0.058,-0.02l0.058,-0.02l0.06,-0.018l0.061,-0.018l0.063,-0.016l0.004,-0.002l0.059,-0.013l0.065,-0.014l0.067,-0.012l0.067,-0.012l0.069,-0.011l0.069,-0.01l0.071,-0.008l0.073,-0.008l0.073,-0.008l0.075,-0.006l0.075,-0.005l0.077,-0.005l0.078,-0.003l0.08,-0.003l0.048,-0.001l0.032,0l0.09,0.061l-0.062,0.09l-0.029,0.011l-0.045,0.017l-0.072,0.028l-0.07,0.028l-0.069,0.028l-0.066,0.028l-0.065,0.029l-0.064,0.029l-0.061,0.03l-0.06,0.029l-0.057,0.03l-0.056,0.03l-0.054,0.03l-0.052,0.03l-0.051,0.03l-0.044,0.028l-0.004,0.002l-0.047,0.029l-0.045,0.03l-0.043,0.029l-0.041,0.029l-0.039,0.03l-0.037,0.029l-0.036,0.029l-0.033,0.029l-0.031,0.028l-0.029,0.029l-0.028,0.028l-0.025,0.028l-0.023,0.027l-0.022,0.027l-0.019,0.026l-0.022,0.03l0.009,-0.009l-0.02,0.03l-0.018,0.029Z" serif:id="H 5"/><path fill="#fff" d="M16.363,5.754l-0.016,0.074l-0.028,0.022l-0.01,0.008l-0.037,0.029l-0.036,0.031l-0.035,0.03l-0.033,0.031l-0.033,0.031l-0.031,0.032l-0.03,0.032l-0.029,0.033l-0.028,0.032l-0.026,0.034l-0.026,0.033l-0.024,0.034l-0.023,0.034l-0.023,0.034l-0.021,0.034l-0.02,0.035l-0.019,0.035l-0.018,0.035l-0.017,0.036l-0.016,0.035l-0.015,0.036l-0.014,0.036l-0.013,0.036l-0.011,0.036l-0.011,0.037l-0.01,0.036l-0.009,0.037l-0.008,0.037l-0.007,0.037l-0.006,0.037l-0.005,0.037l-0.004,0.037l-0.003,0.037l-0.003,0.038l0,0.002l-0.001,0.035l-0.001,0.037l0,0.038l0.001,0.037l0.002,0.038l0.003,0.038l0.004,0.037l0.005,0.038l0.005,0.038l0.007,0.038l0.007,0.037l0.008,0.038l0.009,0.038l0.011,0.038l0.01,0.037l0.012,0.038l0.013,0.038l0.014,0.037l0.014,0.038l0.015,0.037l0.017,0.038l0.017,0.037l0.018,0.037l0.018,0.037l0.02,0.037l0.021,0.036l0.021,0.037l0.022,0.036l0.024,0.037l0.024,0.036l0.024,0.036l0.026,0.035l0.027,0.036l0.027,0.035l0.028,0.035l0.03,0.035l0.03,0.034l0.03,0.034l0.032,0.034l0.033,0.034l0.033,0.033l0.023,0.022l0.011,0.011l0.035,0.033l0.035,0.033l0.037,0.033l0.037,0.032l0.038,0.031l0.039,0.032l0.039,0.031l0.041,0.03l0.041,0.031l0.043,0.029l0.043,0.03l0.043,0.029l0.045,0.028l0.046,0.028l0.046,0.028l0.047,0.027l0.048,0.026l0.035,0.019l0.014,0.008l0.049,0.026l0.051,0.025l0.051,0.025l0.051,0.025l0.053,0.024l0.054,0.023l0.054,0.023l0.055,0.022l0.056,0.022l0.057,0.021l0.058,0.021l0.058,0.019l0.059,0.02l0.06,0.018l0.061,0.018l0.028,0.008l0.034,0.009l0.062,0.018l0.063,0.017l0.064,0.016l0.065,0.015l0.065,0.014l0.067,0.014l0.067,0.013l0.068,0.013l0.069,0.011l0.07,0.011l0.071,0.01l0.071,0.009l0.066,0.008l0.006,0.001l0.073,0.008l0.074,0.008l0.075,0.007l0.109,0.009l0.077,0.018l0.044,0.009l0.035,0.006l0.009,0.002l0.045,0.007l0.046,0.007l0.047,0.007l0.048,0.005l0.048,0.005l0.049,0.004l0.05,0.003l0.05,0.002l0.051,0.002l0.051,0.002l0.052,0.001l0.053,0l0.052,-0.001l0.054,-0.002l0.054,-0.002l0.05,-0.003l0.004,0l0.054,-0.003l0.055,-0.004l0.055,-0.005l0.056,-0.005l0.056,-0.006l0.055,-0.007l0.057,-0.008l0.056,-0.008l0.013,-0.003l0.043,-0.006l0.057,-0.009l0.057,-0.009l0.056,-0.011l0.057,-0.011l0.057,-0.012l0.056,-0.012l0.057,-0.014l0.056,-0.014l0.057,-0.014l0.056,-0.016l0.056,-0.016l0.055,-0.016l0.056,-0.018l0.055,-0.018l0.054,-0.018l0.055,-0.02l0.044,-0.016l0.01,-0.003l0.054,-0.02l0.053,-0.021l0.053,-0.021l0.053,-0.021l0.052,-0.022l0.051,-0.023l0.051,-0.023l0.05,-0.024l0.05,-0.025l0.049,-0.025l0.048,-0.025l0.048,-0.026l0.047,-0.027l0.046,-0.027l0.045,-0.028l0.044,-0.028l0.044,-0.029l0.042,-0.029l0.042,-0.029l0,0l0.041,-0.03l0.04,-0.029l0.039,-0.031l0.039,-0.031l0.037,-0.031l0.036,-0.031l0.035,-0.032l0.034,-0.033l0.033,-0.032l0.031,-0.033l0.031,-0.034l0.03,-0.034l0.028,-0.034l0.027,-0.034l0.026,-0.035l0.024,-0.034l0.024,-0.036l0.022,-0.035l0.021,-0.036l0.019,-0.036l0.019,-0.036l0.007,-0.016l0.01,-0.021l0.016,-0.036l0.015,-0.038l0.014,-0.037l0.012,-0.038l0.011,-0.038l0.009,-0.039l0.008,-0.039l0.007,-0.039l0.006,-0.04l0.003,-0.041l0.003,-0.041l0.001,-0.041l-0.001,-0.043l-0.002,-0.042l-0.004,-0.044l-0.006,-0.044l-0.008,-0.044l-0.009,-0.046l-0.011,-0.046l-0.013,-0.046l-0.015,-0.048l-0.017,-0.048l-0.019,-0.048l-0.021,-0.05l-0.024,-0.05l-0.025,-0.05l-0.028,-0.051l-0.03,-0.052l-0.033,-0.052l-0.034,-0.053l-0.037,-0.054l-0.04,-0.054l-0.032,-0.04l-0.01,-0.014l-0.044,-0.055l-0.047,-0.056l-0.049,-0.057l-0.052,-0.056l-0.055,-0.057l-0.057,-0.058l-0.06,-0.058l-0.062,-0.059l-0.041,-0.036l-0.025,-0.023l-0.012,-0.077l0.078,-0.009l0.028,0.018l0.047,0.031l0.073,0.048l0.071,0.05l0.068,0.049l0.066,0.05l0.063,0.05l0.061,0.05l0.059,0.05l0.056,0.051l0.014,0.013l0.04,0.039l0.051,0.051l0.049,0.053l0.047,0.052l0.044,0.052l0.043,0.053l0.04,0.054l0.037,0.053l0.036,0.054l0.033,0.054l0.032,0.054l0.029,0.055l0.027,0.055l0.024,0.055l0.023,0.055l0.02,0.056l0.018,0.055l0.016,0.056l0.014,0.056l0.012,0.057l0.009,0.056l0.008,0.056l0.005,0.057l0.003,0.056l0.001,0.056l-0.001,0.056l-0.003,0.056l-0.005,0.056l-0.007,0.056l-0.009,0.055l-0.011,0.055l-0.013,0.055l-0.014,0.054l-0.01,0.031l-0.007,0.023l-0.019,0.053l-0.02,0.053l-0.022,0.052l-0.024,0.052l-0.025,0.052l-0.027,0.05l-0.028,0.051l-0.029,0.05l-0.032,0.049l-0.032,0.049l-0.034,0.048l-0.035,0.047l-0.036,0.047l-0.038,0.047l-0.039,0.046l-0.04,0.045l-0.041,0.045l-0.042,0.044l-0.043,0.044l-0.045,0.043l-0.044,0.041l-0.001,0.001l-0.047,0.041l-0.047,0.041l-0.049,0.04l-0.05,0.04l-0.05,0.039l-0.051,0.038l-0.052,0.038l-0.053,0.037l-0.054,0.036l-0.054,0.036l-0.055,0.035l-0.056,0.035l-0.057,0.034l-0.057,0.033l-0.058,0.032l-0.058,0.032l-0.059,0.031l-0.06,0.031l-0.06,0.029l-0.011,0.006l-0.05,0.023l-0.062,0.027l-0.061,0.027l-0.063,0.026l-0.063,0.026l-0.063,0.024l-0.063,0.024l-0.064,0.023l-0.064,0.023l-0.065,0.021l-0.064,0.021l-0.065,0.02l-0.066,0.019l-0.065,0.019l-0.066,0.017l-0.066,0.017l-0.065,0.016l-0.051,0.011l-0.016,0.004l-0.066,0.013l-0.066,0.012l-0.067,0.012l-0.066,0.01l-0.067,0.01l-0.066,0.009l-0.066,0.008l-0.067,0.007l-0.005,0l-0.061,0.005l-0.066,0.004l-0.066,0.004l-0.066,0.002l-0.066,0.001l-0.065,0l-0.066,0l-0.065,-0.002l-0.001,0l-0.064,-0.004l-0.064,-0.005l-0.064,-0.006l-0.064,-0.007l-0.063,-0.008l-0.063,-0.009l-0.063,-0.01l-0.062,-0.012l-0.012,-0.002l-0.05,-0.011l-0.061,-0.014l-0.026,-0.008l-0.052,-0.006l-0.085,-0.011l-0.084,-0.012l-0.084,-0.013l-0.006,-0.001l-0.076,-0.014l-0.081,-0.015l-0.081,-0.017l-0.08,-0.017l-0.078,-0.019l-0.078,-0.019l-0.077,-0.02l-0.076,-0.021l-0.075,-0.022l-0.074,-0.022l-0.074,-0.023l-0.072,-0.025l-0.071,-0.024l-0.039,-0.014l-0.032,-0.013l-0.069,-0.027l-0.068,-0.028l-0.068,-0.029l-0.066,-0.029l-0.065,-0.03l-0.065,-0.031l-0.063,-0.032l-0.063,-0.032l-0.062,-0.033l-0.06,-0.033l-0.06,-0.034l-0.058,-0.035l-0.058,-0.035l-0.057,-0.036l-0.056,-0.036l-0.015,-0.011l-0.039,-0.026l-0.054,-0.038l-0.052,-0.039l-0.051,-0.039l-0.051,-0.039l-0.049,-0.04l-0.049,-0.04l-0.047,-0.041l-0.046,-0.041l-0.046,-0.042l-0.044,-0.042l-0.044,-0.043l-0.042,-0.042l-0.041,-0.044l-0.041,-0.043l-0.039,-0.044l-0.038,-0.044l-0.037,-0.045l-0.013,-0.015l-0.023,-0.03l-0.035,-0.046l-0.034,-0.045l-0.032,-0.046l-0.032,-0.047l-0.03,-0.046l-0.03,-0.047l-0.028,-0.047l-0.028,-0.047l-0.026,-0.047l-0.025,-0.048l-0.025,-0.047l-0.023,-0.048l-0.022,-0.048l-0.021,-0.047l-0.02,-0.048l-0.019,-0.048l-0.018,-0.049l-0.017,-0.048l-0.016,-0.048l-0.014,-0.048l-0.014,-0.048l-0.012,-0.048l-0.012,-0.049l-0.01,-0.048l-0.009,-0.048l-0.009,-0.048l-0.007,-0.048l-0.006,-0.047l-0.005,-0.048l-0.004,-0.048l-0.002,-0.047l-0.002,-0.047l-0.001,-0.048l0.001,-0.046l0.002,-0.047l0.002,-0.047l0.004,-0.046l0.005,-0.046l0.006,-0.045l0.007,-0.046l0.008,-0.041l0,-0.004l0.01,-0.044l0.011,-0.045l0.011,-0.044l0.013,-0.043l0.014,-0.043l0.015,-0.043l0.016,-0.042l0.018,-0.042l0.018,-0.041l0.019,-0.041l0.021,-0.041l0.021,-0.039l0.022,-0.04l0.024,-0.038l0.024,-0.039l0.026,-0.037l0.027,-0.037l0.027,-0.036l0.029,-0.036l0.03,-0.035l0.03,-0.035l0.032,-0.034l0.033,-0.033l0.033,-0.032l0.035,-0.032l0.036,-0.031l0.036,-0.03l0.038,-0.03l0.038,-0.029l0.04,-0.028l0.04,-0.028l0.042,-0.026l0.042,-0.026l0.044,-0.025l0.011,-0.007l0.032,-0.017l0.075,0.016Z" serif:id="H 4"/><path fill="#fff" d="M14.069,7.051l-0.017,0.057l0,0.001l-0.016,0.057l-0.015,0.057l-0.014,0.057l-0.013,0.057l-0.012,0.057l-0.011,0.058l-0.01,0.057l-0.009,0.058l-0.007,0.057l-0.007,0.058l-0.006,0.058l-0.004,0.058l-0.004,0.057l-0.003,0.058l-0.002,0.058l0,0.058l0,0.058l0.001,0.058l0.002,0.057l0.004,0.058l0.004,0.058l0.005,0.057l0.006,0.058l0.007,0.057l0.008,0.058l0.009,0.057l0.01,0.057l0.011,0.057l0.007,0.036l0.004,0.021l0.013,0.057l0.013,0.057l0.014,0.056l0.015,0.056l0.015,0.057l0.017,0.056l0.018,0.055l0.019,0.056l0.019,0.055l0.02,0.055l0.022,0.055l0.022,0.055l0.023,0.054l0.024,0.055l0.024,0.053l0.026,0.054l0.027,0.053l0.027,0.053l0.028,0.053l0.029,0.052l0.03,0.052l0.031,0.051l0.032,0.052l0.032,0.05l0.033,0.051l0.034,0.05l0.035,0.05l0.036,0.049l0.037,0.049l0.037,0.048l0.038,0.048l0.039,0.047l0.04,0.047l0.041,0.047l0.035,0.039l0.006,0.007l0.042,0.046l0.042,0.045l0.044,0.045l0.044,0.045l0.045,0.043l0.045,0.044l0.047,0.043l0.047,0.042l0.048,0.042l0.049,0.041l0.049,0.04l0.05,0.04l0.052,0.04l0.051,0.038l0.053,0.038l0.053,0.038l0.054,0.037l0.015,0.01l0.04,0.026l0.055,0.036l0.056,0.036l0.057,0.034l0.057,0.035l0.059,0.033l0.059,0.033l0.059,0.032l0.061,0.031l0.061,0.03l0.062,0.03l0.063,0.029l0.064,0.028l0.064,0.028l0.065,0.027l0.065,0.026l0.037,0.013l0.03,0.012l0.067,0.025l0.067,0.025l0.069,0.023l0.069,0.023l0.07,0.022l0.07,0.021l0.072,0.02l0.072,0.02l0.073,0.018l0.073,0.018l0.075,0.016l0.075,0.016l0.076,0.015l0.077,0.014l0.007,0.001l0.07,0.013l0.078,0.013l0.079,0.013l0.079,0.011l0.081,0.011l0.081,0.009l0.082,0.008l0.083,0.008l0.083,0.006l0.084,0.006l0.085,0.004l0.086,0.003l0.054,0.002l0.033,0.001l0.087,0.004l0.107,0.002l0.158,0.013l0.138,0.009l0.138,0.006l0.137,0.003l0.136,0.001l0.136,-0.001l0.066,-0.002l0.069,-0.001l0.134,-0.004l0.134,-0.006l0.132,-0.009l0.132,-0.012l0.131,-0.014l0.129,-0.016l0.129,-0.019l0.127,-0.021l0.117,-0.022l0.009,-0.001l0.125,-0.024l0.124,-0.027l0.122,-0.029l0.121,-0.031l0.119,-0.034l0.118,-0.036l0.116,-0.038l0.114,-0.04l0.113,-0.043l0.11,-0.045l0.044,-0.019l0.066,-0.028l0.053,-0.023l0.054,-0.024l0.053,-0.025l0.052,-0.026l0.052,-0.026l0.051,-0.026l0.051,-0.027l0.05,-0.028l0.05,-0.028l0.049,-0.028l0.049,-0.029l0.048,-0.03l0.047,-0.03l0.047,-0.031l0.046,-0.031l0.046,-0.032l0.045,-0.032l0.045,-0.033l0.044,-0.033l0.043,-0.033l0.031,-0.026l0.012,-0.008l0.042,-0.035l0.042,-0.035l0.041,-0.035l0.04,-0.036l0.04,-0.036l0.039,-0.037l0.038,-0.037l0.038,-0.038l0.037,-0.038l0.037,-0.039l0.035,-0.039l0.036,-0.04l0.034,-0.04l0.033,-0.041l0.033,-0.041l0.033,-0.042l0.031,-0.042l0.031,-0.043l0.03,-0.043l0.029,-0.044l0.028,-0.044l0.028,-0.045l0.027,-0.045l0.026,-0.046l0.025,-0.046l0.025,-0.047l0.024,-0.047l0.023,-0.048l0.022,-0.048l0.021,-0.049l0.021,-0.049l0.019,-0.05l0.019,-0.05l0.018,-0.051l0.017,-0.051l0.016,-0.052l0.016,-0.052l0.014,-0.053l0,-0.001l0.014,-0.052l0.013,-0.054l0.012,-0.054l0.011,-0.055l0.01,-0.055l0.009,-0.056l0.008,-0.057l0.008,-0.057l0.006,-0.057l0.005,-0.058l0.004,-0.059l0.004,-0.059l0.002,-0.06l0.001,-0.06l0,-0.062l0.112,-0.135l0.131,0.117l0.009,0.064l0.008,0.064l0.007,0.064l0.006,0.064l0.004,0.064l0.004,0.063l0.002,0.063l0.001,0.063l-0.001,0.063l-0.001,0.063l-0.002,0.062l-0.004,0.062l-0.005,0.062l-0.005,0.062l-0.007,0.059l0,0.002l-0.009,0.061l-0.009,0.061l-0.011,0.06l-0.012,0.06l-0.013,0.06l-0.013,0.06l-0.015,0.059l-0.016,0.059l-0.018,0.059l-0.018,0.058l-0.019,0.058l-0.02,0.057l-0.021,0.057l-0.023,0.057l-0.023,0.057l-0.024,0.056l-0.025,0.055l-0.027,0.056l-0.027,0.054l-0.028,0.055l-0.029,0.054l-0.03,0.054l-0.031,0.053l-0.032,0.053l-0.033,0.052l-0.034,0.052l-0.035,0.051l-0.035,0.051l-0.037,0.051l-0.037,0.05l-0.038,0.05l-0.039,0.049l-0.04,0.048l-0.041,0.049l-0.042,0.047l-0.042,0.048l-0.043,0.046l-0.044,0.046l-0.012,0.012l-0.033,0.034l-0.046,0.045l-0.047,0.044l-0.048,0.044l-0.048,0.043l-0.049,0.043l-0.049,0.042l-0.051,0.042l-0.051,0.041l-0.051,0.04l-0.053,0.04l-0.053,0.04l-0.054,0.039l-0.054,0.038l-0.056,0.038l-0.055,0.037l-0.057,0.037l-0.057,0.036l-0.058,0.036l-0.058,0.035l-0.06,0.035l-0.071,0.04l-0.048,0.026l-0.122,0.063l-0.125,0.062l-0.127,0.059l-0.129,0.056l-0.131,0.054l-0.133,0.051l-0.134,0.049l-0.137,0.047l-0.139,0.044l-0.14,0.041l-0.01,0.003l-0.132,0.034l-0.144,0.035l-0.145,0.031l-0.147,0.029l-0.148,0.027l-0.15,0.023l-0.15,0.021l-0.152,0.018l-0.153,0.015l-0.079,0.006l-0.075,0.005l-0.155,0.007l-0.156,0.003l-0.157,0.001l-0.158,-0.002l-0.158,-0.006l-0.139,-0.007l-0.084,0.001l-0.101,-0.001l-0.038,-0.001l-0.062,-0.003l-0.099,-0.006l-0.099,-0.007l-0.098,-0.008l-0.097,-0.01l-0.097,-0.01l-0.095,-0.012l-0.095,-0.014l-0.094,-0.014l-0.093,-0.015l-0.092,-0.017l-0.092,-0.018l-0.082,-0.017l-0.009,-0.002l-0.089,-0.021l-0.089,-0.023l-0.088,-0.023l-0.087,-0.025l-0.086,-0.026l-0.085,-0.026l-0.085,-0.028l-0.083,-0.029l-0.083,-0.029l-0.082,-0.031l-0.08,-0.032l-0.08,-0.033l-0.079,-0.033l-0.079,-0.035l-0.035,-0.016l-0.041,-0.02l-0.076,-0.037l-0.075,-0.038l-0.074,-0.039l-0.073,-0.04l-0.072,-0.041l-0.071,-0.041l-0.071,-0.042l-0.069,-0.043l-0.068,-0.044l-0.067,-0.045l-0.066,-0.045l-0.066,-0.047l-0.064,-0.047l-0.063,-0.047l-0.063,-0.048l-0.044,-0.036l-0.017,-0.014l-0.06,-0.05l-0.059,-0.051l-0.058,-0.051l-0.057,-0.052l-0.055,-0.053l-0.055,-0.053l-0.054,-0.054l-0.053,-0.055l-0.052,-0.055l-0.051,-0.055l-0.049,-0.056l-0.049,-0.057l-0.048,-0.057l-0.047,-0.057l-0.045,-0.058l-0.045,-0.059l-0.044,-0.059l-0.006,-0.009l-0.036,-0.05l-0.041,-0.06l-0.04,-0.061l-0.039,-0.061l-0.038,-0.061l-0.036,-0.062l-0.036,-0.062l-0.035,-0.062l-0.034,-0.062l-0.032,-0.063l-0.032,-0.063l-0.03,-0.064l-0.03,-0.063l-0.028,-0.064l-0.028,-0.064l-0.026,-0.064l-0.025,-0.065l-0.024,-0.064l-0.023,-0.065l-0.022,-0.065l-0.021,-0.065l-0.02,-0.065l-0.019,-0.066l-0.018,-0.065l-0.017,-0.066l-0.016,-0.065l-0.014,-0.066l-0.014,-0.066l-0.012,-0.066l-0.012,-0.065l-0.01,-0.066l-0.009,-0.066l-0.009,-0.066l-0.007,-0.066l-0.006,-0.065l-0.002,-0.025l-0.003,-0.041l-0.003,-0.066l-0.003,-0.065l-0.001,-0.066l0,-0.065l0.001,-0.065l0.002,-0.065l0.003,-0.065l0.004,-0.065l0.005,-0.064l0.006,-0.065l0.007,-0.064l0.008,-0.064l0.01,-0.063l0.01,-0.064l0.012,-0.063l0.012,-0.062l0.014,-0.063l0.015,-0.062l0.016,-0.062l0.017,-0.061l0.018,-0.062l0.019,-0.06l0.02,-0.061l0.021,-0.06l0.022,-0.06l0.023,-0.059l0.025,-0.059l0.025,-0.058l0,-0.001l0.026,-0.056l0.158,-0.07l0.07,0.157Z" serif:id="H 3"/><path fill="#fff" d="M12.357,9.824l0.002,0.065l0.001,0.029l0.005,0.092l0.005,0.09l0.007,0.09l0.008,0.089l0.009,0.088l0.01,0.086l0.011,0.086l0.012,0.085l0.014,0.083l0.014,0.083l0.015,0.081l0.017,0.081l0.018,0.08l0.018,0.078l0.02,0.078l0.021,0.076l0.021,0.076l0.023,0.075l0.023,0.073l0.025,0.073l0.025,0.072l0.027,0.071l0.012,0.032l0.014,0.038l0.028,0.069l0.028,0.068l0.03,0.067l0.03,0.067l0.031,0.065l0.032,0.065l0.032,0.063l0.034,0.063l0.034,0.062l0.035,0.061l0.036,0.06l0.037,0.059l0.038,0.059l0.038,0.058l0.039,0.056l0.04,0.056l0.04,0.055l0.041,0.055l0.042,0.053l0.043,0.053l0.043,0.052l0.044,0.051l0.045,0.05l0.046,0.05l0.046,0.048l0.046,0.048l0.048,0.048l0.048,0.046l0.049,0.046l0.049,0.045l0.05,0.044l0.051,0.043l0.051,0.043l0.016,0.013l0.035,0.029l0.052,0.042l0.053,0.041l0.053,0.041l0.053,0.04l0.055,0.039l0.055,0.038l0.055,0.038l0.056,0.037l0.057,0.036l0.057,0.035l0.057,0.035l0.059,0.035l0.058,0.033l0.06,0.033l0.059,0.032l0.061,0.032l0.06,0.031l0.042,0.02l0.019,0.01l0.062,0.031l0.062,0.029l0.062,0.029l0.063,0.028l0.063,0.028l0.064,0.027l0.064,0.026l0.064,0.026l0.065,0.025l0.066,0.025l0.066,0.023l0.066,0.023l0.067,0.023l0.067,0.022l0.067,0.021l0.068,0.021l0.068,0.02l0.038,0.011l0.029,0.008l0.139,0.039l0.138,0.037l0.14,0.034l0.142,0.031l0.142,0.029l0.143,0.027l0.144,0.024l0.146,0.021l0.032,0.005l0.113,0.017l0.146,0.02l0.147,0.017l0.148,0.015l0.148,0.013l0.149,0.01l0.149,0.008l0.15,0.006l0.149,0.008l0.15,0.005l0.15,0.003l0.15,0.002l0.15,-0.002l0.15,-0.003l0.15,-0.006l0.149,-0.008l0.021,-0.001l0.129,-0.006l0.149,-0.009l0.149,-0.011l0.149,-0.014l0.148,-0.015l0.147,-0.018l0.147,-0.02l0.146,-0.022l0.144,-0.025l0.06,-0.011l0.085,-0.014l0.143,-0.026l0.142,-0.029l0.141,-0.031l0.14,-0.033l0.139,-0.035l0.137,-0.037l0.135,-0.039l0.134,-0.041l0.133,-0.044l0.058,-0.02l0.073,-0.024l0.129,-0.047l0.128,-0.048l0.125,-0.05l0.124,-0.052l0.121,-0.055l0.119,-0.056l0.118,-0.059l0.057,-0.029l0.057,-0.03l0.057,-0.031l0.055,-0.031l0.056,-0.032l0.04,-0.024l0.014,-0.008l0.055,-0.033l0.053,-0.032l0.053,-0.034l0.053,-0.033l0.052,-0.035l0.051,-0.034l0.05,-0.035l0.05,-0.036l0.049,-0.036l0.048,-0.037l0.048,-0.037l0.047,-0.038l0.046,-0.038l0.045,-0.038l0.045,-0.039l0.044,-0.04l0.043,-0.04l0.042,-0.04l0.042,-0.041l0.041,-0.042l0.04,-0.042l0.039,-0.042l0.038,-0.043l0.038,-0.043l0.037,-0.044l0.036,-0.045l0.035,-0.044l0.034,-0.046l0.034,-0.046l0.032,-0.046l0.032,-0.047l0.031,-0.047l0.03,-0.048l0.029,-0.048l0.028,-0.049l0.027,-0.049l0.026,-0.05l0.022,-0.042l0.004,-0.009l0.025,-0.05l0.024,-0.052l0.022,-0.051l0.022,-0.053l0.021,-0.053l0.02,-0.053l0.019,-0.054l0.018,-0.055l0.017,-0.055l0.016,-0.056l0.015,-0.056l0.014,-0.057l0.013,-0.057l0.012,-0.058l0.01,-0.059l0.01,-0.06l0.122,-0.11l0.104,0.127l0,0.063l-0.002,0.065l-0.002,0.064l-0.004,0.064l-0.005,0.063l-0.006,0.064l-0.008,0.063l-0.009,0.063l-0.01,0.063l-0.011,0.062l-0.013,0.063l-0.014,0.062l-0.015,0.061l-0.016,0.062l-0.017,0.061l-0.019,0.061l-0.003,0.01l-0.017,0.05l-0.021,0.06l-0.023,0.06l-0.023,0.059l-0.025,0.059l-0.026,0.059l-0.027,0.058l-0.028,0.058l-0.029,0.058l-0.031,0.057l-0.031,0.057l-0.032,0.056l-0.034,0.057l-0.034,0.055l-0.036,0.055l-0.036,0.055l-0.038,0.055l-0.038,0.054l-0.039,0.053l-0.041,0.053l-0.041,0.053l-0.042,0.053l-0.044,0.051l-0.044,0.052l-0.045,0.051l-0.046,0.05l-0.046,0.051l-0.048,0.049l-0.049,0.049l-0.049,0.049l-0.05,0.048l-0.051,0.048l-0.052,0.048l-0.053,0.047l-0.053,0.046l-0.054,0.046l-0.055,0.045l-0.056,0.045l-0.014,0.012l-0.043,0.033l-0.057,0.043l-0.058,0.043l-0.059,0.043l-0.06,0.042l-0.061,0.042l-0.122,0.081l-0.126,0.079l-0.128,0.078l-0.13,0.076l-0.133,0.073l-0.135,0.071l-0.137,0.07l-0.077,0.037l-0.063,0.029l-0.142,0.064l-0.144,0.062l-0.146,0.059l-0.147,0.058l-0.15,0.055l-0.151,0.053l-0.153,0.051l-0.154,0.048l-0.155,0.046l-0.093,0.026l-0.065,0.017l-0.158,0.04l-0.16,0.037l-0.161,0.035l-0.163,0.032l-0.163,0.031l-0.163,0.027l-0.165,0.026l-0.166,0.023l-0.143,0.017l-0.023,0.003l-0.167,0.014l-0.167,0.012l-0.168,0.01l-0.168,0.007l-0.168,0.004l-0.169,0.002l-0.168,-0.001l-0.168,-0.003l-0.001,0l-0.168,-0.01l-0.168,-0.013l-0.168,-0.016l-0.167,-0.018l-0.167,-0.021l-0.166,-0.024l-0.165,-0.026l-0.128,-0.023l-0.037,-0.007l-0.163,-0.035l-0.163,-0.037l-0.161,-0.041l-0.161,-0.043l-0.159,-0.046l-0.158,-0.048l-0.157,-0.052l-0.154,-0.054l-0.033,-0.012l-0.045,-0.017l-0.076,-0.03l-0.076,-0.03l-0.075,-0.032l-0.075,-0.032l-0.075,-0.033l-0.074,-0.033l-0.074,-0.035l-0.073,-0.035l-0.073,-0.035l-0.072,-0.037l-0.072,-0.037l-0.071,-0.038l-0.071,-0.039l-0.07,-0.039l-0.07,-0.04l-0.069,-0.041l-0.068,-0.042l-0.022,-0.013l-0.046,-0.03l-0.067,-0.043l-0.066,-0.045l-0.066,-0.045l-0.065,-0.046l-0.064,-0.047l-0.064,-0.048l-0.063,-0.048l-0.062,-0.049l-0.061,-0.05l-0.061,-0.05l-0.06,-0.051l-0.06,-0.052l-0.059,-0.053l-0.057,-0.054l-0.058,-0.054l-0.056,-0.055l-0.055,-0.056l-0.038,-0.039l-0.017,-0.018l-0.053,-0.058l-0.053,-0.058l-0.051,-0.059l-0.051,-0.06l-0.05,-0.061l-0.049,-0.062l-0.048,-0.062l-0.047,-0.063l-0.046,-0.064l-0.045,-0.064l-0.044,-0.065l-0.044,-0.066l-0.042,-0.067l-0.041,-0.067l-0.04,-0.068l-0.04,-0.069l-0.038,-0.069l-0.037,-0.07l-0.036,-0.071l-0.035,-0.071l-0.034,-0.072l-0.033,-0.073l-0.032,-0.074l-0.031,-0.074l-0.029,-0.075l-0.029,-0.075l-0.027,-0.077l-0.026,-0.077l-0.025,-0.077l-0.024,-0.078l-0.023,-0.079l-0.021,-0.08l-0.021,-0.08l-0.01,-0.044l-0.009,-0.037l-0.017,-0.082l-0.016,-0.082l-0.015,-0.083l-0.014,-0.083l-0.012,-0.085l-0.011,-0.084l-0.01,-0.086l-0.009,-0.086l-0.007,-0.087l-0.007,-0.087l-0.005,-0.088l-0.003,-0.088l-0.003,-0.089l-0.001,-0.09l0.001,-0.091l0.001,-0.09l0.003,-0.092l0.004,-0.092l0.005,-0.093l0.007,-0.094l0.008,-0.094l0.01,-0.094l0.003,-0.03l0.008,-0.065l0.118,-0.109l0.108,0.118Z" serif:id="H 2"/><path fill="#fff" d="M11.562,13.325l0.011,0.081l0.013,0.079l0.013,0.078l0.014,0.077l0.015,0.076l0.016,0.076l0.017,0.075l0.018,0.074l0.02,0.073l0.02,0.072l0.02,0.071l0.022,0.071l0.023,0.07l0.024,0.069l0.024,0.068l0.026,0.067l0.026,0.067l0.027,0.066l0.028,0.065l0.029,0.064l0.03,0.063l0.03,0.063l0.032,0.062l0.032,0.061l0.011,0.021l0.021,0.039l0.034,0.06l0.033,0.059l0.035,0.059l0.035,0.057l0.037,0.057l0.036,0.057l0.038,0.055l0.039,0.055l0.039,0.054l0.039,0.053l0.041,0.053l0.041,0.052l0.042,0.051l0.043,0.051l0.043,0.05l0.044,0.049l0.045,0.049l0.045,0.048l0.046,0.047l0.046,0.047l0.048,0.046l0.047,0.045l0.049,0.045l0.049,0.044l0.05,0.043l0.05,0.043l0.051,0.042l0.051,0.041l0.052,0.041l0.053,0.041l0.053,0.039l0.054,0.039l0.041,0.029l0.013,0.01l0.054,0.038l0.055,0.038l0.055,0.038l0.056,0.037l0.057,0.036l0.056,0.036l0.058,0.035l0.058,0.035l0.058,0.034l0.059,0.033l0.06,0.033l0.06,0.032l0.061,0.032l0.061,0.031l0.061,0.03l0.062,0.03l0.062,0.029l0.063,0.029l0.064,0.028l0.063,0.027l0.065,0.027l0.063,0.026l0.132,0.052l0.132,0.048l0.134,0.047l0.135,0.044l0.136,0.041l0.138,0.04l0.054,0.014l0.085,0.025l0.139,0.038l0.141,0.035l0.142,0.033l0.143,0.031l0.144,0.029l0.145,0.026l0.146,0.025l0.096,0.014l0.051,0.009l0.147,0.022l0.148,0.021l0.148,0.018l0.15,0.016l0.149,0.014l0.15,0.012l0.151,0.009l0.059,0.003l0.092,0.007l0.151,0.01l0.151,0.007l0.152,0.005l0.152,0.003l0.152,0.001l0.152,-0.001l0.152,-0.004l0.099,-0.004l0.052,-0.001l0.152,-0.004l0.152,-0.007l0.151,-0.009l0.151,-0.011l0.151,-0.014l0.15,-0.015l0.15,-0.018l0.149,-0.02l0.148,-0.022l0.031,-0.005l0.117,-0.017l0.147,-0.023l0.147,-0.026l0.145,-0.028l0.145,-0.03l0.144,-0.033l0.142,-0.034l0.141,-0.037l0.14,-0.039l0.139,-0.041l0.137,-0.043l0.136,-0.045l0.134,-0.048l0.133,-0.049l0.131,-0.052l0.129,-0.053l0.128,-0.056l0.126,-0.058l0.123,-0.06l0.123,-0.063l0.059,-0.031l0.06,-0.033l0.024,-0.013l0.035,-0.019l0.059,-0.033l0.059,-0.033l0.058,-0.033l0.057,-0.035l0.057,-0.034l0.057,-0.036l0.055,-0.035l0.056,-0.037l0.054,-0.037l0.054,-0.037l0.054,-0.038l0.053,-0.038l0.052,-0.039l0.051,-0.04l0.051,-0.04l0.051,-0.041l0.049,-0.041l0.05,-0.042l0.048,-0.042l0.048,-0.043l0.047,-0.043l0.046,-0.044l0.046,-0.045l0.045,-0.045l0.044,-0.045l0.044,-0.046l0.043,-0.047l0.042,-0.047l0.042,-0.048l0.04,-0.048l0.041,-0.049l0.039,-0.05l0.038,-0.05l0.038,-0.05l0.037,-0.052l0.036,-0.051l0.036,-0.053l0.034,-0.053l0.034,-0.053l0.033,-0.054l0.032,-0.055l0.032,-0.055l0.03,-0.056l0.03,-0.057l0.029,-0.057l0.028,-0.057l0.027,-0.059l0.026,-0.059l0.025,-0.059l0.025,-0.06l0.023,-0.061l0.023,-0.061l0.022,-0.063l0.182,-0.108l0.102,0.185l-0.013,0.068l-0.016,0.069l-0.016,0.069l-0.018,0.068l-0.018,0.067l-0.02,0.068l-0.021,0.066l-0.022,0.067l-0.023,0.066l-0.024,0.066l-0.025,0.065l-0.026,0.065l-0.027,0.064l-0.028,0.064l-0.029,0.064l-0.03,0.063l-0.031,0.063l-0.033,0.062l-0.033,0.062l-0.034,0.061l-0.035,0.061l-0.036,0.06l-0.037,0.06l-0.038,0.06l-0.039,0.059l-0.039,0.059l-0.041,0.058l-0.042,0.058l-0.042,0.057l-0.043,0.057l-0.045,0.056l-0.045,0.056l-0.045,0.055l-0.047,0.055l-0.048,0.054l-0.048,0.054l-0.049,0.053l-0.05,0.053l-0.051,0.052l-0.052,0.052l-0.052,0.051l-0.053,0.051l-0.054,0.05l-0.054,0.05l-0.056,0.049l-0.056,0.049l-0.057,0.048l-0.057,0.048l-0.058,0.047l-0.059,0.047l-0.059,0.046l-0.061,0.045l-0.06,0.046l-0.037,0.026l-0.025,0.018l-0.063,0.043l-0.064,0.043l-0.127,0.083l-0.131,0.082l-0.133,0.079l-0.135,0.077l-0.137,0.075l-0.14,0.072l-0.141,0.071l-0.143,0.068l-0.145,0.066l-0.147,0.064l-0.149,0.061l-0.15,0.06l-0.152,0.057l-0.153,0.055l-0.155,0.052l-0.156,0.05l-0.158,0.048l-0.159,0.046l-0.16,0.044l-0.127,0.032l-0.034,0.008l-0.163,0.036l-0.163,0.034l-0.165,0.032l-0.165,0.029l-0.166,0.027l-0.167,0.025l-0.167,0.022l-0.168,0.02l-0.168,0.017l-0.059,0.005l-0.11,0.008l-0.169,0.009l-0.17,0.007l-0.17,0.005l-0.169,0.002l-0.17,0l-0.17,-0.003l-0.169,-0.006l-0.104,-0.004l-0.066,-0.005l-0.169,-0.015l-0.168,-0.017l-0.168,-0.019l-0.168,-0.022l-0.167,-0.025l-0.166,-0.027l-0.165,-0.029l-0.058,-0.012l-0.107,-0.022l-0.163,-0.038l-0.162,-0.04l-0.161,-0.042l-0.16,-0.045l-0.159,-0.048l-0.158,-0.05l-0.156,-0.053l-0.095,-0.034l-0.06,-0.022l-0.152,-0.061l-0.151,-0.063l-0.149,-0.066l-0.147,-0.068l-0.145,-0.071l-0.143,-0.073l-0.072,-0.038l-0.07,-0.038l-0.07,-0.039l-0.07,-0.04l-0.069,-0.04l-0.068,-0.041l-0.068,-0.041l-0.067,-0.042l-0.067,-0.043l-0.066,-0.044l-0.066,-0.044l-0.065,-0.045l-0.064,-0.045l-0.064,-0.046l-0.063,-0.047l-0.062,-0.047l-0.062,-0.048l-0.061,-0.049l-0.061,-0.049l-0.059,-0.05l-0.059,-0.051l-0.059,-0.051l-0.014,-0.013l-0.043,-0.04l-0.056,-0.053l-0.055,-0.054l-0.055,-0.055l-0.054,-0.055l-0.053,-0.056l-0.052,-0.057l-0.052,-0.057l-0.05,-0.058l-0.05,-0.059l-0.049,-0.059l-0.048,-0.06l-0.048,-0.06l-0.046,-0.061l-0.045,-0.062l-0.045,-0.062l-0.044,-0.063l-0.043,-0.063l-0.042,-0.064l-0.041,-0.065l-0.04,-0.065l-0.039,-0.066l-0.038,-0.066l-0.037,-0.067l-0.036,-0.068l-0.035,-0.068l-0.035,-0.068l-0.033,-0.07l-0.032,-0.07l-0.031,-0.07l-0.03,-0.071l-0.029,-0.072l-0.028,-0.072l-0.018,-0.047l-0.009,-0.025l-0.026,-0.074l-0.024,-0.074l-0.023,-0.074l-0.022,-0.075l-0.021,-0.076l-0.02,-0.076l-0.018,-0.077l-0.018,-0.077l-0.016,-0.077l-0.016,-0.078l-0.014,-0.079l-0.013,-0.079l-0.012,-0.08l-0.011,-0.08l-0.009,-0.08l-0.009,-0.081l-0.007,-0.082l-0.006,-0.082l-0.005,-0.082l-0.003,-0.083l-0.003,-0.083l-0.001,-0.084l0,-0.085l0,0l0.001,-0.084l0.139,-0.156l0.156,0.139Z" serif:id="H 1"/></svg>