<svg xmlns="http://www.w3.org/2000/svg" xmlns:serif="http://www.serif.com/" fill-rule="evenodd" stroke-linejoin="round" stroke-miterlimit="1" clip-rule="evenodd" version="1" viewBox="0 0 30 30"><path fill="none" stroke="#fff" stroke-width="2" d="M7.253,11.817c-0.06,-5.934 4.773,-10.867 10.706,-10.928c5.933,-0.06 10.865,4.774 10.925,10.708c0.061,5.934 -4.772,10.867 -10.705,10.928c-5.933,0.061 -10.865,-4.773 -10.926,-10.707"/><path fill="#fff" stroke="#fff" d="M0.558,27.544l8.909,-8.909l2.015,2.015l-8.909,8.909l-2.015,-2.015Z"/><path fill="#fff" fill-rule="nonzero" stroke="#fff" d="M12.949,6.272c0.489,-0.507 1.027,-0.96 1.604,-1.348c0.636,-0.428 1.317,-0.772 2.022,-1.023c0.758,-0.269 1.541,-0.433 2.316,-0.491c0.905,-0.074 1.799,0 2.636,0.132c-0.774,-0.348 -1.664,-0.603 -2.633,-0.687c-0.827,-0.074 -1.699,0 -2.572,0.195c-0.809,0.195 -1.603,0.518 -2.345,0.965c-0.729,0.433 -1.397,0.978 -1.984,1.603c-0.11,0.116 -0.216,0.232 -0.319,0.354c-0.461,0.54 -0.86,1.127 -1.193,1.745c-0.425,0.788 -0.74,1.617 -0.945,2.455c-0.221,0.899 -0.314,1.795 -0.297,2.657c0.021,0.966 0.178,1.872 0.431,2.688c-0.042,-0.851 -0.01,-1.744 0.122,-2.656c0.119,-0.81 0.317,-1.628 0.605,-2.433c0.267,-0.748 0.61,-1.48 1.03,-2.174c0.401,-0.664 0.869,-1.29 1.4,-1.858c0.043,-0.053 0.081,-0.084 0.121,-0.126l0.001,0.002Z"/><path fill="none" d="M17.081,6.646c-2.778,-0.062 -4.445,2.525 -5.539,8.228" serif:id="V 6"/><clipPath id="a"><path d="M17.081,6.646c-2.778,-0.062 -4.445,2.525 -5.539,8.228"/></clipPath><g clip-path="url(#a)"><path fill-rule="nonzero" d="M13.144,9.659c0.245,-0.512 0.526,-0.991 0.863,-1.426c0.219,-0.285 0.459,-0.538 0.722,-0.758c0.238,-0.195 0.492,-0.359 0.755,-0.486c0.259,-0.121 0.526,-0.211 0.786,-0.264c0.28,-0.058 0.555,-0.079 0.811,-0.079c-0.255,0 -0.533,-0.003 -0.817,0.053c-0.266,0.053 -0.539,0.121 -0.806,0.238c-0.273,0.121 -0.537,0.28 -0.784,0.48c-0.273,0.217 -0.522,0.476 -0.749,0.761c-0.381,0.481 -0.691,1.016 -0.954,1.586c-0.144,0.311 -0.273,0.629 -0.389,0.946c-0.553,1.497 -0.856,3.02 -1.041,4.164c0.241,-1.126 0.587,-2.649 1.145,-4.125c0.138,-0.364 0.288,-0.727 0.458,-1.081l0,-0.009Z" serif:id="V 6 OLD"/></g><path fill="#fff" d="M16.689,6.539l0.066,0.001l0.065,0.002l0.065,0.003l0.066,0.004l0.066,0.005l0.029,0.003l0.036,0.004l0.084,0.086l-0.086,0.084l-0.036,0.003l-0.029,0.002l-0.063,0.005l-0.062,0.006l-0.062,0.007l-0.061,0.008l-0.061,0.009l-0.06,0.01l-0.06,0.011l-0.059,0.012l-0.059,0.012l-0.057,0.014l-0.058,0.014l-0.057,0.015l-0.056,0.016l-0.055,0.017l-0.055,0.018l-0.039,0.014l-0.016,0.005l-0.054,0.019l-0.054,0.02l-0.053,0.021l-0.053,0.022l-0.052,0.022l-0.051,0.024l-0.051,0.024l-0.051,0.026l-0.05,0.026l-0.05,0.027l-0.049,0.028l-0.049,0.029l-0.048,0.03l-0.048,0.03l-0.047,0.032l-0.047,0.032l-0.047,0.034l-0.046,0.034l-0.045,0.035l-0.046,0.036l-0.044,0.037l-0.033,0.028l-0.012,0.01l-0.045,0.038l-0.044,0.039l-0.043,0.041l-0.044,0.041l-0.043,0.042l-0.043,0.043l-0.042,0.044l-0.042,0.045l-0.041,0.045l-0.042,0.047l-0.038,0.045l-0.003,0.003l-0.041,0.048l-0.041,0.05l-0.04,0.05l-0.041,0.051l-0.039,0.052l-0.04,0.054l-0.039,0.054l-0.039,0.055l-0.039,0.057l-0.038,0.057l-0.016,0.025l-0.023,0.033l-0.039,0.059l-0.038,0.06l-0.038,0.061l-0.038,0.062l-0.038,0.063l-0.037,0.064l-0.037,0.065l-0.037,0.067l-0.031,0.058l-0.005,0.009l-0.038,0.068l-0.037,0.068l-0.038,0.07l-0.036,0.071l-0.037,0.072l-0.036,0.073l-0.072,0.15l-0.007,0.014l-0.068,0.138l-0.075,0.157l-0.074,0.16l-0.073,0.166l-0.017,0.04l-0.058,0.129l-0.075,0.173l-0.074,0.178l-0.074,0.183l-0.046,0.119l-0.028,0.068l-0.075,0.191l-0.074,0.195l-0.073,0.201l-0.067,0.189l-0.006,0.016l-0.074,0.209l-0.073,0.214l-0.073,0.219l-0.059,0.184l-0.013,0.039l-0.073,0.228l-0.073,0.232l-0.072,0.237l-0.072,0.242l-0.071,0.247l-0.051,0.181l-0.02,0.07l-0.072,0.256l-0.072,0.261l-0.104,0.087l-0.063,-0.12l0.032,-0.269l0.033,-0.265l0.01,-0.073l0.026,-0.188l0.037,-0.256l0.039,-0.252l0.04,-0.247l0.041,-0.244l0.042,-0.239l0.008,-0.041l0.038,-0.193l0.047,-0.23l0.048,-0.226l0.05,-0.222l0.004,-0.017l0.048,-0.2l0.054,-0.213l0.056,-0.209l0.057,-0.205l0.021,-0.073l0.039,-0.127l0.062,-0.195l0.063,-0.192l0.065,-0.187l0.051,-0.14l0.016,-0.043l0.071,-0.178l0.073,-0.174l0.074,-0.169l0.069,-0.151l0.007,-0.015l0.081,-0.158l0.042,-0.079l0.042,-0.077l0.041,-0.076l0.043,-0.075l0.042,-0.074l0.043,-0.072l0.006,-0.01l0.039,-0.062l0.045,-0.069l0.045,-0.069l0.045,-0.068l0.046,-0.067l0.047,-0.066l0.046,-0.065l0.047,-0.063l0.048,-0.063l0.027,-0.036l0.021,-0.025l0.049,-0.06l0.049,-0.059l0.049,-0.057l0.05,-0.057l0.05,-0.056l0.051,-0.054l0.051,-0.054l0.051,-0.052l0.051,-0.051l0.052,-0.05l0.003,-0.003l0.05,-0.046l0.053,-0.047l0.054,-0.047l0.053,-0.045l0.054,-0.044l0.055,-0.043l0.055,-0.042l0.055,-0.041l0.055,-0.04l0.056,-0.039l0.056,-0.037l0.014,-0.01l0.042,-0.026l0.057,-0.035l0.058,-0.034l0.057,-0.032l0.058,-0.031l0.058,-0.031l0.059,-0.029l0.059,-0.028l0.059,-0.026l0.059,-0.026l0.059,-0.025l0.06,-0.023l0.06,-0.023l0.061,-0.021l0.06,-0.02l0.061,-0.019l0.061,-0.018l0.062,-0.016l0.061,-0.016l0.062,-0.015l0.062,-0.013l0.062,-0.012l0.018,-0.004l0.045,-0.007l0.063,-0.01l0.063,-0.008l0.063,-0.008l0.064,-0.006l0.064,-0.005l0.064,-0.004l0.064,-0.004l0.064,-0.002l0.065,-0.001l0.064,0.001Z"/><path fill="none" d="M17.233,7.325c-2.601,0.98 -3.622,4.281 -4.033,9.846" serif:id="V 5"/><clipPath id="b"><path d="M17.233,7.325c-2.601,0.98 -3.622,4.281 -4.033,9.846"/></clipPath><g clip-path="url(#b)"><path d="M14.127,11.592c0.135,-0.47 0.29,-0.93 0.479,-1.371c0.186,-0.433 0.399,-0.842 0.65,-1.214c0.256,-0.381 0.544,-0.713 0.861,-0.987c0.357,-0.312 0.741,-0.538 1.116,-0.695c-0.385,0.132 -0.785,0.338 -1.163,0.639c-0.334,0.264 -0.64,0.593 -0.912,0.974c-0.266,0.375 -0.493,0.784 -0.688,1.224c-0.198,0.444 -0.36,0.911 -0.496,1.388c-0.016,0.053 -0.032,0.106 -0.042,0.159c-0.256,0.94 -0.409,1.893 -0.513,2.793c-0.057,0.486 -0.1,0.965 -0.133,1.408c-0.032,0.433 -0.062,0.894 -0.086,1.262c0.055,-0.412 0.097,-0.778 0.155,-1.255c0.054,-0.438 0.114,-0.918 0.183,-1.399c0.136,-0.946 0.312,-1.944 0.591,-2.925l0,-0.001l-0.002,0Z" serif:id="V 5 OLD"/></g><path fill="#fff" d="M17.395,7.263l-0.1,0.224l-0.031,0.015l-0.026,0.013l-0.056,0.028l-0.054,0.029l-0.055,0.029l-0.053,0.03l-0.053,0.031l-0.052,0.032l-0.051,0.032l-0.051,0.033l-0.05,0.034l-0.049,0.035l-0.049,0.035l-0.048,0.036l-0.047,0.037l-0.047,0.037l-0.046,0.038l-0.046,0.039l-0.037,0.032l-0.007,0.007l-0.045,0.04l-0.044,0.041l-0.044,0.041l-0.043,0.042l-0.042,0.042l-0.042,0.044l-0.041,0.044l-0.041,0.045l-0.04,0.045l-0.039,0.047l-0.04,0.047l-0.038,0.048l-0.038,0.048l-0.038,0.05l-0.037,0.05l-0.036,0.051l-0.036,0.051l-0.036,0.053l-0.035,0.053l-0.034,0.054l-0.034,0.055l-0.018,0.03l-0.016,0.025l-0.034,0.056l-0.033,0.056l-0.033,0.058l-0.033,0.058l-0.032,0.059l-0.031,0.06l-0.031,0.061l-0.031,0.061l-0.03,0.062l-0.03,0.064l-0.008,0.017l-0.022,0.046l-0.029,0.065l-0.03,0.065l-0.028,0.065l-0.057,0.135l-0.055,0.138l-0.053,0.142l-0.008,0.023l-0.045,0.121l-0.053,0.147l-0.05,0.151l-0.049,0.154l-0.036,0.118l-0.013,0.039l-0.05,0.16l-0.048,0.164l-0.047,0.167l-0.037,0.14l-0.009,0.03l-0.048,0.173l-0.037,0.143l-0.01,0.034l-0.048,0.18l-0.043,0.167l-0.004,0.016l-0.049,0.186l-0.048,0.19l-0.047,0.193l-0.045,0.197l-0.013,0.059l-0.034,0.142l-0.046,0.204l-0.046,0.207l-0.044,0.211l-0.026,0.128l-0.019,0.087l-0.044,0.218l-0.044,0.222l-0.043,0.225l-0.024,0.128l-0.019,0.101l-0.043,0.232l-0.043,0.236l-0.042,0.239l-0.041,0.243l-0.04,0.246l-0.025,0.158l-0.016,0.092l-0.041,0.253l-0.034,0.223l-0.006,0.035l-0.186,0.162l-0.159,-0.189l0,-0.035l-0.001,-0.226l0,-0.258l0.001,-0.094l0.002,-0.162l0.005,-0.252l0.005,-0.249l0.008,-0.246l0.008,-0.242l0.01,-0.24l0.005,-0.104l0.007,-0.133l0.015,-0.233l0.016,-0.23l0.017,-0.228l0.007,-0.09l0.013,-0.134l0.022,-0.22l0.024,-0.218l0.025,-0.215l0.019,-0.15l0.008,-0.061l0.031,-0.208l0.033,-0.206l0.034,-0.202l0.035,-0.199l0.003,-0.016l0.037,-0.179l0.042,-0.192l0.008,-0.036l0.037,-0.153l0.048,-0.185l0.009,-0.032l0.043,-0.149l0.055,-0.178l0.056,-0.175l0.058,-0.172l0.015,-0.042l0.047,-0.125l0.065,-0.164l0.066,-0.161l0.068,-0.158l0.058,-0.129l0.012,-0.025l0.073,-0.15l0.075,-0.146l0.077,-0.143l0.039,-0.071l0.04,-0.07l0.04,-0.068l0.03,-0.05l0.011,-0.018l0.041,-0.067l0.042,-0.065l0.043,-0.065l0.043,-0.064l0.044,-0.063l0.043,-0.062l0.045,-0.062l0.045,-0.06l0.045,-0.06l0.046,-0.058l0.021,-0.027l0.026,-0.031l0.047,-0.056l0.048,-0.056l0.048,-0.054l0.049,-0.054l0.049,-0.053l0.05,-0.052l0.05,-0.051l0.051,-0.049l0.051,-0.049l0.052,-0.049l0.052,-0.047l0.053,-0.046l0.053,-0.045l0.053,-0.044l0.054,-0.044l0.055,-0.042l0.055,-0.042l0.055,-0.04l0.056,-0.04l0.056,-0.038l0.057,-0.038l0.01,-0.006l0.048,-0.03l0.058,-0.035l0.058,-0.034l0.059,-0.033l0.06,-0.033l0.06,-0.031l0.06,-0.03l0.061,-0.029l0.061,-0.028l0.061,-0.028l0.063,-0.026l0.062,-0.025l0.063,-0.025l0.063,-0.023l0.064,-0.022l0.064,-0.022l0.065,-0.02l0.029,-0.009l0.035,-0.01l0.224,0.099Z"/><path fill="none" d="M17.944,7.954c-1.223,1.677 -2.072,5.611 -2.353,10.451" serif:id="V 4"/><clipPath id="c"><path d="M17.944,7.954c-1.223,1.677 -2.072,5.611 -2.353,10.451"/></clipPath><g clip-path="url(#c)"><path d="M16.321,12.974c0.011,-0.068 0.027,-0.137 0.037,-0.206c0.187,-0.979 0.394,-1.881 0.668,-2.753c0.13,-0.412 0.267,-0.788 0.423,-1.146c0.151,-0.343 0.309,-0.643 0.495,-0.915c-0.21,0.254 -0.394,0.545 -0.568,0.88c-0.182,0.349 -0.342,0.726 -0.49,1.134c-0.313,0.864 -0.544,1.78 -0.735,2.76c-0.027,0.122 -0.048,0.243 -0.069,0.365c-0.161,0.891 -0.275,1.771 -0.354,2.616c-0.095,1.009 -0.136,1.912 -0.137,2.696c0.076,-0.793 0.168,-1.663 0.3,-2.677c0.117,-0.892 0.254,-1.815 0.429,-2.755l0.001,0.001Z" serif:id="V 4 OLD"/></g><path fill="#fff" d="M18.103,8.067l-0.018,0.031l-0.031,0.052l-0.047,0.084l-0.047,0.088l-0.046,0.09l-0.045,0.094l-0.044,0.097l-0.044,0.1l-0.042,0.103l-0.043,0.105l-0.041,0.109l-0.003,0.008l-0.039,0.104l-0.041,0.114l-0.04,0.118l-0.039,0.12l-0.039,0.123l-0.038,0.126l-0.037,0.129l-0.037,0.131l-0.036,0.134l-0.035,0.137l-0.012,0.051l-0.023,0.088l-0.035,0.142l-0.034,0.144l-0.034,0.147l-0.033,0.149l-0.008,0.039l-0.025,0.113l-0.033,0.154l-0.032,0.156l-0.032,0.159l-0.026,0.14l-0.005,0.022l-0.032,0.163l-0.032,0.165l-0.031,0.168l-0.03,0.17l-0.004,0.023l-0.029,0.149l-0.032,0.174l-0.032,0.176l-0.031,0.178l0,0.001l-0.035,0.179l-0.035,0.182l-0.034,0.184l-0.033,0.181l-0.001,0.005l-0.037,0.187l-0.037,0.19l-0.036,0.192l-0.035,0.193l-0.011,0.063l-0.025,0.133l-0.037,0.197l-0.036,0.199l-0.036,0.201l-0.024,0.144l-0.011,0.059l-0.036,0.205l-0.035,0.206l-0.035,0.209l-0.029,0.178l-0.005,0.032l-0.035,0.211l-0.035,0.214l-0.034,0.215l-0.033,0.216l-0.032,0.218l-0.032,0.22l-0.012,0.085l-0.02,0.137l-0.032,0.222l-0.032,0.225l-0.207,0.201l-0.183,-0.224l-0.004,-0.228l-0.003,-0.227l-0.002,-0.139l0,-0.086l0.001,-0.225l0.001,-0.223l0.002,-0.221l0.003,-0.22l0.004,-0.219l0.005,-0.217l0.001,-0.033l0.006,-0.183l0.009,-0.214l0.01,-0.213l0.01,-0.211l0.003,-0.062l0.01,-0.148l0.014,-0.207l0.015,-0.206l0.016,-0.204l0.011,-0.138l0.006,-0.065l0.021,-0.2l0.021,-0.199l0.022,-0.197l0.023,-0.195l0.001,-0.005l0.027,-0.187l0.029,-0.19l0.029,-0.189l0.03,-0.186l0,0l0.037,-0.183l0.037,-0.181l0.038,-0.179l0.033,-0.154l0.006,-0.023l0.043,-0.174l0.043,-0.172l0.044,-0.169l0.045,-0.167l0.006,-0.023l0.041,-0.141l0.048,-0.162l0.049,-0.159l0.05,-0.157l0.037,-0.115l0.013,-0.039l0.052,-0.151l0.053,-0.149l0.054,-0.146l0.054,-0.144l0.034,-0.089l0.021,-0.051l0.056,-0.138l0.057,-0.135l0.058,-0.132l0.058,-0.129l0.059,-0.126l0.059,-0.124l0.059,-0.12l0.06,-0.118l0.061,-0.115l0.057,-0.104l0.004,-0.008l0.062,-0.108l0.063,-0.105l0.063,-0.102l0.064,-0.099l0.064,-0.096l0.065,-0.093l0.065,-0.089l0.065,-0.087l0.066,-0.082l0.04,-0.049l0.025,-0.029l0.272,-0.046l0.046,0.272Z"/><path fill="none" d="M19.067,8.235l-0.44,10.677" serif:id="V 3"/><clipPath id="d"><path d="M19.067,8.235l-0.44,10.677"/></clipPath><g clip-path="url(#d)"><path d="M18.953,13.498c0.08,-1.959 0.12,-3.839 0.114,-5.263c-0.126,1.457 -0.243,3.399 -0.326,5.413c-0.079,1.959 -0.12,3.839 -0.114,5.264l0.326,-5.414Z" serif:id="V 3 OLD"/></g><path fill="#fff" d="M19.274,8.243l0.001,0.035l0.05,1.057l0.05,1.37l0.017,0.737l0.008,0.743l-0.004,0.729l-0.019,0.692l-0.044,0.739l-0.072,0.842l-0.088,0.882l-0.095,0.861l-0.17,1.41l-0.07,0.546l-0.005,0.034l-0.215,0.201l-0.197,-0.218l-0.002,-0.034l-0.025,-0.55l-0.053,-1.419l-0.024,-0.866l-0.016,-0.887l-0.001,-0.844l0.016,-0.741l0.038,-0.691l0.056,-0.727l0.069,-0.74l0.078,-0.733l0.163,-1.361l0.137,-1.05l0.004,-0.034l0.215,-0.198l0.198,0.215Z"/><path fill="none" d="M20.303,8.081c1.52,3.732 1.482,5.909 1.391,10.431" serif:id="V 2"/><clipPath id="e"><path d="M20.303,8.081c1.52,3.732 1.482,5.909 1.391,10.431"/></clipPath><g clip-path="url(#e)"><path d="M21.708,13.118c-0.066,-0.603 -0.163,-1.194 -0.29,-1.77c-0.283,-1.28 -0.695,-2.383 -1.115,-3.267c0.337,0.922 0.683,2.029 0.932,3.305c0.122,0.624 0.215,1.26 0.282,1.91c0.031,0.323 0.059,0.644 0.078,0.964c0.053,0.827 0.057,1.652 0.058,2.401c0,0.359 -0.001,0.672 0.004,1.001c0.004,0.306 0.016,0.58 0.037,0.851c0.003,-0.275 0.016,-0.543 0.032,-0.85c0.015,-0.317 0.037,-0.65 0.055,-0.999c0.037,-0.752 0.056,-1.577 0.016,-2.415l0,0c-0.016,-0.375 -0.048,-0.753 -0.089,-1.131l0,0Z" serif:id="V 2 OLD"/></g><path fill="#fff" d="M20.482,8.009l0.015,0.029l0.071,0.139l0.084,0.167l0.082,0.165l0.079,0.164l0.076,0.162l0.074,0.159l0.001,0.002l0.071,0.159l0.068,0.159l0.067,0.157l0.064,0.156l0.062,0.155l0.061,0.154l0.058,0.153l0.057,0.152l0.014,0.039l0.039,0.113l0.051,0.152l0.049,0.151l0.047,0.15l0.045,0.149l0.043,0.151l0.04,0.149l0.039,0.15l0.037,0.149l0.033,0.137l0.002,0.012l0.032,0.15l0.03,0.149l0.029,0.15l0.028,0.15l0.021,0.122l0.004,0.028l0.022,0.151l0.02,0.151l0.019,0.151l0.018,0.152l0.007,0.069l0.007,0.084l0.012,0.154l0.008,0.122l0.002,0.032l0.007,0.155l0.006,0.156l0.002,0.051l0.001,0.106l0.002,0.158l0,0.16l-0.001,0.16l-0.001,0.162l-0.002,0.109l-0.001,0.054l-0.006,0.164l-0.007,0.166l-0.015,0.337l-0.01,0.17l-0.011,0.174l-0.025,0.352l-0.026,0.338l-0.002,0.023l-0.034,0.37l-0.036,0.381l-0.038,0.392l-0.024,0.242l-0.058,0.546l-0.004,0.032l-0.197,0.192l-0.189,-0.199l-0.003,-0.033l-0.037,-0.547l-0.014,-0.243l-0.025,-0.392l-0.024,-0.38l-0.026,-0.368l-0.001,-0.023l-0.021,-0.335l-0.024,-0.347l-0.013,-0.171l-0.01,-0.167l-0.024,-0.33l-0.013,-0.161l-0.013,-0.159l-0.005,-0.052l-0.008,-0.106l-0.012,-0.156l-0.013,-0.154l-0.014,-0.153l-0.014,-0.151l-0.011,-0.102l-0.004,-0.048l-0.014,-0.148l-0.014,-0.147l-0.004,-0.031l-0.01,-0.116l-0.014,-0.145l-0.009,-0.079l-0.005,-0.066l-0.013,-0.144l-0.014,-0.143l-0.015,-0.143l-0.016,-0.142l-0.003,-0.027l-0.012,-0.116l-0.016,-0.142l-0.016,-0.142l-0.019,-0.142l-0.019,-0.143l-0.002,-0.011l-0.017,-0.132l-0.02,-0.143l-0.022,-0.144l-0.023,-0.144l-0.024,-0.145l0,-0.001l-0.024,-0.145l-0.026,-0.148l-0.028,-0.148l-0.029,-0.149l-0.023,-0.112l-0.007,-0.039l-0.031,-0.152l-0.032,-0.154l-0.035,-0.155l-0.036,-0.157l-0.037,-0.158l-0.04,-0.161l-0.042,-0.162l-0.043,-0.164l-0.001,-0.002l-0.043,-0.165l-0.046,-0.169l-0.048,-0.172l-0.05,-0.174l-0.052,-0.176l-0.045,-0.148l-0.009,-0.031l0.107,-0.252l0.251,0.107Z"/><path fill="none" d="M21.226,7.475c2.259,1.93 3.477,5.188 2.835,9.89" serif:id="V 1"/><clipPath id="f"><path d="M21.226,7.475c2.259,1.93 3.477,5.188 2.835,9.89"/></clipPath><g clip-path="url(#f)"><path d="M23.972,11.93c-0.015,-0.063 -0.031,-0.132 -0.047,-0.195c-0.23,-0.86 -0.571,-1.656 -1.01,-2.36c-0.507,-0.812 -1.11,-1.439 -1.689,-1.9c0.544,0.502 1.108,1.149 1.583,1.964c0.412,0.706 0.733,1.492 0.957,2.338c0.032,0.117 0.059,0.227 0.086,0.344c0.18,0.777 0.273,1.559 0.309,2.319c0.053,1.087 -0.016,2.097 -0.101,2.927c0.146,-0.822 0.26,-1.832 0.235,-2.932c-0.016,-0.819 -0.113,-1.668 -0.32,-2.508l-0.003,0.003Z" serif:id="V 1 OLD"/></g><path fill="#fff" d="M21.357,7.377l0.086,0.064l0.112,0.088l0.112,0.09l0.11,0.092l0.109,0.095l0.107,0.097l0.106,0.099l0.086,0.083l0.018,0.018l0.102,0.105l0.101,0.106l0.099,0.109l0.097,0.112l0.096,0.113l0.094,0.116l0.093,0.118l0.091,0.12l0.089,0.123l0.036,0.051l0.051,0.075l0.084,0.128l0.083,0.13l0.08,0.132l0.079,0.135l0.03,0.054l0.046,0.084l0.074,0.14l0.072,0.142l0.069,0.144l0.068,0.147l0.018,0.041l0.046,0.108l0.062,0.152l0.059,0.154l0.057,0.156l0.05,0.142l0.005,0.016l0.051,0.161l0.047,0.164l0.046,0.165l0.044,0.167l0.006,0.025l0.032,0.145l0.035,0.172l0.009,0.044l0.023,0.13l0.028,0.177l0.014,0.091l0.011,0.087l0.021,0.181l0.019,0.182l0.016,0.184l0.013,0.186l0.003,0.053l0.007,0.135l0.006,0.19l0.003,0.191l0.001,0.193l-0.001,0.195l-0.001,0.011l-0.005,0.186l-0.009,0.199l-0.011,0.2l-0.014,0.202l-0.008,0.1l-0.01,0.104l-0.021,0.205l-0.023,0.208l-0.027,0.208l-0.029,0.211l-0.032,0.212l-0.035,0.215l-0.013,0.07l-0.026,0.145l-0.042,0.218l-0.038,0.185l-0.007,0.033l-0.177,0.138l-0.135,-0.179l0.002,-0.033l0.01,-0.188l0.01,-0.217l0.006,-0.144l0.003,-0.07l0.006,-0.212l0.004,-0.21l0.001,-0.207l-0.001,-0.204l-0.003,-0.203l-0.006,-0.199l-0.004,-0.101l-0.003,-0.096l-0.009,-0.195l-0.011,-0.192l-0.014,-0.19l-0.015,-0.177l-0.001,-0.01l-0.016,-0.185l-0.019,-0.183l-0.021,-0.18l-0.023,-0.178l-0.019,-0.126l-0.006,-0.05l-0.026,-0.173l-0.027,-0.171l-0.03,-0.169l-0.032,-0.167l-0.016,-0.08l-0.017,-0.084l-0.033,-0.163l-0.027,-0.119l-0.008,-0.041l-0.036,-0.158l-0.032,-0.134l-0.005,-0.023l-0.037,-0.155l-0.038,-0.153l-0.041,-0.151l-0.042,-0.149l-0.005,-0.015l-0.038,-0.133l-0.044,-0.146l-0.046,-0.144l-0.048,-0.143l-0.036,-0.102l-0.013,-0.038l-0.05,-0.139l-0.053,-0.138l-0.054,-0.136l-0.056,-0.133l-0.035,-0.081l-0.022,-0.052l-0.059,-0.131l-0.061,-0.129l-0.062,-0.127l-0.065,-0.126l-0.04,-0.074l-0.026,-0.051l-0.067,-0.123l-0.069,-0.121l-0.071,-0.12l-0.073,-0.118l-0.075,-0.116l-0.077,-0.115l-0.078,-0.113l-0.081,-0.112l-0.082,-0.109l-0.016,-0.02l-0.068,-0.089l-0.085,-0.107l-0.087,-0.106l-0.089,-0.104l-0.091,-0.102l-0.092,-0.101l-0.095,-0.098l-0.074,-0.075l-0.023,-0.024l-0.015,-0.222l0.222,-0.015l0.027,0.02Z"/><path fill="#fff" d="M21.278,6.547l0.023,0.002l0.07,0.008l0.07,0.008l0.069,0.009l0.069,0.011l0.069,0.011l0.068,0.012l0.067,0.014l0.068,0.015l0.067,0.015l0.066,0.017l0.067,0.018l0.066,0.018l0.065,0.02l0.065,0.021l0.06,0.02l0.004,0.002l0.064,0.023l0.064,0.025l0.063,0.025l0.063,0.026l0.062,0.028l0.062,0.028l0.061,0.03l0.061,0.03l0.061,0.032l0.06,0.032l0.059,0.034l0.06,0.035l0.058,0.035l0.058,0.037l0.058,0.037l0.057,0.039l0.057,0.04l0.057,0.04l0.055,0.042l0.056,0.042l0.021,0.017l0.033,0.027l0.054,0.045l0.054,0.046l0.052,0.047l0.053,0.048l0.052,0.049l0.051,0.05l0.051,0.05l0.05,0.052l0.05,0.053l0.049,0.053l0.049,0.055l0.048,0.055l0.048,0.056l0.047,0.057l0.047,0.059l0.046,0.059l0.046,0.059l0.045,0.061l0.044,0.062l0.044,0.062l0.008,0.011l0.035,0.053l0.043,0.065l0.041,0.066l0.041,0.066l0.041,0.068l0.04,0.068l0.04,0.069l0.039,0.07l0.038,0.07l0.022,0.043l0.016,0.029l0.036,0.073l0.036,0.074l0.035,0.074l0.035,0.075l0.035,0.076l0.033,0.077l0.034,0.078l0.032,0.078l0.002,0.005l0.029,0.075l0.03,0.081l0.03,0.081l0.029,0.082l0.028,0.083l0.028,0.083l0.028,0.085l0.042,0.136l0.01,0.035l0.048,0.174l0.046,0.178l0.044,0.18l0.042,0.183l0.015,0.072l0.023,0.115l0.035,0.189l0.032,0.192l0.031,0.195l0.028,0.198l0.025,0.2l0.024,0.204l0.021,0.205l0.019,0.209l0.001,0.019l0.013,0.192l0.013,0.214l0.01,0.217l0.007,0.219l0.006,0.222l0.003,0.224l0,0.227l-0.001,0.229l-0.004,0.231l-0.101,0.117l-0.106,-0.111l-0.017,-0.23l-0.018,-0.226l-0.021,-0.223l-0.023,-0.22l-0.024,-0.218l-0.027,-0.214l-0.028,-0.211l-0.031,-0.208l-0.029,-0.186l-0.003,-0.019l-0.033,-0.202l-0.034,-0.199l-0.037,-0.196l-0.038,-0.192l-0.041,-0.19l-0.042,-0.186l-0.045,-0.183l-0.046,-0.18l-0.029,-0.108l-0.018,-0.068l-0.048,-0.174l-0.05,-0.17l-0.052,-0.167l-0.054,-0.164l-0.012,-0.033l-0.043,-0.129l-0.027,-0.078l-0.028,-0.079l-0.028,-0.077l-0.029,-0.077l-0.03,-0.076l-0.03,-0.075l-0.028,-0.071l-0.002,-0.004l-0.029,-0.074l-0.03,-0.073l-0.031,-0.072l-0.031,-0.072l-0.031,-0.07l-0.032,-0.07l-0.033,-0.069l-0.033,-0.068l-0.013,-0.028l-0.019,-0.04l-0.033,-0.067l-0.034,-0.066l-0.034,-0.065l-0.035,-0.064l-0.035,-0.064l-0.035,-0.063l-0.036,-0.062l-0.036,-0.061l-0.031,-0.05l-0.006,-0.01l-0.037,-0.06l-0.037,-0.059l-0.038,-0.058l-0.038,-0.057l-0.039,-0.057l-0.039,-0.056l-0.04,-0.054l-0.04,-0.054l-0.04,-0.054l-0.042,-0.052l-0.041,-0.052l-0.043,-0.05l-0.042,-0.05l-0.043,-0.049l-0.044,-0.048l-0.044,-0.047l-0.045,-0.047l-0.045,-0.046l-0.046,-0.044l-0.046,-0.044l-0.029,-0.027l-0.018,-0.016l-0.046,-0.043l-0.048,-0.042l-0.048,-0.041l-0.048,-0.041l-0.049,-0.039l-0.049,-0.038l-0.05,-0.038l-0.051,-0.037l-0.051,-0.036l-0.051,-0.035l-0.052,-0.035l-0.053,-0.033l-0.053,-0.033l-0.054,-0.031l-0.054,-0.031l-0.055,-0.03l-0.056,-0.029l-0.056,-0.029l-0.056,-0.027l-0.057,-0.026l-0.005,-0.002l-0.053,-0.024l-0.058,-0.025l-0.059,-0.025l-0.059,-0.023l-0.06,-0.022l-0.061,-0.022l-0.061,-0.02l-0.061,-0.02l-0.063,-0.019l-0.062,-0.018l-0.064,-0.017l-0.064,-0.016l-0.064,-0.015l-0.066,-0.014l-0.065,-0.014l-0.022,-0.004l-0.046,-0.008l-0.089,-0.117l0.117,-0.089l0.047,0.004Z" serif:id="V 0"/><path fill="#fff" d="M17.665,6.439l0.009,-0.011l-0.016,0.029l-0.015,0.029l0.01,-0.013l-0.013,0.028l-0.012,0.028l0.009,-0.015l-0.01,0.028l-0.008,0.027l0.009,-0.017l-0.007,0.027l-0.005,0.026l0.007,-0.019l-0.004,0.026l-0.002,0.025l0.006,-0.021l-0.001,0.021l0,0.004l-0.001,0.025l0.004,-0.022l0,0.024l0.002,0.025l0.002,-0.023l0.003,0.024l0.004,0.024l0,-0.022l0.005,0.024l0.007,0.024l-0.003,-0.022l0.008,0.025l0.009,0.025l-0.004,-0.022l0.011,0.026l0.011,0.025l-0.006,-0.02l0.014,0.026l0.015,0.026l-0.008,-0.019l0.017,0.027l0.018,0.027l-0.008,-0.017l0.019,0.027l0.021,0.028l-0.008,-0.016l0.023,0.029l0.019,0.021l0.021,0.024l0.017,0.016l0.016,0.015l0.037,0.036l0.037,0.032l0.038,0.03l0.039,0.028l0.041,0.027l0.041,0.025l0.043,0.024l0.028,0.015l0.015,0.008l0.044,0.024l0.045,0.021l0.046,0.021l0.047,0.019l0.049,0.018l0.049,0.017l0.051,0.015l0.051,0.014l0.053,0.012l0.014,0.004l0.039,0.01l0.053,0.013l0.054,0.011l0.055,0.01l0.056,0.009l0.056,0.007l0.057,0.006l0.057,0.005l0.057,0.003l0.01,0.001l0.048,0.004l0.057,0.004l0.058,0.003l0.058,0.001l0.04,0l0.018,0l0.058,0.001l0.058,-0.001l0.058,-0.001l0.058,-0.004l0.038,-0.003l0.019,0l0.057,-0.004l0.056,-0.005l0.056,-0.006l0.055,-0.007l0.055,-0.009l0.053,-0.01l0.053,-0.011l0.051,-0.012l0.05,-0.014l0.049,-0.014l0.048,-0.016l0.001,0l0.046,-0.014l0.046,-0.016l0.044,-0.017l0.042,-0.018l0.041,-0.018l0.04,-0.019l0.037,-0.02l0.036,-0.021l0.034,-0.022l0.032,-0.022l0.031,-0.022l0.036,-0.032l-0.014,0.017l0.033,-0.032l0.015,-0.015l0.018,-0.018l-0.013,0.019l0.031,-0.034l0.029,-0.035l-0.032,0.068l0.014,-0.025l0.013,-0.025l-0.003,0.011l0.012,-0.025l0.012,-0.025l-0.003,0.011l0.011,-0.024l0.01,-0.025l-0.003,0.012l0.009,-0.024l0.009,-0.025l-0.002,0.013l0.007,-0.024l0.007,-0.024l-0.001,0.013l0.006,-0.024l0.005,-0.025l0,0.014l0.004,-0.024l0.003,-0.024l0.001,0.013l0.003,-0.024l0.002,-0.024l0.001,0.013l0.001,-0.024l0.001,-0.024l0.002,0.013l-0.001,-0.025l-0.001,-0.024l0.003,0.012l-0.002,-0.023l0,-0.001l-0.003,-0.025l0.004,0.012l-0.004,-0.026l-0.004,-0.025l0.004,0.011l-0.005,-0.026l-0.006,-0.025l0.004,0.01l-0.007,-0.026l-0.008,-0.027l0.005,0.01l-0.01,-0.027l-0.01,-0.027l0.005,0.008l-0.011,-0.027l-0.013,-0.027l0.005,0.007l-0.013,-0.028l-0.015,-0.028l0.005,0.007l-0.016,-0.028l-0.015,-0.026l-0.016,-0.026l-0.017,-0.026l-0.019,-0.027l-0.02,-0.027l-0.021,-0.027l-0.022,-0.028l-0.024,-0.028l-0.025,-0.029l-0.027,-0.029l-0.028,-0.029l-0.029,-0.029l-0.031,-0.029l-0.032,-0.03l-0.032,-0.029l-0.072,-0.061l-0.076,-0.061l-0.023,-0.017l-0.059,-0.046l-0.087,-0.064l-0.092,-0.064l-0.098,-0.065l-0.079,-0.05l-0.026,-0.016l-0.046,-0.103l0.105,-0.04l0.03,0.007l0.093,0.021l0.118,0.03l0.114,0.032l0.11,0.034l0.077,0.026l0.029,0.01l0.101,0.039l0.096,0.04l0.048,0.022l0.045,0.022l0.045,0.022l0.044,0.022l0.043,0.024l0.042,0.024l0.041,0.024l0.04,0.025l0.039,0.026l0.038,0.026l0.038,0.027l0.036,0.027l0.035,0.029l0.034,0.028l0.033,0.03l0.033,0.03l0.031,0.031l0.03,0.032l0.029,0.033l0.028,0.033l0.027,0.034l0.026,0.035l0.024,0.036l0.024,0.037l0.022,0.037l0.021,0.038l0.019,0.038l0.019,0.04l0.017,0.04l0.015,0.04l0.013,0.042l0.012,0.041l0.011,0.043l0.01,0.042l0.008,0.043l0.006,0.044l0.005,0.043l0.004,0.044l0.002,0.044l0.001,0.044l0,0.044l-0.002,0.045l-0.003,0.044l-0.004,0.045l-0.006,0.044l-0.007,0.044l-0.008,0.045l-0.009,0.044l-0.01,0.044l-0.023,0.074l-0.046,0.097l-0.037,0.072l-0.022,0.038l-0.019,0.031l-0.044,0.068l-0.047,0.065l-0.051,0.063l-0.053,0.062l-0.055,0.059l-0.058,0.057l-0.06,0.055l-0.062,0.053l-0.064,0.051l-0.066,0.049l-0.067,0.047l-0.07,0.045l-0.069,0.043l-0.002,0.001l-0.073,0.039l-0.075,0.038l-0.076,0.036l-0.078,0.033l-0.079,0.032l-0.079,0.03l-0.081,0.029l-0.082,0.026l-0.083,0.024l-0.084,0.023l-0.085,0.02l-0.028,0.007l-0.058,0.011l-0.086,0.014l-0.087,0.012l-0.088,0.011l-0.088,0.008l-0.028,0.002l-0.061,0.003l-0.089,0.001l-0.089,0l-0.09,-0.002l-0.073,-0.004l-0.016,-0.001l-0.09,-0.01l-0.089,-0.012l-0.089,-0.015l-0.088,-0.017l-0.089,-0.019l-0.088,-0.021l-0.087,-0.024l-0.087,-0.026l-0.063,-0.021l-0.023,-0.008l-0.085,-0.034l-0.083,-0.037l-0.083,-0.039l-0.082,-0.041l-0.08,-0.045l-0.079,-0.046l-0.077,-0.05l-0.076,-0.052l-0.075,-0.055l-0.025,-0.02l-0.046,-0.039l-0.069,-0.062l-0.067,-0.065l-0.065,-0.068l-0.062,-0.07l-0.059,-0.073l-0.057,-0.076l-0.051,-0.076l-0.027,-0.042l-0.026,-0.041l-0.031,-0.054l-0.028,-0.052l-0.001,-0.003l-0.027,-0.057l-0.025,-0.056l-0.023,-0.057l-0.02,-0.057l-0.018,-0.058l-0.016,-0.058l-0.014,-0.058l-0.011,-0.059l-0.009,-0.059l-0.006,-0.059l-0.003,-0.059l-0.001,-0.059l0.003,-0.058l0.005,-0.058l0.007,-0.058l0.011,-0.057l0.013,-0.056l0.017,-0.055l0.003,-0.009l0.016,-0.045l0.022,-0.052l0.024,-0.051l0.027,-0.05l0.029,-0.048l0.031,-0.046l0.033,-0.045l0.035,-0.043l0.036,-0.041l0.038,-0.04l0.04,-0.038l0.041,-0.036l0.043,-0.035l0.044,-0.034l0.045,-0.032l0.046,-0.031l0.048,-0.03l0.049,-0.028l0.051,-0.027l0.051,-0.026l0.053,-0.024l0.053,-0.024l0.056,-0.023l0.056,-0.021l0.057,-0.021l0.059,-0.019l0.06,-0.019l0.061,-0.017l0.062,-0.017l0.005,-0.001l0.059,-0.013l0.065,-0.014l0.066,-0.013l0.067,-0.011l0.069,-0.011l0.07,-0.01l0.071,-0.009l0.072,-0.008l0.073,-0.007l0.075,-0.006l0.076,-0.006l0.077,-0.004l0.078,-0.004l0.079,-0.002l0.049,-0.001l0.031,-0.001l0.09,0.062l-0.061,0.09l-0.029,0.011l-0.045,0.016l-0.072,0.028l-0.071,0.028l-0.068,0.028l-0.067,0.029l-0.065,0.029l-0.063,0.029l-0.062,0.029l-0.059,0.03l-0.058,0.029l-0.056,0.03l-0.054,0.03l-0.052,0.03l-0.05,0.03l-0.045,0.028l-0.004,0.003l-0.046,0.029l-0.045,0.029l-0.043,0.03l-0.042,0.029l-0.039,0.029l-0.037,0.029l-0.035,0.029l-0.033,0.029l-0.032,0.029l-0.029,0.028l-0.027,0.028l-0.026,0.028l-0.023,0.027l-0.021,0.027l-0.02,0.026l-0.022,0.031l0.009,-0.009l-0.019,0.029l-0.019,0.03Z" serif:id="H 5"/><path fill="#fff" d="M16.216,6.076l-0.015,0.075l-0.029,0.021l-0.01,0.008l-0.037,0.03l-0.036,0.03l-0.034,0.031l-0.034,0.031l-0.032,0.031l-0.031,0.032l-0.03,0.032l-0.029,0.032l-0.028,0.033l-0.027,0.033l-0.025,0.034l-0.025,0.033l-0.023,0.034l-0.022,0.034l-0.022,0.035l-0.02,0.035l-0.019,0.035l-0.018,0.035l-0.017,0.035l-0.016,0.036l-0.014,0.036l-0.014,0.035l-0.013,0.037l-0.012,0.036l-0.011,0.036l-0.01,0.037l-0.009,0.036l-0.008,0.037l-0.007,0.037l-0.006,0.037l-0.005,0.037l-0.004,0.037l-0.003,0.038l-0.002,0.037l0,0.003l-0.002,0.034l-0.001,0.038l0.001,0.037l0.001,0.038l0.002,0.038l0.003,0.037l0.003,0.038l0.005,0.038l0.006,0.037l0.006,0.038l0.007,0.038l0.009,0.038l0.009,0.038l0.01,0.037l0.011,0.038l0.012,0.038l0.012,0.037l0.014,0.038l0.014,0.037l0.016,0.038l0.016,0.037l0.017,0.037l0.018,0.037l0.019,0.037l0.02,0.037l0.02,0.037l0.021,0.037l0.023,0.036l0.023,0.036l0.024,0.036l0.025,0.036l0.026,0.036l0.026,0.035l0.028,0.035l0.028,0.035l0.029,0.035l0.03,0.035l0.031,0.034l0.032,0.034l0.032,0.033l0.033,0.034l0.023,0.021l0.012,0.012l0.034,0.033l0.036,0.033l0.036,0.032l0.037,0.032l0.038,0.032l0.039,0.031l0.04,0.031l0.04,0.031l0.042,0.03l0.042,0.03l0.043,0.029l0.044,0.029l0.045,0.029l0.045,0.028l0.046,0.027l0.048,0.027l0.048,0.027l0.035,0.018l0.013,0.008l0.05,0.026l0.05,0.026l0.051,0.025l0.052,0.024l0.053,0.024l0.053,0.024l0.054,0.023l0.055,0.022l0.056,0.022l0.057,0.021l0.058,0.02l0.058,0.02l0.06,0.019l0.06,0.019l0.061,0.017l0.028,0.008l0.033,0.01l0.062,0.017l0.064,0.017l0.063,0.016l0.065,0.015l0.066,0.015l0.066,0.014l0.068,0.013l0.068,0.012l0.069,0.012l0.069,0.011l0.071,0.01l0.071,0.009l0.067,0.007l0.006,0.001l0.073,0.009l0.073,0.007l0.075,0.007l0.109,0.01l0.077,0.017l0.044,0.009l0.036,0.007l0.009,0.001l0.045,0.008l0.046,0.007l0.047,0.006l0.047,0.006l0.049,0.004l0.049,0.004l0.049,0.003l0.05,0.002l0.051,0.003l0.052,0.001l0.052,0.001l0.052,0l0.053,-0.001l0.053,-0.001l0.054,-0.003l0.05,-0.003l0.004,0l0.055,-0.003l0.055,-0.004l0.055,-0.004l0.055,-0.006l0.056,-0.006l0.056,-0.007l0.056,-0.007l0.056,-0.009l0.013,-0.002l0.044,-0.006l0.056,-0.009l0.057,-0.01l0.057,-0.01l0.056,-0.011l0.057,-0.012l0.057,-0.013l0.056,-0.013l0.057,-0.014l0.056,-0.015l0.056,-0.015l0.056,-0.016l0.056,-0.017l0.055,-0.017l0.055,-0.018l0.055,-0.019l0.054,-0.019l0.044,-0.016l0.01,-0.004l0.054,-0.02l0.054,-0.02l0.053,-0.021l0.052,-0.022l0.052,-0.022l0.052,-0.023l0.051,-0.023l0.05,-0.024l0.049,-0.024l0.049,-0.025l0.049,-0.026l0.047,-0.026l0.047,-0.027l0.046,-0.027l0.045,-0.027l0.044,-0.028l0.044,-0.029l0.043,-0.029l0.041,-0.03l0.001,0l0.04,-0.029l0.041,-0.03l0.039,-0.03l0.038,-0.031l0.037,-0.031l0.036,-0.032l0.035,-0.032l0.034,-0.032l0.033,-0.033l0.032,-0.033l0.03,-0.033l0.03,-0.034l0.028,-0.034l0.027,-0.034l0.026,-0.035l0.025,-0.035l0.023,-0.035l0.022,-0.036l0.021,-0.035l0.02,-0.036l0.018,-0.037l0.007,-0.015l0.01,-0.021l0.016,-0.037l0.015,-0.037l0.014,-0.038l0.012,-0.037l0.011,-0.039l0.01,-0.038l0.008,-0.039l0.007,-0.04l0.005,-0.04l0.004,-0.04l0.002,-0.041l0.001,-0.042l-0.001,-0.042l-0.002,-0.043l-0.004,-0.043l-0.006,-0.044l-0.007,-0.045l-0.01,-0.045l-0.011,-0.046l-0.013,-0.047l-0.015,-0.047l-0.017,-0.048l-0.019,-0.049l-0.021,-0.049l-0.023,-0.05l-0.026,-0.051l-0.028,-0.051l-0.03,-0.052l-0.032,-0.052l-0.035,-0.053l-0.037,-0.053l-0.04,-0.054l-0.031,-0.041l-0.011,-0.014l-0.044,-0.055l-0.046,-0.056l-0.05,-0.056l-0.052,-0.057l-0.054,-0.057l-0.057,-0.058l-0.06,-0.058l-0.063,-0.058l-0.041,-0.037l-0.024,-0.022l-0.013,-0.078l0.078,-0.008l0.028,0.018l0.047,0.03l0.074,0.049l0.07,0.049l0.068,0.049l0.066,0.05l0.064,0.05l0.061,0.05l0.058,0.051l0.057,0.051l0.013,0.013l0.04,0.038l0.052,0.052l0.049,0.052l0.046,0.052l0.045,0.053l0.042,0.053l0.04,0.053l0.038,0.054l0.035,0.053l0.034,0.054l0.031,0.055l0.029,0.054l0.027,0.055l0.025,0.055l0.022,0.056l0.021,0.055l0.018,0.056l0.016,0.056l0.014,0.056l0.011,0.056l0.01,0.056l0.007,0.057l0.005,0.056l0.004,0.056l0.001,0.057l-0.001,0.056l-0.003,0.056l-0.006,0.056l-0.007,0.055l-0.009,0.055l-0.011,0.055l-0.012,0.055l-0.015,0.054l-0.009,0.031l-0.008,0.023l-0.018,0.054l-0.021,0.052l-0.022,0.053l-0.023,0.052l-0.025,0.051l-0.027,0.051l-0.028,0.05l-0.03,0.05l-0.031,0.049l-0.033,0.049l-0.033,0.048l-0.035,0.048l-0.037,0.047l-0.037,0.046l-0.039,0.046l-0.04,0.046l-0.041,0.044l-0.043,0.044l-0.043,0.044l-0.044,0.043l-0.045,0.042l-0.001,0l-0.046,0.042l-0.048,0.041l-0.049,0.04l-0.049,0.039l-0.051,0.039l-0.051,0.039l-0.052,0.037l-0.053,0.037l-0.054,0.037l-0.054,0.036l-0.055,0.035l-0.056,0.034l-0.056,0.034l-0.058,0.033l-0.058,0.033l-0.058,0.032l-0.059,0.031l-0.06,0.03l-0.06,0.03l-0.011,0.005l-0.05,0.023l-0.061,0.028l-0.062,0.027l-0.062,0.026l-0.063,0.025l-0.063,0.025l-0.064,0.024l-0.064,0.023l-0.064,0.022l-0.064,0.022l-0.065,0.02l-0.065,0.02l-0.065,0.02l-0.066,0.018l-0.065,0.018l-0.066,0.016l-0.066,0.016l-0.051,0.012l-0.015,0.003l-0.067,0.013l-0.066,0.013l-0.066,0.011l-0.067,0.011l-0.066,0.01l-0.067,0.009l-0.066,0.007l-0.066,0.007l-0.005,0.001l-0.062,0.005l-0.066,0.004l-0.066,0.003l-0.066,0.002l-0.066,0.002l-0.065,0l-0.065,-0.001l-0.065,-0.002l-0.002,0l-0.063,-0.003l-0.065,-0.005l-0.064,-0.006l-0.063,-0.007l-0.064,-0.008l-0.063,-0.009l-0.062,-0.011l-0.062,-0.011l-0.013,-0.003l-0.049,-0.01l-0.061,-0.015l-0.026,-0.007l-0.053,-0.007l-0.085,-0.011l-0.084,-0.012l-0.083,-0.012l-0.007,-0.002l-0.076,-0.013l-0.081,-0.016l-0.081,-0.016l-0.079,-0.018l-0.079,-0.018l-0.078,-0.019l-0.077,-0.02l-0.076,-0.021l-0.075,-0.022l-0.074,-0.023l-0.073,-0.023l-0.073,-0.024l-0.071,-0.025l-0.039,-0.014l-0.031,-0.012l-0.07,-0.027l-0.068,-0.028l-0.067,-0.029l-0.067,-0.03l-0.065,-0.03l-0.065,-0.031l-0.063,-0.031l-0.063,-0.032l-0.061,-0.033l-0.061,-0.033l-0.059,-0.034l-0.059,-0.035l-0.058,-0.035l-0.056,-0.036l-0.056,-0.036l-0.016,-0.011l-0.039,-0.027l-0.053,-0.038l-0.053,-0.038l-0.051,-0.039l-0.05,-0.039l-0.05,-0.04l-0.048,-0.041l-0.048,-0.041l-0.046,-0.041l-0.045,-0.042l-0.045,-0.042l-0.043,-0.042l-0.042,-0.043l-0.042,-0.043l-0.04,-0.044l-0.039,-0.044l-0.039,-0.044l-0.037,-0.044l-0.012,-0.016l-0.024,-0.03l-0.035,-0.045l-0.033,-0.046l-0.033,-0.046l-0.031,-0.046l-0.031,-0.047l-0.03,-0.046l-0.028,-0.047l-0.027,-0.047l-0.027,-0.048l-0.025,-0.047l-0.024,-0.048l-0.024,-0.047l-0.022,-0.048l-0.021,-0.048l-0.02,-0.048l-0.019,-0.048l-0.018,-0.048l-0.016,-0.048l-0.016,-0.048l-0.015,-0.049l-0.013,-0.048l-0.013,-0.048l-0.011,-0.048l-0.011,-0.048l-0.009,-0.048l-0.008,-0.048l-0.007,-0.048l-0.006,-0.048l-0.005,-0.048l-0.004,-0.047l-0.003,-0.048l-0.002,-0.047l0,-0.047l0,-0.047l0.002,-0.047l0.003,-0.046l0.004,-0.046l0.004,-0.046l0.006,-0.046l0.007,-0.045l0.008,-0.042l0.001,-0.003l0.009,-0.045l0.011,-0.044l0.012,-0.044l0.013,-0.044l0.014,-0.043l0.015,-0.043l0.016,-0.042l0.017,-0.042l0.018,-0.041l0.02,-0.041l0.02,-0.04l0.021,-0.04l0.023,-0.039l0.023,-0.039l0.025,-0.038l0.025,-0.038l0.027,-0.037l0.028,-0.036l0.028,-0.036l0.03,-0.035l0.031,-0.034l0.031,-0.034l0.033,-0.033l0.034,-0.033l0.034,-0.031l0.036,-0.031l0.037,-0.031l0.037,-0.03l0.039,-0.028l0.039,-0.029l0.041,-0.027l0.041,-0.027l0.043,-0.026l0.043,-0.025l0.012,-0.006l0.032,-0.018l0.074,0.016Z" serif:id="H 4"/><path fill="#fff" d="M13.923,7.374l-0.017,0.057l-0.001,0l-0.016,0.057l-0.015,0.057l-0.014,0.057l-0.013,0.057l-0.012,0.058l-0.011,0.057l-0.009,0.058l-0.009,0.057l-0.008,0.058l-0.007,0.058l-0.005,0.057l-0.005,0.058l-0.004,0.058l-0.002,0.058l-0.002,0.058l-0.001,0.058l0,0.057l0.002,0.058l0.002,0.058l0.003,0.058l0.004,0.057l0.005,0.058l0.006,0.058l0.008,0.057l0.008,0.057l0.008,0.058l0.01,0.057l0.011,0.057l0.008,0.036l0.004,0.021l0.012,0.056l0.013,0.057l0.014,0.057l0.015,0.056l0.016,0.056l0.017,0.056l0.017,0.056l0.019,0.056l0.019,0.055l0.021,0.055l0.021,0.055l0.022,0.055l0.023,0.054l0.024,0.054l0.025,0.054l0.026,0.053l0.026,0.054l0.027,0.053l0.029,0.052l0.029,0.052l0.03,0.052l0.03,0.052l0.032,0.051l0.032,0.051l0.034,0.05l0.034,0.05l0.035,0.05l0.036,0.049l0.036,0.049l0.038,0.048l0.038,0.048l0.039,0.048l0.04,0.047l0.04,0.046l0.035,0.039l0.007,0.007l0.041,0.046l0.043,0.046l0.043,0.045l0.044,0.044l0.045,0.044l0.046,0.043l0.046,0.043l0.047,0.042l0.048,0.042l0.049,0.041l0.05,0.041l0.05,0.04l0.051,0.039l0.052,0.039l0.052,0.038l0.054,0.037l0.054,0.037l0.015,0.01l0.039,0.027l0.056,0.036l0.056,0.035l0.056,0.035l0.058,0.034l0.058,0.033l0.059,0.033l0.06,0.032l0.06,0.031l0.062,0.031l0.062,0.03l0.062,0.029l0.064,0.028l0.064,0.027l0.065,0.027l0.066,0.026l0.036,0.014l0.03,0.012l0.067,0.025l0.068,0.024l0.068,0.024l0.069,0.023l0.07,0.021l0.071,0.022l0.071,0.02l0.072,0.019l0.073,0.019l0.074,0.017l0.074,0.017l0.076,0.015l0.075,0.015l0.077,0.014l0.008,0.001l0.069,0.013l0.078,0.014l0.079,0.012l0.08,0.012l0.08,0.01l0.081,0.01l0.082,0.008l0.083,0.007l0.083,0.007l0.085,0.005l0.085,0.004l0.086,0.004l0.053,0.001l0.033,0.002l0.088,0.003l0.106,0.003l0.158,0.012l0.138,0.009l0.138,0.006l0.137,0.004l0.137,0.001l0.135,-0.002l0.066,-0.002l0.069,-0.001l0.135,-0.003l0.133,-0.007l0.133,-0.009l0.131,-0.011l0.131,-0.014l0.13,-0.016l0.128,-0.019l0.127,-0.021l0.117,-0.022l0.009,-0.002l0.126,-0.024l0.123,-0.027l0.123,-0.029l0.12,-0.031l0.12,-0.033l0.117,-0.036l0.116,-0.038l0.115,-0.041l0.112,-0.042l0.111,-0.045l0.044,-0.019l0.066,-0.028l0.053,-0.023l0.053,-0.025l0.053,-0.025l0.052,-0.025l0.052,-0.026l0.052,-0.027l0.05,-0.027l0.051,-0.027l0.049,-0.028l0.05,-0.029l0.048,-0.029l0.048,-0.03l0.048,-0.03l0.047,-0.03l0.046,-0.031l0.046,-0.032l0.045,-0.032l0.044,-0.033l0.044,-0.033l0.043,-0.034l0.032,-0.025l0.011,-0.009l0.042,-0.034l0.042,-0.035l0.041,-0.035l0.041,-0.036l0.039,-0.036l0.039,-0.037l0.039,-0.038l0.038,-0.037l0.037,-0.039l0.036,-0.038l0.036,-0.04l0.035,-0.04l0.034,-0.04l0.034,-0.041l0.033,-0.041l0.032,-0.042l0.031,-0.042l0.031,-0.043l0.03,-0.043l0.029,-0.043l0.029,-0.045l0.027,-0.044l0.027,-0.046l0.027,-0.045l0.025,-0.047l0.024,-0.046l0.024,-0.047l0.023,-0.048l0.022,-0.048l0.022,-0.049l0.02,-0.049l0.02,-0.05l0.019,-0.05l0.017,-0.051l0.018,-0.051l0.016,-0.052l0.015,-0.052l0.014,-0.053l0.001,-0.002l0.013,-0.052l0.013,-0.053l0.012,-0.055l0.011,-0.054l0.01,-0.056l0.01,-0.056l0.008,-0.056l0.007,-0.057l0.006,-0.058l0.006,-0.058l0.004,-0.059l0.003,-0.059l0.002,-0.059l0.001,-0.061l0,-0.061l0.113,-0.135l0.131,0.117l0.009,0.063l0.008,0.065l0.007,0.064l0.005,0.063l0.005,0.064l0.003,0.064l0.002,0.063l0.001,0.063l0,0.063l-0.001,0.062l-0.003,0.063l-0.003,0.062l-0.005,0.062l-0.006,0.061l-0.007,0.06l0,0.002l-0.008,0.061l-0.01,0.06l-0.011,0.061l-0.011,0.06l-0.013,0.06l-0.014,0.059l-0.015,0.06l-0.016,0.059l-0.017,0.058l-0.018,0.058l-0.019,0.058l-0.021,0.058l-0.021,0.057l-0.022,0.057l-0.023,0.056l-0.025,0.056l-0.025,0.056l-0.026,0.055l-0.027,0.055l-0.029,0.054l-0.029,0.055l-0.03,0.053l-0.031,0.053l-0.032,0.053l-0.033,0.052l-0.034,0.052l-0.034,0.052l-0.036,0.051l-0.036,0.05l-0.038,0.05l-0.038,0.05l-0.039,0.049l-0.04,0.049l-0.041,0.048l-0.041,0.048l-0.043,0.047l-0.043,0.047l-0.044,0.046l-0.012,0.012l-0.033,0.033l-0.046,0.045l-0.047,0.045l-0.047,0.043l-0.048,0.044l-0.049,0.042l-0.05,0.043l-0.05,0.041l-0.051,0.041l-0.052,0.041l-0.053,0.04l-0.053,0.039l-0.054,0.039l-0.054,0.039l-0.055,0.038l-0.056,0.037l-0.056,0.036l-0.058,0.037l-0.057,0.035l-0.059,0.035l-0.06,0.035l-0.071,0.04l-0.047,0.026l-0.123,0.064l-0.124,0.061l-0.127,0.059l-0.129,0.056l-0.131,0.054l-0.133,0.052l-0.135,0.049l-0.137,0.046l-0.138,0.044l-0.14,0.042l-0.011,0.002l-0.132,0.035l-0.144,0.034l-0.145,0.032l-0.147,0.029l-0.148,0.026l-0.149,0.024l-0.151,0.021l-0.152,0.018l-0.153,0.015l-0.078,0.006l-0.076,0.005l-0.155,0.006l-0.156,0.004l-0.157,0l-0.157,-0.002l-0.158,-0.005l-0.139,-0.007l-0.084,0l-0.101,-0.001l-0.039,0l-0.062,-0.003l-0.099,-0.006l-0.099,-0.007l-0.098,-0.009l-0.097,-0.009l-0.096,-0.011l-0.096,-0.012l-0.095,-0.013l-0.094,-0.014l-0.093,-0.016l-0.092,-0.016l-0.092,-0.018l-0.081,-0.017l-0.009,-0.002l-0.09,-0.022l-0.089,-0.022l-0.088,-0.024l-0.087,-0.024l-0.086,-0.026l-0.085,-0.027l-0.084,-0.027l-0.084,-0.029l-0.083,-0.03l-0.081,-0.031l-0.081,-0.031l-0.08,-0.033l-0.079,-0.034l-0.078,-0.034l-0.035,-0.016l-0.042,-0.02l-0.076,-0.037l-0.075,-0.038l-0.074,-0.039l-0.073,-0.04l-0.072,-0.041l-0.071,-0.042l-0.07,-0.042l-0.069,-0.043l-0.068,-0.044l-0.068,-0.045l-0.066,-0.045l-0.065,-0.046l-0.065,-0.047l-0.063,-0.048l-0.062,-0.048l-0.045,-0.035l-0.016,-0.014l-0.06,-0.05l-0.059,-0.051l-0.058,-0.052l-0.057,-0.052l-0.056,-0.052l-0.055,-0.054l-0.054,-0.054l-0.053,-0.054l-0.051,-0.055l-0.051,-0.056l-0.05,-0.056l-0.049,-0.056l-0.048,-0.057l-0.046,-0.058l-0.046,-0.058l-0.045,-0.058l-0.043,-0.059l-0.007,-0.009l-0.035,-0.051l-0.041,-0.06l-0.04,-0.06l-0.039,-0.061l-0.038,-0.062l-0.037,-0.061l-0.036,-0.062l-0.034,-0.062l-0.034,-0.063l-0.033,-0.063l-0.031,-0.063l-0.031,-0.063l-0.029,-0.064l-0.029,-0.063l-0.027,-0.065l-0.026,-0.064l-0.026,-0.064l-0.024,-0.065l-0.023,-0.065l-0.022,-0.065l-0.021,-0.065l-0.02,-0.065l-0.019,-0.065l-0.018,-0.066l-0.017,-0.065l-0.015,-0.066l-0.015,-0.066l-0.013,-0.065l-0.013,-0.066l-0.011,-0.066l-0.011,-0.066l-0.009,-0.066l-0.008,-0.065l-0.007,-0.066l-0.007,-0.066l-0.001,-0.024l-0.003,-0.042l-0.004,-0.065l-0.002,-0.066l-0.001,-0.065l-0.001,-0.066l0.001,-0.065l0.002,-0.065l0.003,-0.065l0.004,-0.064l0.005,-0.065l0.006,-0.064l0.007,-0.064l0.009,-0.064l0.009,-0.064l0.011,-0.063l0.011,-0.063l0.013,-0.063l0.014,-0.062l0.014,-0.063l0.016,-0.061l0.017,-0.062l0.018,-0.061l0.019,-0.061l0.02,-0.06l0.021,-0.06l0.022,-0.06l0.024,-0.059l0.024,-0.059l0.026,-0.058l0,-0.001l0.026,-0.056l0.157,-0.071l0.071,0.158Z" serif:id="H 3"/><path fill="#fff" d="M12.211,10.147l0.002,0.064l0.001,0.029l0.004,0.092l0.006,0.091l0.006,0.09l0.008,0.088l0.009,0.088l0.01,0.087l0.011,0.085l0.013,0.085l0.013,0.084l0.014,0.082l0.016,0.082l0.016,0.08l0.018,0.08l0.019,0.079l0.019,0.077l0.021,0.077l0.022,0.076l0.022,0.074l0.024,0.074l0.024,0.073l0.026,0.071l0.026,0.071l0.012,0.032l0.015,0.038l0.027,0.069l0.029,0.068l0.029,0.068l0.03,0.066l0.031,0.066l0.032,0.064l0.033,0.064l0.033,0.063l0.035,0.061l0.035,0.061l0.036,0.061l0.036,0.059l0.038,0.058l0.038,0.058l0.039,0.057l0.04,0.056l0.04,0.055l0.042,0.054l0.042,0.054l0.042,0.052l0.044,0.052l0.044,0.051l0.045,0.051l0.045,0.049l0.046,0.049l0.047,0.048l0.047,0.047l0.048,0.046l0.049,0.046l0.049,0.045l0.05,0.044l0.051,0.044l0.051,0.042l0.016,0.013l0.036,0.03l0.052,0.042l0.052,0.041l0.053,0.04l0.054,0.04l0.054,0.039l0.055,0.038l0.055,0.038l0.056,0.037l0.057,0.036l0.057,0.036l0.058,0.035l0.058,0.034l0.059,0.034l0.059,0.033l0.06,0.032l0.06,0.031l0.061,0.031l0.041,0.021l0.02,0.01l0.061,0.03l0.062,0.03l0.062,0.029l0.063,0.028l0.063,0.027l0.064,0.027l0.064,0.027l0.065,0.026l0.065,0.025l0.065,0.024l0.066,0.024l0.066,0.023l0.067,0.023l0.067,0.021l0.067,0.022l0.068,0.02l0.068,0.02l0.039,0.011l0.028,0.009l0.139,0.039l0.139,0.036l0.14,0.034l0.141,0.032l0.142,0.029l0.143,0.026l0.145,0.024l0.145,0.022l0.032,0.004l0.113,0.017l0.147,0.02l0.147,0.018l0.147,0.015l0.149,0.012l0.148,0.011l0.149,0.008l0.151,0.005l0.148,0.008l0.15,0.006l0.15,0.003l0.15,0.001l0.15,-0.001l0.15,-0.004l0.15,-0.006l0.15,-0.008l0.021,-0.001l0.129,-0.006l0.149,-0.009l0.149,-0.011l0.148,-0.013l0.148,-0.016l0.148,-0.018l0.146,-0.02l0.146,-0.022l0.145,-0.024l0.059,-0.011l0.085,-0.014l0.143,-0.027l0.143,-0.029l0.141,-0.03l0.14,-0.033l0.138,-0.035l0.137,-0.037l0.136,-0.04l0.134,-0.041l0.132,-0.043l0.058,-0.02l0.073,-0.025l0.129,-0.046l0.128,-0.048l0.126,-0.05l0.123,-0.053l0.122,-0.054l0.119,-0.056l0.118,-0.059l0.056,-0.029l0.058,-0.031l0.056,-0.031l0.056,-0.031l0.055,-0.032l0.041,-0.024l0.014,-0.008l0.054,-0.032l0.054,-0.033l0.053,-0.033l0.052,-0.034l0.052,-0.034l0.051,-0.035l0.05,-0.035l0.05,-0.036l0.049,-0.036l0.048,-0.036l0.048,-0.038l0.047,-0.037l0.046,-0.038l0.046,-0.039l0.044,-0.039l0.044,-0.039l0.043,-0.04l0.043,-0.041l0.041,-0.041l0.041,-0.041l0.04,-0.042l0.039,-0.043l0.039,-0.043l0.037,-0.043l0.037,-0.044l0.036,-0.044l0.035,-0.045l0.035,-0.045l0.033,-0.046l0.033,-0.046l0.031,-0.047l0.031,-0.048l0.03,-0.047l0.029,-0.049l0.028,-0.049l0.027,-0.049l0.027,-0.05l0.021,-0.042l0.004,-0.008l0.025,-0.051l0.024,-0.051l0.023,-0.052l0.022,-0.052l0.021,-0.053l0.02,-0.054l0.019,-0.054l0.018,-0.054l0.017,-0.055l0.016,-0.056l0.015,-0.056l0.014,-0.057l0.012,-0.058l0.012,-0.058l0.01,-0.058l0.01,-0.061l0.122,-0.109l0.104,0.126l0,0.064l-0.001,0.064l-0.003,0.064l-0.004,0.064l-0.005,0.064l-0.006,0.063l-0.008,0.064l-0.008,0.063l-0.01,0.062l-0.012,0.063l-0.012,0.062l-0.014,0.062l-0.015,0.062l-0.016,0.061l-0.018,0.062l-0.018,0.06l-0.004,0.01l-0.016,0.051l-0.022,0.06l-0.022,0.06l-0.024,0.059l-0.025,0.059l-0.026,0.059l-0.027,0.058l-0.028,0.058l-0.029,0.058l-0.03,0.057l-0.031,0.057l-0.033,0.056l-0.033,0.056l-0.035,0.056l-0.035,0.055l-0.037,0.055l-0.037,0.054l-0.039,0.054l-0.039,0.054l-0.04,0.053l-0.042,0.053l-0.042,0.052l-0.043,0.052l-0.044,0.051l-0.045,0.051l-0.046,0.051l-0.047,0.05l-0.048,0.05l-0.048,0.049l-0.05,0.049l-0.05,0.048l-0.051,0.048l-0.052,0.047l-0.052,0.047l-0.054,0.047l-0.054,0.045l-0.055,0.046l-0.056,0.045l-0.014,0.011l-0.042,0.033l-0.058,0.044l-0.058,0.043l-0.059,0.042l-0.06,0.042l-0.061,0.042l-0.122,0.081l-0.125,0.08l-0.128,0.078l-0.13,0.075l-0.133,0.074l-0.135,0.071l-0.138,0.069l-0.077,0.038l-0.062,0.029l-0.142,0.064l-0.144,0.061l-0.146,0.06l-0.148,0.057l-0.149,0.055l-0.151,0.053l-0.153,0.051l-0.154,0.049l-0.156,0.046l-0.092,0.026l-0.065,0.017l-0.159,0.039l-0.16,0.038l-0.161,0.034l-0.162,0.033l-0.163,0.03l-0.164,0.028l-0.165,0.025l-0.165,0.023l-0.143,0.018l-0.023,0.002l-0.167,0.015l-0.168,0.012l-0.168,0.009l-0.168,0.007l-0.168,0.005l-0.168,0.002l-0.169,-0.001l-0.168,-0.003l-0.001,0l-0.168,-0.011l-0.168,-0.013l-0.167,-0.015l-0.167,-0.019l-0.167,-0.021l-0.166,-0.023l-0.166,-0.027l-0.128,-0.023l-0.037,-0.007l-0.163,-0.034l-0.163,-0.038l-0.161,-0.04l-0.16,-0.043l-0.16,-0.046l-0.158,-0.049l-0.156,-0.051l-0.154,-0.054l-0.034,-0.012l-0.044,-0.017l-0.077,-0.03l-0.076,-0.031l-0.075,-0.031l-0.075,-0.032l-0.075,-0.033l-0.074,-0.034l-0.074,-0.034l-0.073,-0.035l-0.073,-0.036l-0.072,-0.036l-0.072,-0.037l-0.071,-0.038l-0.07,-0.039l-0.071,-0.04l-0.069,-0.04l-0.069,-0.041l-0.069,-0.041l-0.022,-0.014l-0.045,-0.029l-0.067,-0.044l-0.067,-0.044l-0.065,-0.046l-0.065,-0.046l-0.064,-0.047l-0.064,-0.047l-0.063,-0.048l-0.062,-0.049l-0.062,-0.05l-0.061,-0.051l-0.06,-0.051l-0.059,-0.052l-0.059,-0.053l-0.058,-0.053l-0.057,-0.055l-0.056,-0.055l-0.056,-0.055l-0.038,-0.04l-0.017,-0.017l-0.053,-0.058l-0.052,-0.059l-0.052,-0.059l-0.051,-0.06l-0.05,-0.061l-0.048,-0.061l-0.048,-0.062l-0.048,-0.063l-0.046,-0.064l-0.045,-0.065l-0.044,-0.065l-0.043,-0.066l-0.043,-0.066l-0.041,-0.067l-0.04,-0.068l-0.039,-0.069l-0.039,-0.069l-0.037,-0.07l-0.036,-0.071l-0.035,-0.072l-0.034,-0.072l-0.033,-0.073l-0.031,-0.073l-0.031,-0.075l-0.03,-0.074l-0.028,-0.076l-0.028,-0.076l-0.026,-0.077l-0.025,-0.078l-0.024,-0.078l-0.022,-0.079l-0.022,-0.079l-0.02,-0.081l-0.011,-0.043l-0.008,-0.038l-0.017,-0.081l-0.017,-0.082l-0.015,-0.083l-0.013,-0.084l-0.013,-0.084l-0.011,-0.085l-0.01,-0.085l-0.009,-0.086l-0.007,-0.087l-0.006,-0.087l-0.005,-0.088l-0.004,-0.089l-0.002,-0.089l-0.001,-0.09l0,-0.09l0.001,-0.091l0.003,-0.092l0.004,-0.092l0.006,-0.093l0.007,-0.093l0.008,-0.094l0.009,-0.095l0.004,-0.029l0.007,-0.065l0.118,-0.109l0.109,0.118Z" serif:id="H 2"/><path fill="#fff" d="M11.415,13.648l0.012,0.084l0.012,0.083l0.014,0.081l0.014,0.081l0.015,0.08l0.017,0.08l0.017,0.078l0.018,0.077l0.02,0.077l0.02,0.075l0.021,0.075l0.022,0.074l0.023,0.073l0.024,0.073l0.025,0.071l0.026,0.071l0.026,0.07l0.027,0.069l0.029,0.068l0.029,0.067l0.03,0.067l0.03,0.065l0.032,0.065l0.023,0.046l0.009,0.018l0.033,0.064l0.033,0.063l0.034,0.062l0.035,0.061l0.036,0.061l0.036,0.059l0.037,0.059l0.038,0.058l0.039,0.058l0.039,0.057l0.04,0.056l0.041,0.055l0.041,0.055l0.042,0.053l0.043,0.054l0.043,0.052l0.045,0.052l0.044,0.051l0.046,0.05l0.046,0.05l0.047,0.049l0.047,0.048l0.048,0.047l0.049,0.047l0.049,0.046l0.05,0.046l0.05,0.045l0.051,0.044l0.052,0.044l0.052,0.042l0.053,0.043l0.053,0.041l0.037,0.029l0.017,0.012l0.053,0.042l0.055,0.04l0.054,0.04l0.056,0.039l0.056,0.039l0.056,0.038l0.057,0.037l0.057,0.037l0.058,0.036l0.059,0.036l0.059,0.035l0.059,0.034l0.06,0.034l0.061,0.033l0.061,0.033l0.061,0.032l0.062,0.031l0.063,0.031l0.063,0.03l0.063,0.029l0.063,0.029l0.065,0.028l0.064,0.028l0.065,0.027l0.065,0.026l0.066,0.026l0.065,0.025l0.135,0.049l0.135,0.046l0.136,0.044l0.135,0.041l0.003,0.001l0.138,0.042l0.139,0.039l0.14,0.037l0.142,0.035l0.143,0.033l0.143,0.03l0.145,0.028l0.146,0.025l0.051,0.008l0.095,0.017l0.147,0.024l0.147,0.021l0.148,0.019l0.149,0.017l0.149,0.015l0.15,0.012l0.15,0.01l0.031,0.002l0.12,0.009l0.15,0.01l0.151,0.007l0.152,0.006l0.151,0.003l0.152,0l0.151,-0.001l0.152,-0.004l0.09,-0.004l0.061,-0.001l0.152,-0.005l0.151,-0.008l0.151,-0.009l0.151,-0.012l0.15,-0.015l0.15,-0.016l0.149,-0.019l0.149,-0.021l0.148,-0.023l0.042,-0.007l0.106,-0.016l0.147,-0.026l0.146,-0.027l0.145,-0.03l0.145,-0.032l0.143,-0.034l0.142,-0.036l0.141,-0.039l0.14,-0.041l0.139,-0.043l0.137,-0.045l0.135,-0.048l0.135,-0.049l0.132,-0.052l0.131,-0.055l0.129,-0.056l0.128,-0.059l0.126,-0.061l0.062,-0.031l0.061,-0.031l0.061,-0.033l0.061,-0.032l0.06,-0.034l0.06,-0.034l0.057,-0.033l0.002,-0.001l0.059,-0.034l0.058,-0.035l0.058,-0.036l0.058,-0.036l0.057,-0.036l0.056,-0.037l0.056,-0.038l0.056,-0.038l0.054,-0.038l0.054,-0.04l0.054,-0.039l0.053,-0.041l0.052,-0.041l0.052,-0.041l0.051,-0.042l0.05,-0.043l0.05,-0.043l0.05,-0.044l0.048,-0.044l0.048,-0.045l0.047,-0.046l0.047,-0.046l0.046,-0.047l0.045,-0.047l0.044,-0.048l0.044,-0.048l0.043,-0.049l0.043,-0.049l0.041,-0.051l0.041,-0.05l0.041,-0.052l0.039,-0.051l0.039,-0.053l0.038,-0.053l0.037,-0.054l0.036,-0.054l0.036,-0.055l0.035,-0.055l0.034,-0.057l0.033,-0.056l0.032,-0.058l0.032,-0.058l0.03,-0.058l0.03,-0.059l0.029,-0.06l0.028,-0.061l0.028,-0.061l0.026,-0.062l0.025,-0.062l0.025,-0.063l0.024,-0.064l0.022,-0.064l0.023,-0.066l0.181,-0.11l0.104,0.185l-0.013,0.071l-0.016,0.071l-0.016,0.071l-0.017,0.071l-0.019,0.07l-0.019,0.07l-0.021,0.07l-0.021,0.069l-0.023,0.069l-0.024,0.068l-0.025,0.068l-0.026,0.067l-0.027,0.067l-0.028,0.066l-0.029,0.067l-0.03,0.065l-0.031,0.065l-0.032,0.065l-0.033,0.064l-0.033,0.064l-0.035,0.063l-0.036,0.063l-0.037,0.063l-0.038,0.062l-0.038,0.061l-0.04,0.061l-0.04,0.06l-0.042,0.06l-0.042,0.06l-0.043,0.059l-0.044,0.058l-0.045,0.058l-0.046,0.058l-0.047,0.057l-0.047,0.056l-0.048,0.056l-0.049,0.055l-0.05,0.055l-0.051,0.055l-0.051,0.053l-0.052,0.054l-0.053,0.052l-0.054,0.053l-0.055,0.051l-0.055,0.052l-0.056,0.05l-0.057,0.05l-0.057,0.05l-0.058,0.049l-0.059,0.048l-0.059,0.048l-0.06,0.048l-0.061,0.046l-0.002,0.002l-0.06,0.044l-0.063,0.045l-0.063,0.044l-0.064,0.044l-0.064,0.043l-0.065,0.043l-0.067,0.042l-0.132,0.082l-0.135,0.08l-0.137,0.078l-0.14,0.075l-0.141,0.074l-0.144,0.07l-0.145,0.069l-0.147,0.066l-0.149,0.064l-0.15,0.062l-0.152,0.059l-0.154,0.057l-0.155,0.054l-0.156,0.052l-0.158,0.05l-0.159,0.047l-0.16,0.045l-0.115,0.03l-0.047,0.012l-0.163,0.038l-0.164,0.035l-0.165,0.032l-0.165,0.031l-0.167,0.028l-0.167,0.025l-0.167,0.023l-0.168,0.02l-0.169,0.018l-0.069,0.006l-0.101,0.007l-0.169,0.01l-0.17,0.007l-0.17,0.005l-0.17,0.002l-0.17,-0.001l-0.17,-0.003l-0.17,-0.006l-0.136,-0.006l-0.034,-0.003l-0.17,-0.015l-0.168,-0.018l-0.169,-0.02l-0.168,-0.023l-0.167,-0.026l-0.167,-0.028l-0.165,-0.03l-0.107,-0.022l-0.058,-0.013l-0.164,-0.039l-0.163,-0.041l-0.161,-0.045l-0.161,-0.046l-0.159,-0.05l-0.158,-0.052l-0.156,-0.055l-0.155,-0.057l-0.004,-0.002l-0.149,-0.061l-0.151,-0.066l-0.149,-0.068l-0.146,-0.071l-0.075,-0.037l-0.072,-0.037l-0.072,-0.038l-0.072,-0.038l-0.071,-0.039l-0.071,-0.04l-0.07,-0.041l-0.069,-0.041l-0.069,-0.042l-0.069,-0.042l-0.068,-0.043l-0.067,-0.044l-0.067,-0.045l-0.066,-0.045l-0.065,-0.046l-0.065,-0.046l-0.065,-0.048l-0.063,-0.048l-0.063,-0.048l-0.063,-0.049l-0.062,-0.05l-0.061,-0.051l-0.06,-0.051l-0.06,-0.052l-0.059,-0.053l-0.058,-0.053l-0.058,-0.054l-0.017,-0.017l-0.039,-0.039l-0.055,-0.056l-0.055,-0.057l-0.054,-0.058l-0.052,-0.058l-0.053,-0.059l-0.051,-0.059l-0.05,-0.06l-0.05,-0.061l-0.049,-0.062l-0.048,-0.062l-0.047,-0.062l-0.046,-0.064l-0.046,-0.064l-0.044,-0.065l-0.044,-0.065l-0.042,-0.066l-0.042,-0.066l-0.041,-0.067l-0.04,-0.068l-0.039,-0.068l-0.037,-0.069l-0.037,-0.07l-0.036,-0.07l-0.035,-0.071l-0.034,-0.071l-0.033,-0.072l-0.032,-0.073l-0.031,-0.073l-0.03,-0.074l-0.029,-0.074l-0.028,-0.075l-0.027,-0.076l-0.007,-0.022l-0.018,-0.054l-0.024,-0.077l-0.023,-0.077l-0.022,-0.078l-0.02,-0.078l-0.02,-0.08l-0.018,-0.079l-0.018,-0.08l-0.016,-0.081l-0.015,-0.081l-0.014,-0.082l-0.013,-0.082l-0.012,-0.083l-0.01,-0.083l-0.01,-0.084l-0.008,-0.084l-0.007,-0.085l-0.006,-0.085l-0.004,-0.086l-0.004,-0.086l-0.002,-0.087l-0.001,-0.087l0,-0.088l0,-0.002l0.002,-0.085l0.139,-0.156l0.155,0.139Z" serif:id="H 1"/></svg>