<?xml version="1.0" encoding="UTF-8" standalone="no"?><!DOCTYPE svg PUBLIC "-//W3C//DTD SVG 1.1//EN" "http://www.w3.org/Graphics/SVG/1.1/DTD/svg11.dtd"><svg width="100%" height="100%" viewBox="0 0 27 10" version="1.1" xmlns="http://www.w3.org/2000/svg" xmlns:xlink="http://www.w3.org/1999/xlink" xml:space="preserve" xmlns:serif="http://www.serif.com/" style="fill-rule:evenodd;clip-rule:evenodd;stroke-linejoin:round;stroke-miterlimit:1.41421;"><g><g><path d="M1.638,6.244c-0.01,-0.976 0.784,-1.786 1.76,-1.796c0.975,-0.01 1.786,0.784 1.796,1.76c0.01,0.975 -0.785,1.786 -1.76,1.796c-0.975,0.01 -1.786,-0.784 -1.796,-1.76" style="fill:none;stroke:#fff8f8;stroke-width:0.27px;"/><path d="M0.65,8.943l1.465,-1.465l0.184,0.184l-1.464,1.465l-0.185,-0.184Z" style="fill:#fff;stroke:#fff8f8;stroke-width:0.16px;"/><path d="M2.574,5.333c0.081,-0.084 0.169,-0.158 0.264,-0.222c0.104,-0.07 0.216,-0.127 0.332,-0.168c0.125,-0.044 0.254,-0.071 0.381,-0.081c0.149,-0.012 0.296,0 0.433,0.022c-0.127,-0.058 -0.273,-0.099 -0.432,-0.113c-0.136,-0.012 -0.28,0 -0.423,0.032c-0.133,0.032 -0.264,0.085 -0.386,0.158c-0.12,0.072 -0.229,0.161 -0.326,0.264c-0.018,0.019 -0.035,0.038 -0.052,0.058c-0.076,0.089 -0.142,0.186 -0.196,0.287c-0.07,0.13 -0.122,0.266 -0.156,0.404c-0.036,0.147 -0.051,0.295 -0.049,0.436c0.004,0.159 0.03,0.308 0.071,0.442c-0.007,-0.14 -0.001,-0.286 0.02,-0.436c0.02,-0.133 0.052,-0.268 0.1,-0.4c0.044,-0.123 0.1,-0.244 0.169,-0.358c0.066,-0.109 0.143,-0.212 0.23,-0.305c0.007,-0.009 0.013,-0.014 0.02,-0.021l0,0.001Z" style="fill:#fff;fill-rule:nonzero;"/><g><path id="V-6" serif:id="V 6" d="M3.317,5.357c-0.44,-0.01 -0.704,0.4 -0.877,1.302" style="fill:none;"/><clipPath id="_clip1"><path d="M3.317,5.357c-0.44,-0.01 -0.704,0.4 -0.877,1.302"/></clipPath><g clip-path="url(#_clip1)"><path id="V-6-OLD" serif:id="V 6 OLD" d="M2.694,5.834c0.039,-0.081 0.083,-0.157 0.136,-0.226c0.035,-0.045 0.073,-0.085 0.115,-0.12c0.037,-0.031 0.077,-0.057 0.119,-0.077c0.041,-0.019 0.083,-0.033 0.125,-0.041c0.044,-0.01 0.087,-0.013 0.128,-0.013c-0.041,0 -0.084,0 -0.129,0.008c-0.043,0.009 -0.086,0.02 -0.128,0.038c-0.043,0.019 -0.085,0.044 -0.124,0.076c-0.043,0.034 -0.083,0.075 -0.119,0.12c-0.06,0.076 -0.109,0.161 -0.151,0.251c-0.022,0.05 -0.043,0.1 -0.061,0.15c-0.088,0.237 -0.136,0.478 -0.165,0.659c0.038,-0.178 0.093,-0.419 0.181,-0.653c0.022,-0.057 0.046,-0.115 0.073,-0.171l0,-0.001Z" style="fill-rule:nonzero;"/></g><path d="M3.275,5.34l0.036,0.003l0.006,0l0.014,0.014l-0.014,0.014l-0.006,0.001l-0.034,0.003l-0.038,0.006l-0.037,0.008l-0.036,0.011l-0.006,0.002l-0.028,0.01l-0.032,0.015l-0.032,0.017l-0.03,0.019l-0.029,0.022l-0.019,0.016l-0.009,0.007l-0.028,0.026l-0.026,0.028l-0.013,0.015l-0.013,0.015l-0.025,0.033l-0.025,0.036l-0.002,0.004l-0.022,0.033l-0.024,0.04l-0.01,0.02l-0.013,0.023l-0.023,0.045l-0.012,0.026l-0.011,0.022l-0.024,0.05l-0.014,0.033l-0.009,0.02l-0.024,0.055l-0.019,0.048l-0.005,0.011l-0.023,0.061l-0.023,0.061l-0.001,0.003l-0.023,0.067l-0.021,0.064l-0.002,0.006l-0.023,0.072l-0.023,0.076l-0.02,0.068l-0.003,0.011l-0.023,0.082l-0.018,0.017l-0.01,-0.023l0.011,-0.084l0.001,-0.012l0.01,-0.07l0.012,-0.079l0.013,-0.077l0.001,-0.006l0.014,-0.067l0.015,-0.071l0.001,-0.003l0.016,-0.065l0.017,-0.066l0.004,-0.011l0.016,-0.052l0.02,-0.06l0.008,-0.022l0.014,-0.035l0.023,-0.054l0.011,-0.024l0.014,-0.028l0.026,-0.048l0.015,-0.025l0.013,-0.021l0.029,-0.042l0.027,-0.036l0.003,-0.004l0.032,-0.037l0.032,-0.034l0.017,-0.017l0.016,-0.015l0.034,-0.028l0.035,-0.025l0.012,-0.008l0.025,-0.015l0.036,-0.019l0.038,-0.017l0.038,-0.014l0.039,-0.011l0.033,-0.006l0.007,-0.002l0.04,-0.004l0.04,-0.003l0.041,0.001Z" style="fill:#fff8f8;"/><path id="V-5" serif:id="V 5" d="M3.341,5.465c-0.412,0.155 -0.573,0.677 -0.638,1.558" style="fill:none;"/><clipPath id="_clip2"><path d="M3.341,5.465c-0.412,0.155 -0.573,0.677 -0.638,1.558"/></clipPath><g clip-path="url(#_clip2)"><path id="V-5-OLD" serif:id="V 5 OLD" d="M2.849,6.14c0.022,-0.075 0.046,-0.147 0.076,-0.217c0.03,-0.069 0.063,-0.134 0.103,-0.192c0.041,-0.061 0.086,-0.113 0.136,-0.157c0.057,-0.049 0.117,-0.085 0.177,-0.109c-0.061,0.02 -0.124,0.053 -0.184,0.1c-0.053,0.042 -0.101,0.094 -0.145,0.155c-0.042,0.059 -0.078,0.124 -0.108,0.193c-0.032,0.071 -0.057,0.145 -0.079,0.22c-0.002,0.008 -0.005,0.017 -0.007,0.025c-0.04,0.149 -0.064,0.3 -0.081,0.442c-0.009,0.077 -0.015,0.153 -0.021,0.223c-0.005,0.069 -0.01,0.141 -0.013,0.2c0.008,-0.066 0.015,-0.123 0.024,-0.199c0.009,-0.069 0.018,-0.145 0.029,-0.221c0.022,-0.15 0.049,-0.308 0.094,-0.463l0,0l-0.001,0Z"/></g><path d="M3.367,5.454l-0.015,0.037l-0.005,0.002l-0.031,0.016l-0.033,0.02l-0.031,0.022l-0.03,0.023l-0.013,0.012l-0.015,0.013l-0.027,0.027l-0.025,0.029l-0.024,0.03l-0.023,0.033l-0.019,0.03l-0.003,0.004l-0.021,0.036l-0.019,0.038l-0.011,0.023l-0.008,0.017l-0.018,0.042l-0.017,0.045l-0.001,0.003l-0.016,0.043l-0.015,0.048l-0.006,0.018l-0.01,0.032l-0.015,0.052l-0.006,0.022l-0.009,0.032l-0.006,0.023l-0.009,0.034l-0.007,0.026l-0.008,0.032l-0.015,0.061l-0.009,0.04l-0.006,0.023l-0.014,0.065l-0.012,0.053l-0.003,0.014l-0.014,0.069l-0.01,0.056l-0.004,0.016l-0.013,0.074l-0.014,0.076l-0.01,0.064l-0.003,0.015l-0.012,0.075l-0.001,0.006l-0.031,0.026l-0.026,-0.031l0,-0.005l0,-0.077l0,-0.015l0.001,-0.065l0.002,-0.079l0.002,-0.076l0.001,-0.016l0.004,-0.058l0.005,-0.073l0.001,-0.014l0.005,-0.056l0.008,-0.069l0.003,-0.023l0.006,-0.043l0.01,-0.065l0.007,-0.034l0.005,-0.028l0.008,-0.036l0.006,-0.025l0.009,-0.034l0.007,-0.024l0.017,-0.056l0.012,-0.033l0.007,-0.02l0.021,-0.052l0.02,-0.045l0.002,-0.004l0.024,-0.047l0.025,-0.045l0.011,-0.019l0.015,-0.024l0.027,-0.04l0.029,-0.038l0.003,-0.004l0.027,-0.031l0.032,-0.033l0.032,-0.031l0.034,-0.028l0.035,-0.026l0.02,-0.013l0.017,-0.011l0.037,-0.02l0.039,-0.018l0.04,-0.016l0.035,-0.011l0.005,-0.002l0.037,0.016Z" style="fill:#fff8f8;"/><path id="V-4" serif:id="V 4" d="M3.453,5.564c-0.193,0.265 -0.328,0.888 -0.372,1.654" style="fill:none;"/><clipPath id="_clip3"><path d="M3.453,5.564c-0.193,0.265 -0.328,0.888 -0.372,1.654"/></clipPath><g clip-path="url(#_clip3)"><path id="V-4-OLD" serif:id="V 4 OLD" d="M3.197,6.358c0.001,-0.01 0.004,-0.021 0.005,-0.032c0.03,-0.155 0.063,-0.298 0.106,-0.436c0.021,-0.065 0.042,-0.125 0.067,-0.181c0.024,-0.054 0.049,-0.102 0.078,-0.145c-0.033,0.04 -0.062,0.086 -0.09,0.139c-0.028,0.055 -0.054,0.115 -0.077,0.18c-0.05,0.136 -0.086,0.281 -0.116,0.436c-0.005,0.02 -0.008,0.039 -0.011,0.058c-0.026,0.141 -0.044,0.28 -0.056,0.414c-0.015,0.16 -0.022,0.303 -0.022,0.427c0.012,-0.126 0.027,-0.263 0.048,-0.424c0.018,-0.141 0.04,-0.287 0.067,-0.436l0.001,0Z"/></g><path d="M3.48,5.582l-0.003,0.005l-0.013,0.022l-0.014,0.028l-0.014,0.03l-0.014,0.032l-0.013,0.034l0,0.002l-0.013,0.034l-0.012,0.038l-0.012,0.039l-0.012,0.041l-0.011,0.043l-0.002,0.008l-0.009,0.037l-0.01,0.046l-0.007,0.03l-0.004,0.017l-0.01,0.049l-0.009,0.048l-0.001,0.003l-0.01,0.052l-0.01,0.057l-0.01,0.051l-0.009,0.056l-0.012,0.057l-0.01,0.058l-0.012,0.061l-0.013,0.07l-0.01,0.053l-0.016,0.086l-0.007,0.041l-0.016,0.094l-0.007,0.039l-0.021,0.136l-0.007,0.049l-0.014,0.092l-0.035,0.038l-0.029,-0.042l-0.001,-0.094l-0.001,-0.049l0.001,-0.14l0.002,-0.04l0.003,-0.096l0.002,-0.043l0.006,-0.089l0.004,-0.055l0.008,-0.073l0.007,-0.063l0.009,-0.06l0.009,-0.059l0.012,-0.058l0.011,-0.052l0.015,-0.058l0.014,-0.054l0.001,-0.003l0.014,-0.048l0.016,-0.05l0.006,-0.019l0.01,-0.03l0.017,-0.046l0.014,-0.037l0.003,-0.008l0.018,-0.044l0.019,-0.041l0.019,-0.039l0.019,-0.038l0.018,-0.035l0.001,-0.001l0.02,-0.034l0.02,-0.032l0.021,-0.029l0.02,-0.028l0.017,-0.021l0.004,-0.004l0.045,-0.008l0.008,0.044Z" style="fill:#fff8f8;"/><path id="V-3" serif:id="V 3" d="M3.631,5.608l-0.07,1.69" style="fill:none;"/><clipPath id="_clip4"><path d="M3.631,5.608l-0.07,1.69"/></clipPath><g clip-path="url(#_clip4)"><path id="V-3-OLD" serif:id="V 3 OLD" d="M3.613,6.441c0.013,-0.31 0.019,-0.607 0.018,-0.833c-0.02,0.231 -0.038,0.538 -0.051,0.857c-0.013,0.31 -0.019,0.608 -0.019,0.833l0.052,-0.857Z"/></g><path d="M3.665,5.61l0,0.005l0.009,0.168l0.008,0.216l0.003,0.117l0.002,0.118l-0.001,0.115l-0.003,0.109l-0.007,0.117l-0.011,0.134l-0.015,0.139l-0.015,0.137l-0.028,0.223l-0.011,0.086l-0.001,0.005l-0.035,0.033l-0.032,-0.035l-0.001,-0.006l-0.004,-0.087l-0.009,-0.224l-0.004,-0.138l-0.003,-0.14l-0.001,-0.134l0.003,-0.117l0.006,-0.109l0.009,-0.115l0.011,-0.117l0.013,-0.116l0.026,-0.216l0.023,-0.166l0,-0.005l0.036,-0.033l0.032,0.036Z" style="fill:#fff8f8;"/><path id="V-2" serif:id="V 2" d="M3.827,5.584c0.24,0.591 0.234,0.935 0.22,1.651" style="fill:none;"/><clipPath id="_clip5"><path d="M3.827,5.584c0.24,0.591 0.234,0.935 0.22,1.651"/></clipPath><g clip-path="url(#_clip5)"><path id="V-2-OLD" serif:id="V 2 OLD" d="M4.049,6.381c-0.01,-0.095 -0.026,-0.189 -0.046,-0.28c-0.045,-0.203 -0.11,-0.377 -0.176,-0.517c0.053,0.146 0.108,0.321 0.147,0.523c0.019,0.099 0.034,0.199 0.045,0.302c0.005,0.051 0.009,0.102 0.012,0.153c0.009,0.131 0.009,0.261 0.009,0.38c0,0.057 0,0.106 0.001,0.158c0.001,0.049 0.002,0.092 0.006,0.135c0,-0.044 0.002,-0.086 0.005,-0.135c0.002,-0.05 0.006,-0.103 0.009,-0.158c0.005,-0.119 0.008,-0.249 0.002,-0.382l0,0c-0.002,-0.059 -0.007,-0.119 -0.014,-0.179l0,0Z"/></g><path d="M3.856,5.572l0.003,0.005l0.024,0.048l0.026,0.052l0.024,0.051l0,0l0.022,0.051l0.021,0.049l0.02,0.049l0.018,0.048l0.002,0.006l0.015,0.042l0.015,0.048l0.007,0.024l0.007,0.023l0.013,0.048l0.011,0.045l0,0.002l0.01,0.047l0.009,0.048l0.003,0.019l0.004,0.029l0.007,0.047l0.004,0.035l0.001,0.014l0.003,0.044l0,0.005l0.002,0.057l0.001,0.042l-0.001,0.093l0,0.009l-0.005,0.105l-0.001,0.027l-0.006,0.084l-0.005,0.053l-0.005,0.062l-0.016,0.161l-0.01,0.086l0,0.005l-0.033,0.032l-0.031,-0.033l0,-0.005l-0.007,-0.087l-0.01,-0.16l-0.005,-0.062l-0.003,-0.053l-0.006,-0.082l-0.002,-0.026l-0.008,-0.103l-0.001,-0.008l-0.007,-0.09l-0.005,-0.04l-0.005,-0.055l0,-0.005l-0.004,-0.041l-0.001,-0.012l-0.003,-0.033l-0.005,-0.046l-0.003,-0.026l-0.002,-0.019l-0.005,-0.045l-0.006,-0.045l0,-0.001l-0.006,-0.044l-0.006,-0.045l-0.004,-0.024l-0.004,-0.023l-0.008,-0.046l-0.009,-0.042l-0.001,-0.006l-0.01,-0.048l-0.01,-0.05l-0.013,-0.05l-0.013,-0.052l0,0l-0.014,-0.053l-0.015,-0.055l-0.015,-0.051l-0.002,-0.005l0.018,-0.041l0.041,0.017Z" style="fill:#fff8f8;"/><path id="V-1" serif:id="V 1" d="M3.973,5.488c0.357,0.306 0.55,0.821 0.448,1.565" style="fill:none;"/><clipPath id="_clip6"><path d="M3.973,5.488c0.357,0.306 0.55,0.821 0.448,1.565"/></clipPath><g clip-path="url(#_clip6)"><path id="V-1-OLD" serif:id="V 1 OLD" d="M4.407,6.193c-0.002,-0.01 -0.005,-0.021 -0.007,-0.031c-0.037,-0.136 -0.09,-0.262 -0.16,-0.373c-0.08,-0.129 -0.176,-0.228 -0.267,-0.301c0.086,0.08 0.175,0.182 0.25,0.311c0.065,0.112 0.116,0.236 0.152,0.37c0.005,0.018 0.009,0.036 0.013,0.054c0.029,0.123 0.043,0.247 0.049,0.367c0.009,0.172 -0.002,0.332 -0.016,0.464c0.023,-0.131 0.041,-0.29 0.037,-0.464c-0.002,-0.13 -0.017,-0.264 -0.05,-0.397l-0.001,0Z"/></g><path d="M3.994,5.472l0.032,0.024l0.035,0.029l0.034,0.03l0.03,0.029l0.003,0.003l0.033,0.033l0.031,0.035l0.03,0.036l0.029,0.038l0.02,0.027l0.008,0.012l0.027,0.041l0.025,0.042l0.005,0.009l0.019,0.035l0.022,0.046l0.014,0.029l0.007,0.018l0.02,0.048l0.017,0.047l0,0.003l0.016,0.051l0.014,0.053l0.001,0.004l0.011,0.05l0.001,0.007l0.008,0.049l0.002,0.014l0.005,0.043l0.006,0.058l0.002,0.037l0.001,0.022l0.002,0.06l0,0.062l0,0.001l-0.003,0.061l-0.004,0.064l-0.001,0.016l-0.005,0.049l-0.008,0.066l-0.01,0.067l-0.008,0.045l-0.004,0.023l-0.013,0.063l-0.001,0.005l-0.029,0.023l-0.022,-0.029l0,-0.005l0.003,-0.064l0.001,-0.023l0.001,-0.045l0.001,-0.066l-0.001,-0.064l-0.002,-0.048l0,-0.015l-0.004,-0.061l-0.004,-0.058l0,-0.002l-0.006,-0.058l-0.007,-0.056l-0.003,-0.02l-0.005,-0.036l-0.009,-0.053l-0.008,-0.039l-0.003,-0.014l-0.009,-0.044l-0.002,-0.007l-0.01,-0.046l-0.001,-0.003l-0.012,-0.049l-0.013,-0.047l-0.001,-0.003l-0.013,-0.044l-0.014,-0.045l-0.006,-0.016l-0.01,-0.028l-0.017,-0.044l-0.014,-0.033l-0.004,-0.009l-0.018,-0.041l-0.02,-0.04l-0.007,-0.011l-0.014,-0.028l-0.022,-0.038l-0.024,-0.037l-0.024,-0.036l-0.026,-0.035l-0.002,-0.003l-0.024,-0.032l-0.028,-0.033l-0.029,-0.032l-0.027,-0.028l-0.003,-0.003l-0.003,-0.037l0.037,-0.002l0.004,0.003Z" style="fill:#fff8f8;"/><path id="V-0" serif:id="V 0" d="M3.981,5.341l0.037,0.004l0.043,0.007l0.043,0.011l0.04,0.012l0.001,0l0.04,0.016l0.039,0.018l0.038,0.021l0.037,0.024l0.035,0.026l0.004,0.003l0.031,0.026l0.032,0.031l0.032,0.033l0.03,0.036l0.029,0.039l0.008,0.011l0.019,0.029l0.025,0.043l0.016,0.029l0.008,0.016l0.023,0.048l0.016,0.037l0.004,0.012l0.019,0.052l0.015,0.048l0.002,0.006l0.015,0.056l0.013,0.057l0.003,0.012l0.009,0.048l0.01,0.061l0.008,0.063l0.007,0.065l0.003,0.036l0.002,0.03l0.004,0.068l0.002,0.07l0,0.072l-0.001,0.072l-0.016,0.021l-0.018,-0.019l-0.006,-0.073l-0.007,-0.07l-0.008,-0.068l-0.009,-0.066l-0.005,-0.03l-0.006,-0.035l-0.011,-0.062l-0.013,-0.06l-0.013,-0.059l-0.012,-0.045l-0.003,-0.011l-0.016,-0.055l-0.017,-0.052l-0.001,-0.005l-0.016,-0.045l-0.018,-0.048l-0.005,-0.011l-0.014,-0.036l-0.02,-0.044l-0.008,-0.015l-0.013,-0.028l-0.022,-0.04l-0.017,-0.027l-0.006,-0.012l-0.024,-0.036l-0.025,-0.035l-0.027,-0.032l-0.028,-0.03l-0.026,-0.025l-0.002,-0.003l-0.03,-0.026l-0.032,-0.025l-0.033,-0.022l-0.034,-0.019l-0.035,-0.018l-0.001,0l-0.036,-0.016l-0.039,-0.013l-0.039,-0.011l-0.035,-0.008l-0.007,-0.001l-0.015,-0.02l0.02,-0.014l0.007,0.001Z" style="fill:#fff8f8;"/><path id="H-5" serif:id="H 5" d="M3.404,5.36l0,0l0.002,-0.007l0,0.008l0.001,0.007l0,-0.007l0.001,0.008l0.003,0.007l-0.001,-0.007l0.003,0.008l0.004,0.008l-0.002,-0.007l0.005,0.009l0.005,0.008l-0.002,-0.005l0.007,0.008l0,0.001l0.007,0.008l-0.003,-0.005l0.013,0.014l0.012,0.009l0.012,0.009l0.013,0.007l0.005,0.002l0.009,0.005l0.014,0.007l0.015,0.006l0.016,0.005l0.016,0.004l0.002,0l0.015,0.004l0.017,0.003l0.017,0.002l0.018,0.002l0.011,0.001l0.007,0l0.018,0.001l0.015,0.001l0.003,0l0.018,0l0.018,-0.001l0.006,-0.001l0.012,0l0.018,-0.002l0.017,-0.002l0.017,-0.003l0.016,-0.004l0.015,-0.005l0,0l0.014,-0.004l0.014,-0.006l0.012,-0.005l0.012,-0.007l0.01,-0.006l0.012,-0.01l-0.005,0.006l0.008,-0.008l0.003,-0.003l0.009,-0.01l-0.007,0.015l0.008,-0.015l0.006,-0.016l-0.001,0.008l0.004,-0.015l0.002,-0.015l0.001,0.009l0,-0.015l0,-0.004l-0.001,-0.012l0.002,0.007l-0.004,-0.016l-0.007,-0.017l0.004,0.005l-0.01,-0.018l-0.011,-0.017l-0.014,-0.018l-0.018,-0.018l-0.022,-0.019l-0.015,-0.013l-0.01,-0.007l-0.028,-0.021l-0.028,-0.018l-0.004,-0.003l-0.007,-0.017l0.017,-0.006l0.005,0.001l0.033,0.008l0.036,0.01l0.012,0.004l0.021,0.008l0.03,0.013l0.028,0.015l0.025,0.016l0.023,0.017l0.02,0.02l0.018,0.021l0.014,0.024l0.009,0.019l0.002,0.006l0.008,0.027l0.004,0.028l0,0.028l-0.003,0.028l-0.008,0.033l-0.013,0.028l-0.004,0.006l-0.01,0.016l-0.016,0.02l-0.017,0.02l-0.019,0.018l-0.02,0.016l-0.021,0.016l-0.022,0.014l0,0l-0.024,0.012l-0.025,0.011l-0.025,0.01l-0.026,0.009l-0.026,0.008l-0.018,0.004l-0.009,0.002l-0.028,0.004l-0.028,0.003l-0.005,0l-0.023,0.001l-0.029,0l-0.012,-0.001l-0.016,-0.002l-0.029,-0.004l-0.028,-0.006l-0.028,-0.007l-0.024,-0.008l-0.004,-0.001l-0.026,-0.011l-0.027,-0.013l-0.025,-0.015l-0.025,-0.016l-0.015,-0.012l-0.008,-0.006l-0.021,-0.02l-0.021,-0.023l-0.018,-0.023l-0.016,-0.025l-0.01,-0.018l0,0l-0.009,-0.018l-0.006,-0.019l-0.006,-0.018l-0.004,-0.019l-0.002,-0.019l-0.002,-0.019l0.001,0l0.001,-0.019l0.002,-0.018l0.001,0l0.005,-0.018l0.001,-0.001l0,0l0.006,-0.016l0.008,-0.016l0.01,-0.015l0.011,-0.014l0.012,-0.013l0.013,-0.012l0.014,-0.011l0.014,-0.01l0.016,-0.009l0.016,-0.008l0.017,-0.008l0.018,-0.007l0.037,-0.012l0.011,-0.002l0.03,-0.007l0.044,-0.006l0.047,-0.004l0.045,-0.001l0.005,-0.001l0.015,0.01l-0.01,0.015l-0.005,0.002l-0.04,0.016l-0.041,0.019l-0.035,0.019l-0.023,0.014l-0.009,0.005l-0.026,0.019l-0.011,0.009l-0.01,0.009l-0.009,0.009l-0.008,0.009l-0.006,0.008l-0.007,0.01l0.003,-0.004l-0.005,0.01l-0.004,0.009l0.003,-0.005l-0.003,0.009l-0.003,0.008l0.003,-0.006l-0.001,0.008l-0.001,0.008Z" style="fill:#fff8f8;"/><path id="H-4" serif:id="H 4" d="M3.18,5.266l-0.002,0.013l-0.004,0.003l-0.019,0.016l-0.02,0.02l-0.017,0.021l-0.015,0.021l-0.011,0.023l-0.009,0.022l-0.007,0.023l-0.004,0.024l-0.001,0.018l-0.001,0.005l0.001,0.024l0.003,0.023l0.005,0.024l0.007,0.024l0.009,0.024l0.012,0.023l0.014,0.023l0.016,0.022l0.018,0.022l0.02,0.021l0.004,0.004l0.019,0.017l0.024,0.02l0.026,0.019l0.029,0.018l0.021,0.011l0.009,0.005l0.033,0.016l0.034,0.014l0.037,0.012l0.024,0.007l0.015,0.005l0.04,0.009l0.043,0.008l0.044,0.006l0.001,0l0.052,0.006l0.023,0.004l0.011,0.002l0.029,0.004l0.024,0.001l0.008,0.001l0.032,0l0.025,-0.001l0.009,-0.001l0.035,-0.003l0.029,-0.004l0.007,-0.001l0.035,-0.006l0.036,-0.008l0.036,-0.01l0.034,-0.011l0.007,-0.003l0.027,-0.01l0.033,-0.014l0.031,-0.016l0.029,-0.017l0.027,-0.018l0,0l0.025,-0.019l0.023,-0.02l0.01,-0.01l0.009,-0.01l0.009,-0.011l0.008,-0.011l0.007,-0.011l0.007,-0.011l0.004,-0.008l0.001,-0.004l0.005,-0.011l0.004,-0.012l0.004,-0.012l0.002,-0.012l0.002,-0.013l0,-0.013l0,-0.013l-0.002,-0.014l-0.002,-0.014l-0.004,-0.015l-0.005,-0.015l-0.006,-0.015l-0.008,-0.016l-0.009,-0.017l-0.011,-0.016l-0.012,-0.017l-0.005,-0.007l-0.008,-0.011l-0.015,-0.017l-0.017,-0.019l-0.019,-0.018l-0.016,-0.015l-0.004,-0.004l-0.002,-0.012l0.013,-0.002l0.004,0.003l0.02,0.013l0.022,0.015l0.02,0.016l0.019,0.016l0.011,0.01l0.007,0.006l0.015,0.016l0.015,0.017l0.013,0.017l0.012,0.017l0.01,0.017l0.009,0.017l0.008,0.018l0.006,0.018l0.005,0.017l0.003,0.018l0.002,0.018l0.001,0.018l-0.001,0.018l-0.002,0.018l-0.003,0.017l-0.004,0.018l-0.002,0.004l-0.004,0.013l-0.007,0.016l-0.007,0.017l-0.009,0.016l-0.01,0.016l-0.01,0.015l-0.012,0.016l-0.024,0.028l-0.028,0.028l0,0l-0.031,0.026l-0.033,0.024l-0.034,0.022l-0.037,0.021l-0.03,0.015l-0.008,0.004l-0.039,0.017l-0.041,0.015l-0.041,0.013l-0.041,0.011l-0.008,0.002l-0.035,0.006l-0.042,0.006l-0.011,0.001l-0.031,0.002l-0.042,0.001l-0.01,-0.001l-0.031,-0.002l-0.04,-0.005l-0.01,-0.002l-0.023,-0.006l-0.048,-0.006l-0.001,0l-0.051,-0.011l-0.049,-0.012l-0.047,-0.015l-0.017,-0.006l-0.027,-0.011l-0.042,-0.019l-0.039,-0.02l-0.037,-0.022l-0.011,-0.008l-0.023,-0.016l-0.032,-0.026l-0.029,-0.026l-0.027,-0.027l-0.02,-0.024l-0.003,-0.005l-0.021,-0.029l-0.019,-0.03l-0.015,-0.03l-0.013,-0.03l-0.011,-0.031l-0.007,-0.031l-0.005,-0.03l-0.002,-0.03l0.001,-0.03l0.003,-0.029l0.002,-0.006l0.005,-0.022l0.009,-0.027l0.012,-0.027l0.015,-0.024l0.017,-0.023l0.02,-0.022l0.022,-0.02l0.025,-0.018l0.022,-0.013l0.005,-0.003l0.012,0.002Z" style="fill:#fff8f8;"/><path id="H-3" serif:id="H 3" d="M2.818,5.472l-0.003,0.009l-0.007,0.028l-0.007,0.036l-0.005,0.036l-0.002,0.037l0.001,0.036l0.003,0.037l0.006,0.036l0.003,0.015l0.004,0.021l0.01,0.035l0.012,0.035l0.014,0.035l0.017,0.033l0.019,0.033l0.021,0.032l0.022,0.031l0.025,0.03l0.006,0.006l0.021,0.022l0.029,0.028l0.03,0.026l0.033,0.024l0.019,0.013l0.015,0.01l0.036,0.022l0.038,0.02l0.04,0.018l0.026,0.01l0.016,0.006l0.043,0.015l0.045,0.012l0.047,0.01l0.014,0.002l0.036,0.007l0.025,0.003l0.025,0.003l0.027,0.002l0.026,0.002l0.022,0l0.006,0.001l0.03,0.001l0.047,0.003l0.043,0.002l0.043,-0.001l0.011,0l0.032,-0.001l0.042,-0.002l0.041,-0.004l0.041,-0.005l0.039,-0.007l0.001,0l0.039,-0.008l0.039,-0.01l0.037,-0.011l0.036,-0.012l0.036,-0.014l0.006,-0.003l0.028,-0.011l0.033,-0.017l0.031,-0.017l0.031,-0.019l0.028,-0.02l0.019,-0.014l0.008,-0.007l0.026,-0.022l0.024,-0.024l0.023,-0.025l0.02,-0.026l0.019,-0.027l0.017,-0.029l0.015,-0.03l0.013,-0.031l0.01,-0.033l0.002,-0.008l0.007,-0.026l0.006,-0.035l0.004,-0.036l0.001,-0.039l0.019,-0.024l0.021,0.022l0.005,0.04l0.001,0.04l-0.001,0.04l-0.003,0.029l-0.001,0.01l-0.007,0.038l-0.01,0.038l-0.012,0.037l-0.015,0.035l-0.017,0.035l-0.02,0.034l-0.023,0.032l-0.024,0.032l-0.027,0.03l-0.009,0.009l-0.019,0.02l-0.031,0.027l-0.033,0.026l-0.034,0.025l-0.036,0.023l-0.03,0.017l-0.008,0.004l-0.039,0.02l-0.04,0.019l-0.042,0.016l-0.043,0.016l-0.045,0.013l-0.001,0.001l-0.044,0.011l-0.046,0.009l-0.048,0.008l-0.047,0.007l-0.037,0.003l-0.012,0.001l-0.05,0.001l-0.049,0l-0.047,-0.002l-0.03,0l-0.006,0l-0.025,-0.001l-0.032,-0.003l-0.03,-0.003l-0.03,-0.004l-0.031,-0.005l-0.041,-0.008l-0.016,-0.004l-0.056,-0.015l-0.053,-0.018l-0.051,-0.021l-0.018,-0.008l-0.03,-0.015l-0.046,-0.025l-0.044,-0.028l-0.041,-0.03l-0.017,-0.013l-0.021,-0.018l-0.036,-0.034l-0.033,-0.034l-0.031,-0.036l-0.022,-0.03l-0.006,-0.008l-0.025,-0.038l-0.022,-0.04l-0.02,-0.04l-0.017,-0.041l-0.014,-0.041l-0.012,-0.041l-0.008,-0.042l-0.007,-0.042l-0.002,-0.025l-0.001,-0.017l0,-0.041l0.002,-0.041l0.005,-0.041l0.008,-0.04l0.01,-0.039l0.013,-0.038l0.012,-0.027l0.004,-0.009l0.026,-0.013l0.012,0.026Z" style="fill:#fff8f8;"/><path id="H-2" serif:id="H 2" d="M2.547,5.911l0,0.01l0.001,0.019l0.002,0.029l0.003,0.028l0.003,0.027l0.004,0.027l0.005,0.026l0.006,0.025l0.006,0.024l0.007,0.025l0.007,0.023l0.008,0.023l0.006,0.016l0.002,0.006l0.009,0.022l0.01,0.021l0.01,0.02l0.01,0.02l0.011,0.019l0.012,0.019l0.024,0.036l0.027,0.034l0.028,0.032l0.03,0.03l0.031,0.028l0.011,0.009l0.022,0.018l0.034,0.024l0.035,0.023l0.037,0.022l0.035,0.018l0.003,0.001l0.04,0.019l0.04,0.016l0.042,0.016l0.042,0.013l0.017,0.005l0.026,0.007l0.044,0.011l0.045,0.01l0.045,0.008l0.028,0.004l0.018,0.003l0.046,0.005l0.047,0.005l0.047,0.003l0.024,0l0.023,0.002l0.048,0.001l0.047,0l0.047,-0.001l0.027,-0.002l0.021,-0.001l0.047,-0.003l0.047,-0.004l0.046,-0.006l0.046,-0.007l0.009,-0.002l0.036,-0.006l0.045,-0.01l0.044,-0.01l0.043,-0.012l0.042,-0.013l0.009,-0.004l0.032,-0.011l0.04,-0.015l0.039,-0.017l0.037,-0.018l0.036,-0.019l0.015,-0.009l0.02,-0.011l0.033,-0.022l0.031,-0.022l0.029,-0.024l0.028,-0.025l0.026,-0.026l0.023,-0.028l0.022,-0.028l0.019,-0.03l0.016,-0.03l0.001,-0.002l0.015,-0.032l0.006,-0.017l0.006,-0.017l0.006,-0.018l0.004,-0.017l0.004,-0.019l0.003,-0.019l0.021,-0.018l0.016,0.021l0,0.021l-0.001,0.02l-0.001,0.02l-0.003,0.02l-0.003,0.02l-0.004,0.02l-0.011,0.039l0,0.001l-0.014,0.037l-0.016,0.037l-0.02,0.036l-0.022,0.035l-0.025,0.034l-0.027,0.034l-0.029,0.032l-0.031,0.03l-0.034,0.03l-0.02,0.016l-0.016,0.012l-0.037,0.027l-0.04,0.026l-0.04,0.024l-0.043,0.023l-0.034,0.017l-0.01,0.005l-0.045,0.02l-0.047,0.019l-0.047,0.017l-0.049,0.016l-0.039,0.011l-0.01,0.003l-0.051,0.012l-0.051,0.011l-0.052,0.009l-0.052,0.008l-0.023,0.003l-0.03,0.003l-0.053,0.003l-0.054,0.002l-0.053,0l-0.027,-0.001l-0.027,-0.001l-0.053,-0.005l-0.053,-0.006l-0.052,-0.008l-0.021,-0.004l-0.031,-0.006l-0.052,-0.013l-0.05,-0.014l-0.05,-0.016l-0.03,-0.01l-0.019,-0.008l-0.048,-0.02l-0.047,-0.022l-0.045,-0.024l-0.044,-0.026l-0.003,-0.002l-0.039,-0.026l-0.041,-0.03l-0.039,-0.032l-0.036,-0.033l-0.024,-0.025l-0.011,-0.011l-0.033,-0.038l-0.03,-0.04l-0.027,-0.042l-0.026,-0.043l-0.022,-0.045l-0.01,-0.024l-0.01,-0.023l-0.009,-0.024l-0.008,-0.025l-0.007,-0.025l-0.007,-0.025l-0.001,-0.007l-0.004,-0.019l-0.005,-0.026l-0.004,-0.027l-0.003,-0.027l-0.003,-0.027l-0.002,-0.028l0,-0.028l-0.001,-0.029l0.001,-0.029l0.002,-0.029l0.002,-0.03l0.002,-0.019l0.002,-0.01l0.019,-0.018l0.018,0.019Z" style="fill:#fff8f8;"/><path id="H-1" serif:id="H 1" d="M2.421,6.464l0.002,0.013l0.006,0.038l0.011,0.047l0.013,0.046l0.016,0.043l0.017,0.041l0.02,0.039l0.002,0.004l0.019,0.034l0.023,0.035l0.025,0.034l0.027,0.032l0.028,0.031l0.031,0.029l0.031,0.027l0.033,0.025l0.015,0.011l0.02,0.013l0.035,0.023l0.037,0.022l0.038,0.02l0.039,0.019l0.041,0.017l0.041,0.015l0.043,0.014l0.043,0.013l0.008,0.002l0.036,0.01l0.044,0.011l0.046,0.009l0.046,0.008l0.015,0.002l0.031,0.005l0.047,0.007l0.047,0.004l0.048,0.004l0.009,0l0.038,0.003l0.048,0.002l0.048,0l0.048,-0.001l0.016,0l0.032,-0.001l0.048,-0.002l0.047,-0.004l0.048,-0.005l0.047,-0.007l0.005,-0.001l0.041,-0.006l0.046,-0.008l0.046,-0.01l0.045,-0.011l0.044,-0.013l0.043,-0.014l0.042,-0.015l0.041,-0.016l0.04,-0.018l0.039,-0.019l0.023,-0.013l0.015,-0.008l0.036,-0.021l0.035,-0.023l0.034,-0.024l0.032,-0.025l0.031,-0.027l0.028,-0.028l0.027,-0.03l0.026,-0.031l0.023,-0.032l0.021,-0.034l0.019,-0.036l0.017,-0.037l0.015,-0.039l0.031,-0.019l0.015,0.033l-0.009,0.043l-0.013,0.042l-0.016,0.042l-0.018,0.04l-0.02,0.04l-0.023,0.038l-0.026,0.037l-0.027,0.036l-0.03,0.035l-0.032,0.033l-0.034,0.032l-0.036,0.031l-0.037,0.03l-0.016,0.011l-0.023,0.016l-0.041,0.027l-0.043,0.025l-0.044,0.023l-0.045,0.022l-0.046,0.021l-0.047,0.019l-0.049,0.018l-0.049,0.016l-0.05,0.015l-0.046,0.012l-0.005,0.002l-0.052,0.011l-0.052,0.01l-0.053,0.008l-0.053,0.007l-0.036,0.003l-0.017,0.001l-0.054,0.003l-0.054,0.001l-0.054,0l-0.043,-0.002l-0.011,-0.001l-0.053,-0.005l-0.053,-0.006l-0.053,-0.009l-0.035,-0.006l-0.017,-0.004l-0.052,-0.012l-0.051,-0.014l-0.05,-0.016l-0.04,-0.013l-0.009,-0.004l-0.048,-0.02l-0.047,-0.021l-0.046,-0.023l-0.045,-0.024l-0.043,-0.027l-0.042,-0.028l-0.04,-0.029l-0.038,-0.031l-0.021,-0.019l-0.016,-0.014l-0.034,-0.035l-0.033,-0.037l-0.03,-0.038l-0.028,-0.04l-0.025,-0.041l-0.024,-0.043l-0.02,-0.044l-0.017,-0.042l-0.001,-0.004l-0.015,-0.047l-0.012,-0.048l-0.009,-0.05l-0.007,-0.051l-0.003,-0.052l0,-0.039l0,-0.014l0.022,-0.026l0.026,0.022Z" style="fill:#fff8f8;"/></g></g><clipPath id="_clip7"><rect id="Parlament-observer-logo" serif:id="Parlament observer logo" x="0.724" y="0.704" width="25.435" height="8.478"/></clipPath><g clip-path="url(#_clip7)"><g><path d="M5.881,1.988l0,1.221l0.41,0l0,-0.508l0,-0.509l0.365,0c0.41,0 0.5,-0.015 0.649,-0.103c0.243,-0.144 0.382,-0.451 0.331,-0.724c-0.055,-0.304 -0.286,-0.533 -0.585,-0.582c-0.054,-0.01 -0.337,-0.017 -0.633,-0.017l-0.537,0l0,1.222Zm1.172,-0.781c0.21,0.095 0.247,0.381 0.069,0.517c-0.082,0.062 -0.186,0.076 -0.52,0.072l-0.303,-0.009l-0.006,-0.308l-0.003,-0.307l0.347,0c0.304,0 0.358,0.009 0.415,0.031l0.001,0.004Zm1.582,-0.434c0,0 -0.204,0.524 -0.453,1.159c-0.249,0.634 -0.462,1.182 -0.475,1.216l-0.021,0.063l0.214,-0.009l0.215,-0.009l0.084,-0.213l0.085,-0.213l1.08,0l0.084,0.213l0.085,0.213l0.216,0.009c0.171,0 0.215,0 0.209,-0.017c-0.006,-0.011 -0.217,-0.552 -0.471,-1.201c-0.254,-0.65 -0.465,-1.19 -0.47,-1.202c-0.007,-0.013 -0.061,-0.019 -0.195,-0.019c-0.104,0 -0.187,0 -0.187,0.008l0,0.002Zm0.387,1.121l0.185,0.471l-0.187,0.008c-0.103,0 -0.275,0 -0.382,0l-0.197,-0.008l0.046,-0.115c0.025,-0.064 0.11,-0.279 0.189,-0.48c0.078,-0.202 0.147,-0.361 0.152,-0.356c0.006,0.009 0.094,0.221 0.194,0.48l0,0Zm1.252,0.094l0,1.221l0.41,0l0,-0.508l0,-0.509l0.472,0l0.292,0.509l0.291,0.508l0.471,0l-0.025,-0.046c-0.013,-0.025 -0.149,-0.264 -0.303,-0.533l-0.279,-0.488l0.043,-0.017c0.08,-0.03 0.197,-0.128 0.256,-0.215c0.206,-0.302 0.17,-0.692 -0.084,-0.934c-0.202,-0.194 -0.28,-0.21 -0.998,-0.21l-0.546,0l0,1.222Zm1.134,-0.796c0.133,0.038 0.21,0.146 0.21,0.296c0,0.116 -0.047,0.2 -0.142,0.257l-0.079,0.046l-0.353,0l-0.352,0l-0.005,-0.308l-0.004,-0.307l0.331,0c0.184,0 0.361,0.009 0.394,0.017l0,-0.001Zm1.189,-0.416c-0.006,0.009 -0.012,0.557 -0.012,1.223l0,1.21l1.623,0l0,-0.205l0,-0.205l-0.598,0l-0.599,0l-0.003,-1.013l-0.005,-1.012l-0.199,-0.008c-0.108,0 -0.201,0 -0.208,0.008l0.001,0.002Zm2.6,0.01c-0.022,0.028 -0.94,2.377 -0.94,2.403c0,0.017 0.051,0.019 0.208,0.017l0.209,-0.009l0.085,-0.213l0.084,-0.213l1.078,0l0.089,0.216l0.088,0.218l0.21,0c0.116,0 0.211,0 0.211,-0.009c0,0 -0.213,-0.55 -0.473,-1.218l-0.474,-1.211l-0.179,-0.009c-0.132,0 -0.185,0 -0.196,0.017l0,0.011Zm0.38,1.095c0.097,0.247 0.18,0.461 0.183,0.47c0.007,0.017 -0.073,0.022 -0.37,0.022c-0.266,0 -0.379,-0.009 -0.379,-0.019c0,-0.04 0.368,-0.949 0.377,-0.938c0.007,0.009 0.092,0.217 0.189,0.464l0,0.001Zm1.254,0.106l0,1.222l0.393,0l0,-0.82c0,-0.451 0.007,-0.82 0.013,-0.82c0.01,0 0.618,0.766 0.766,0.963c0.013,0.017 0.108,-0.095 0.41,-0.481l0.393,-0.503l0.006,0.831l0.003,0.831l0.193,-0.008l0.192,-0.009l0,-1.213l0,-1.213l-0.114,-0.009c-0.063,0 -0.123,0 -0.133,0.009c-0.008,0.008 -0.215,0.267 -0.456,0.578c-0.243,0.312 -0.449,0.576 -0.459,0.587c-0.015,0.015 -0.121,-0.11 -0.485,-0.579l-0.467,-0.598l-0.127,0l-0.127,0l-0.001,1.232Zm2.959,-1.201c-0.006,0.011 -0.006,0.559 -0.006,1.218l0.006,1.196l1.623,0l0,-0.196l0,-0.197l-0.602,-0.009l-0.603,0l0,-0.36l0,-0.361l0.918,0l0,-0.197l0,-0.196l-0.459,0l-0.459,0l0,-0.254l0,-0.255l1.214,0l-0.005,-0.201l-0.005,-0.2l-0.808,-0.009c-0.638,0 -0.81,0 -0.815,0.017l0.001,0.004Zm1.954,-0.009c-0.006,0.009 -0.012,0.556 -0.012,1.221l0,1.212l0.21,-0.009l0.208,-0.009l0.008,-0.821l0.008,-0.823l0.656,0.826l0.656,0.826l0.131,0l0.131,-0.009l0,-1.213l0,-1.213l-0.205,0l-0.205,0l-0.008,0.827l-0.008,0.826l-0.66,-0.83l-0.661,-0.831l-0.12,0c-0.065,0 -0.124,0.009 -0.129,0.012l0,0.008Zm2.344,0c-0.006,0.009 -0.012,0.098 -0.012,0.205l0,0.193l0.836,0l0,2.035l0.21,-0.009l0.208,-0.009l0.006,-1.013l0.003,-1.011l0.82,0l0,-0.205l0,-0.205l-1.03,0c-0.567,0 -1.036,0.009 -1.041,0.011l0,0.008Zm-18.142,5.472l0,1.221l0.546,0c0.325,0 0.585,-0.009 0.644,-0.018c0.358,-0.066 0.604,-0.386 0.576,-0.748c-0.017,-0.226 -0.136,-0.416 -0.336,-0.539c-0.004,0 0.013,-0.036 0.034,-0.076c0.117,-0.198 0.125,-0.452 0.022,-0.661c-0.099,-0.198 -0.291,-0.345 -0.5,-0.385c-0.048,-0.009 -0.291,-0.017 -0.536,-0.017l-0.45,0l0,1.223Zm0.994,-0.78c0.169,0.076 0.226,0.313 0.111,0.455c-0.088,0.108 -0.128,0.12 -0.428,0.12l-0.267,0l0,-0.303l0,-0.304l0.259,0c0.215,0 0.269,0.009 0.325,0.031l0,0.001Zm0.211,1.022c0.223,0.127 0.19,0.484 -0.052,0.551c-0.035,0.01 -0.215,0.019 -0.402,0.019l-0.341,0l0,-0.304l0,-0.303l0.366,0c0.347,0 0.367,0 0.429,0.038l0,-0.001Zm1.582,-1.454c-0.229,0.04 -0.352,0.088 -0.485,0.187c-0.299,0.225 -0.356,0.687 -0.113,0.928c0.149,0.149 0.365,0.226 0.787,0.277c0.282,0.035 0.362,0.053 0.454,0.102c0.123,0.065 0.154,0.165 0.096,0.293c-0.087,0.192 -0.414,0.289 -0.713,0.212c-0.134,-0.035 -0.328,-0.14 -0.457,-0.246l-0.108,-0.09l-0.123,0.142c-0.069,0.078 -0.125,0.148 -0.125,0.156c0,0.038 0.253,0.22 0.43,0.31c0.208,0.105 0.383,0.149 0.595,0.151c0.203,0 0.328,-0.025 0.495,-0.105c0.119,-0.058 0.295,-0.213 0.354,-0.315c0.147,-0.251 0.113,-0.577 -0.079,-0.744c-0.159,-0.141 -0.333,-0.2 -0.729,-0.251c-0.313,-0.041 -0.408,-0.061 -0.485,-0.105c-0.091,-0.051 -0.127,-0.108 -0.125,-0.197c0.005,-0.198 0.165,-0.305 0.462,-0.305c0.21,0 0.4,0.059 0.595,0.184c0.076,0.049 0.081,0.049 0.102,0.019c0.011,-0.016 0.062,-0.083 0.113,-0.145c0.051,-0.064 0.092,-0.123 0.092,-0.132c0,-0.051 -0.364,-0.232 -0.569,-0.285c-0.13,-0.034 -0.38,-0.055 -0.464,-0.04l0,-0.001Zm1.582,0.01c-0.005,0.012 -0.006,0.559 -0.005,1.218l0.005,1.197l0.808,0.009l0.807,0l0,-0.205l0,-0.205l-0.599,0l-0.598,0l0,-0.361l0,-0.361l0.918,0l0,-0.196l0,-0.197l-0.459,0l-0.459,0l0,-0.254l0,-0.254l1.197,0l0,-0.205l0,-0.205l-0.804,0c-0.627,0 -0.806,0.009 -0.811,0.019l0,0Zm1.942,1.202l0,1.223l0.21,-0.009l0.208,-0.009l0.006,-0.505l0.003,-0.503l0.469,0l0.287,0.503l0.288,0.505l0.233,0.009c0.133,0 0.231,0 0.231,-0.012c0,-0.009 -0.129,-0.241 -0.288,-0.518c-0.158,-0.277 -0.292,-0.513 -0.295,-0.523c-0.004,-0.011 0.018,-0.028 0.047,-0.039c0.138,-0.05 0.297,-0.249 0.348,-0.436c0.021,-0.08 0.026,-0.143 0.021,-0.246c-0.015,-0.236 -0.124,-0.42 -0.329,-0.553c-0.159,-0.103 -0.24,-0.113 -0.879,-0.113l-0.559,0l-0.001,1.226Zm1.228,-0.758c0.171,0.113 0.176,0.371 0.008,0.497l-0.06,0.048l-0.376,0.008l-0.374,0.009l0,-0.305l0,-0.304l0.366,0.008l0.367,0.009l0.069,0.03Zm0.838,-0.449c0,0.009 0.213,0.556 0.474,1.218l0.473,1.202l0.384,0l0.474,-1.203c0.26,-0.663 0.473,-1.212 0.473,-1.218c0,-0.009 -0.098,-0.014 -0.219,-0.014l-0.22,0l-0.098,0.25c-0.053,0.137 -0.21,0.54 -0.348,0.895c-0.151,0.383 -0.255,0.636 -0.264,0.622c-0.01,-0.018 -0.564,-1.436 -0.657,-1.681l-0.031,-0.086l-0.221,0c-0.122,0 -0.22,0.009 -0.22,0.015l0,0Zm2.59,1.207l0,1.221l1.623,0l0,-0.205l0,-0.205l-0.607,0l-0.606,0l0.003,-0.357l0.006,-0.356l0.463,-0.009l0.463,0l0,-0.196l0,-0.197l-0.463,0l-0.463,-0.009l-0.006,-0.251l-0.005,-0.249l1.215,0l0,-0.205l0,-0.205l-0.812,0l-0.811,0l0,1.223Zm1.951,0l0,1.221l0.409,0l0,-0.508l0,-0.51l0.482,0.018l0.264,0.46c0.144,0.253 0.276,0.479 0.292,0.503l0.028,0.045l0.229,0c0.127,0 0.23,0 0.23,-0.009c0,-0.009 -0.133,-0.241 -0.295,-0.525c-0.162,-0.283 -0.295,-0.521 -0.295,-0.529c0,-0.009 0.029,-0.027 0.065,-0.043c0.161,-0.07 0.308,-0.29 0.346,-0.513c0.062,-0.375 -0.193,-0.736 -0.574,-0.808c-0.049,-0.009 -0.331,-0.017 -0.634,-0.017l-0.547,0l0,1.215Zm1.16,-0.787c0.123,0.053 0.189,0.147 0.189,0.279c0.001,0.108 -0.043,0.196 -0.125,0.25c-0.065,0.044 -0.067,0.044 -0.441,0.05l-0.374,0.008l0,-0.303l0,-0.305l0.345,0c0.275,0 0.357,0.009 0.406,0.025l0,-0.004Z" style="fill:#fff;fill-rule:nonzero;"/></g></g></g></svg>